<?xml version="1.0" encoding="UTF-8" standalone="no"?>
<!-- Generator: Adobe Illustrator 23.0.3, SVG Export Plug-In . SVG Version: 6.00 Build 0)  -->

<svg
   version="1.1"
   id="Layer_1"
   x="0px"
   y="0px"
   width="426px"
   height="422px"
   viewBox="0 0 426 422"
   style="enable-background:new 0 0 426 422;"
   xml:space="preserve"
   sodipodi:docname="screen.svg"
   inkscape:version="1.2.1 (9c6d41e, 2022-07-14)"
   xmlns:inkscape="http://www.inkscape.org/namespaces/inkscape"
   xmlns:sodipodi="http://sodipodi.sourceforge.net/DTD/sodipodi-0.dtd"
   xmlns="http://www.w3.org/2000/svg"
   xmlns:svg="http://www.w3.org/2000/svg"><defs
   id="defs1875">
	
	
	
	
	
</defs><sodipodi:namedview
   id="namedview1873"
   pagecolor="#ffffff"
   bordercolor="#999999"
   borderopacity="1"
   inkscape:showpageshadow="0"
   inkscape:pageopacity="0"
   inkscape:pagecheckerboard="0"
   inkscape:deskcolor="#d1d1d1"
   showgrid="false"
   inkscape:zoom="1.4010822"
   inkscape:cx="216.61827"
   inkscape:cy="203.05733"
   inkscape:window-width="1158"
   inkscape:window-height="783"
   inkscape:window-x="299"
   inkscape:window-y="25"
   inkscape:window-maximized="0"
   inkscape:current-layer="Layer_1" />
<style
   type="text/css"
   id="style1616">
	.st0{fill:none;stroke:#FF0000;stroke-width:0.5;stroke-miterlimit:10;}
	.st1{fill:#0000FF;}
</style>
<path
   class="st0"
   d="M 383.6,368 V 56.1 c 0,-7.8 -6.3,-14.2 -14.2,-14.2 H 57.6 c -7.8,0 -14.2,6.3 -14.2,14.2 V 368 c 0,7.8 6.3,14.2 14.2,14.2 h 311.8 c 7.9,-0.1 14.2,-6.4 14.2,-14.2 z"
   id="path1618"
   style="fill:none;stroke:#000000;stroke-width:0.33919619;stroke-dasharray:none;stroke-opacity:1" /><circle
   class="st0"
   cx="-64.700012"
   cy="63.200001"
   r="4.3000002"
   id="circle1620"
   style="fill:none;stroke:#000000;stroke-width:0.565327;stroke-dasharray:none;stroke-opacity:1"
   transform="scale(-1,1)" /><circle
   class="st0"
   cx="-362.39999"
   cy="360.89999"
   r="4.3000002"
   id="circle1622"
   style="fill:none;stroke:#000000;stroke-width:0.565327;stroke-dasharray:none;stroke-opacity:1"
   transform="scale(-1,1)" /><circle
   class="st0"
   cx="-64.700012"
   cy="360.89999"
   r="4.3000002"
   id="circle1624"
   style="fill:none;stroke:#000000;stroke-width:0.565327;stroke-dasharray:none;stroke-opacity:1"
   transform="scale(-1,1)" /><circle
   class="st0"
   cx="-362.39999"
   cy="63.200001"
   r="4.3000002"
   id="circle1626"
   style="fill:none;stroke:#000000;stroke-width:0.565327;stroke-dasharray:none;stroke-opacity:1"
   transform="scale(-1,1)" />






















<path
   d="m 290.13836,135.3623 h 5.10938 v -1.54687 h -1.42969 v -5.63086 h 1.42969 v -1.54687 h -5.10938 v 1.54687 h 1.42969 v 5.63086 h -1.42969 z"
   style="font-weight:bold;font-size:12px;-inkscape-font-specification:'sans-serif, Bold';white-space:pre;inline-size:51.807;mix-blend-mode:lighten;fill:none;fill-opacity:1;stroke:#000000;stroke-opacity:1;stroke-width:0.3395358;stroke-dasharray:none"
   id="path2282" /><path
   id="path2284"
   style="font-weight:bold;font-size:12px;-inkscape-font-specification:'sans-serif, Bold';white-space:pre;inline-size:51.807;fill:none;stroke:#000000;stroke-opacity:1;stroke-width:0.33919626;stroke-dasharray:none;fill-opacity:1"
   d="M 271.16016 126.63867 L 267.9375 135.36133 L 270.26367 135.36133 L 270.86719 133.59766 L 272.21094 133.59766 L 272.21094 131.99805 L 271.41211 131.99805 L 272.48438 128.87109 L 272.50977 128.94531 L 272.50977 126.63867 L 271.16016 126.63867 z M 273.25781 126.63867 L 273.25781 131.12695 L 273.55664 131.99805 L 273.22266 131.99805 L 273.22266 133.59766 L 274.10156 133.59766 L 274.70508 135.36133 L 276.97266 135.36133 L 273.75 126.63867 L 273.25781 126.63867 z " /><path
   d="m 257.5368,135.3623 h 2.23828 v -5.84179 l 1.61719,3.79101 h 1.55274 l 1.61718,-3.79101 v 5.84179 h 2.1211 v -8.7246 h -2.61328 l -1.9629,4.37695 -1.95703,-4.37695 h -2.61328 z"
   style="font-weight:bold;font-size:12px;-inkscape-font-specification:'sans-serif, Bold';white-space:pre;inline-size:51.807;fill:none;stroke:#000000;stroke-opacity:1;stroke-width:0.33919626;stroke-dasharray:none"
   id="path2286" /><text
   xml:space="preserve"
   style="font-style:normal;font-variant:normal;font-weight:bold;font-stretch:normal;font-size:12px;font-family:sans-serif;-inkscape-font-specification:'sans-serif, Bold';font-variant-ligatures:normal;font-variant-caps:normal;font-variant-numeric:normal;font-variant-east-asian:normal;fill:#00ff00"
   x="-233.63203"
   y="90.323189"
   id="text2115"
   transform="scale(-1,1)"><tspan
     sodipodi:role="line"
     id="tspan2129"
     x="-233.63203"
     y="90.323189" /></text><text
   xml:space="preserve"
   style="font-style:normal;font-variant:normal;font-weight:normal;font-stretch:normal;font-size:12px;font-family:Silom;-inkscape-font-specification:'Silom, Normal';font-variant-ligatures:normal;font-variant-caps:normal;font-variant-numeric:normal;font-variant-east-asian:normal;fill:#00ff00"
   x="-294.05951"
   y="92.23143"
   id="text2119"
   transform="scale(-1,1)"><tspan
     sodipodi:role="line"
     id="tspan2117"
     x="-294.05951"
     y="92.23143" /></text><path
   d="M 211.56981,176.19141 V 174 h -2.30274 v 2.19141 z m 4.27734,0 V 174 h -2.30273 v 2.19141 z"
   style="font-weight:bold;font-size:12px;font-family:sans-serif;-inkscape-font-specification:'sans-serif, Bold';fill:none;stroke:#000000;stroke-opacity:1;stroke-width:0.34021586;stroke-dasharray:none"
   id="path2289" /><path
   d="m 212.49559,182.90039 q 1.6582,0 3.05273,-0.54492 1.39454,-0.53906 2.7129,-1.66406 v -2.20899 h -0.16993 q -0.41601,0.46875 -0.97851,0.91406 -0.5625,0.44532 -1.25977,0.79102 -0.72656,0.36328 -1.54101,0.57422 -0.81446,0.2168 -1.81641,0.2168 -0.96094,0 -1.81055,-0.22266 -0.84961,-0.2168 -1.54687,-0.56836 -0.72656,-0.36914 -1.26563,-0.80273 -0.54492,-0.42774 -0.97265,-0.90235 h -0.16992 v 2.20899 q 1.31835,1.125 2.71289,1.66406 1.39453,0.54492 3.05273,0.54492 z"
   style="font-weight:bold;font-size:12px;font-family:sans-serif;-inkscape-font-specification:'sans-serif, Bold';fill:none;stroke:#000000;stroke-opacity:1;stroke-width:0.34021586;stroke-dasharray:none"
   id="path2291" /><path
   d="m 237.48051,205.06445 q 0.97266,0 1.79883,-0.28711 0.82032,-0.28711 1.41211,-0.85547 0.5918,-0.56835 0.91992,-1.41796 0.32227,-0.84961 0.32227,-1.96289 0,-1.03711 -0.31055,-1.88086 -0.31054,-0.84375 -0.90234,-1.44727 -0.56836,-0.58008 -1.40625,-0.89648 Q 238.47075,196 237.47466,196 q -0.55079,0 -0.99024,0.0644 -0.44531,0.0586 -0.82031,0.15821 -0.39258,0.11132 -0.70899,0.25195 -0.32226,0.13476 -0.5625,0.25195 v 2.11524 h 0.25782 q 0.16406,-0.14063 0.41601,-0.33399 0.2461,-0.19336 0.5625,-0.38086 0.32227,-0.1875 0.69727,-0.3164 0.375,-0.12891 0.80273,-0.12891 0.47461,0 0.90235,0.15234 0.42773,0.14649 0.79101,0.49219 0.3457,0.33399 0.5625,0.88477 0.21094,0.55078 0.21094,1.33593 0,0.82032 -0.22852,1.3711 -0.23437,0.55078 -0.58593,0.86719 -0.35743,0.32226 -0.79688,0.46289 -0.43945,0.13476 -0.86719,0.13476 -0.41015,0 -0.80859,-0.12304 -0.4043,-0.12305 -0.74414,-0.33399 -0.28711,-0.16992 -0.5332,-0.36328 -0.2461,-0.19336 -0.4043,-0.33398 h -0.23438 v 2.08593 q 0.32813,0.14649 0.62696,0.27539 0.29883,0.12891 0.62695,0.22266 0.42773,0.12305 0.80273,0.1875 0.375,0.0644 1.03125,0.0644 z"
   id="path2294"
   style="font-weight:bold;font-size:12px;-inkscape-font-specification:'sans-serif, Bold';fill:none;stroke:#000000;stroke-opacity:1;stroke-width:0.34021586;stroke-dasharray:none" /><path
   id="path2296"
   style="font-weight:bold;font-size:12px;-inkscape-font-specification:'sans-serif, Bold';fill:none;stroke:#000000;stroke-opacity:1;stroke-width:0.34021586;stroke-dasharray:none;fill-opacity:1"
   d="M 227.90039 196.16992 L 224.67773 204.89453 L 227.00391 204.89453 L 227.60742 203.13086 L 229.01758 203.13086 L 229.01758 201.53125 L 228.15234 201.53125 L 229.12305 198.69922 L 229.12305 196.16992 L 227.90039 196.16992 z M 230.12695 196.16992 L 230.12695 200.80273 L 230.04688 200.80273 L 230.29688 201.53125 L 230.00586 201.53125 L 230.00586 203.13086 L 230.8418 203.13086 L 231.44531 204.89453 L 233.71289 204.89453 L 230.49023 196.16992 L 230.12695 196.16992 z " /><path
   d="m 217.13091,204.89453 h 6.29296 v -8.72461 h -2.25 v 7.03711 h -4.04296 z"
   id="path2298"
   style="font-weight:bold;font-size:12px;-inkscape-font-specification:'sans-serif, Bold';fill:none;stroke:#000000;stroke-opacity:1;stroke-width:0.34021586;stroke-dasharray:none" /><path
   d="m 209.48442,204.89453 h 6.29297 v -8.72461 h -2.25 v 7.03711 h -4.04297 z"
   id="path2300"
   style="font-weight:bold;font-size:12px;-inkscape-font-specification:'sans-serif, Bold';fill:none;stroke:#000000;stroke-opacity:1;stroke-width:0.34021586;stroke-dasharray:none" /><path
   d="m 203.41411,204.89453 h 5.10937 v -1.54687 h -1.42968 v -5.63086 h 1.42968 v -1.54688 h -5.10937 v 1.54688 h 1.42969 v 5.63086 h -1.42969 z"
   id="path2302"
   style="font-weight:bold;font-size:12px;-inkscape-font-specification:'sans-serif, Bold';fill:none;stroke:#000000;stroke-opacity:1;stroke-width:0.34021586;stroke-dasharray:none" /><path
   d="m 193.64653,204.89453 h 2.16797 l 3.70312,-5.98828 v 5.98828 h 2.0625 v -8.72461 h -2.68945 l -3.18164,4.99805 v -4.99805 h -2.0625 z"
   id="path2304"
   style="font-weight:bold;font-size:12px;-inkscape-font-specification:'sans-serif, Bold';fill:none;stroke:#000000;stroke-opacity:1;stroke-width:0.34021586;stroke-dasharray:none" /><path
   id="path2306"
   style="font-weight:bold;font-size:12px;-inkscape-font-specification:'sans-serif, Bold';fill:none;stroke:#000000;stroke-opacity:1;stroke-width:0.34021586;stroke-dasharray:none"
   d="M 187.11328 196 C 186.53906 196 185.99219 196.05274 185.47266 196.1582 C 184.95313 196.25977 184.375 196.46484 183.73828 196.77344 L 183.73828 198.81836 L 183.99023 198.81836 C 184.09961 198.73633 184.25976 198.62109 184.4707 198.47266 C 184.68164 198.32031 184.88477 198.1914 185.08008 198.08594 C 185.30664 197.96094 185.57227 197.85352 185.87695 197.76367 C 186.17773 197.67383 186.49804 197.62891 186.83789 197.62891 C 187.23632 197.62891 187.59766 197.6875 187.92188 197.80469 C 188.24609 197.92187 188.53711 198.10156 188.79492 198.34375 C 189.04101 198.57812 189.23633 198.87695 189.38086 199.24023 C 189.52148 199.59961 189.5918 200.01563 189.5918 200.48828 C 189.5918 201.45313 189.33594 202.19141 188.82422 202.70312 C 188.66592 202.86142 188.48432 202.99419 188.2793 203.10352 L 188.2793 204.99219 C 189.25189 204.83697 190.0493 204.46378 190.66992 203.86914 C 191.50976 203.06055 191.92969 201.94531 191.92969 200.52344 C 191.92969 199.16797 191.50586 198.07617 190.6582 197.24805 C 189.81054 196.41601 188.6289 196 187.11328 196 z M 183.70312 200.08984 L 183.70312 204.39648 C 184.09375 204.54883 184.61133 204.70117 185.25586 204.85352 C 185.89711 205.00119 186.53644 205.07542 187.17383 205.07617 L 187.17383 203.43359 C 186.97961 203.45775 186.77391 203.4707 186.55664 203.4707 C 186.4707 203.4707 186.37695 203.46884 186.27539 203.46484 C 186.16992 203.46084 186.07421 203.455 185.98828 203.44727 L 185.98828 201.73633 L 187.72852 201.73633 L 187.72852 200.08984 L 183.70312 200.08984 z " /><path
   d="m 281.61719,182.72461 h 2.25 v -3.84375 h 3.32226 v 3.84375 h 2.25 V 174 h -2.25 v 3.19336 h -3.32226 V 174 h -2.25 z"
   id="path2309"
   style="font-weight:bold;font-size:12px;-inkscape-font-specification:'sans-serif, Bold';fill:none;stroke:#000000;stroke-opacity:1;stroke-width:0.33919626;stroke-dasharray:none" /><path
   id="path2311"
   style="font-weight:bold;font-size:12px;-inkscape-font-specification:'sans-serif, Bold';fill:none;stroke:#000000;stroke-opacity:1;stroke-width:0.33919626;stroke-dasharray:none;fill-opacity:1"
   d="M 274.55078 174 L 271.32812 182.72461 L 273.6543 182.72461 L 274.25781 180.96094 L 275.33984 180.96094 L 275.33984 179.36133 L 274.80273 179.36133 L 275.875 176.23242 L 275.91211 176.33984 L 275.91211 174 L 274.55078 174 z M 276.70117 174 L 276.70117 178.64258 L 276.94727 179.36133 L 276.44531 179.36133 L 276.44531 180.96094 L 277.49219 180.96094 L 278.0957 182.72461 L 280.36328 182.72461 L 277.14062 174 L 276.70117 174 z " /><path
   id="path2313"
   style="font-weight:bold;font-size:12px;-inkscape-font-specification:'sans-serif, Bold';fill:none;stroke:#000000;stroke-opacity:1;stroke-width:0.33919626;stroke-dasharray:none"
   d="M 266.74023 174 L 266.74023 175.64062 C 266.93525 175.634 267.1587 175.62891 267.4375 175.62891 L 267.82422 175.62891 L 267.82422 178.24219 L 267.17969 178.24219 C 266.79687 178.24219 266.48242 178.21874 266.23633 178.17188 C 265.98633 178.12501 265.77735 178.03126 265.60938 177.89062 C 265.46485 177.76563 265.36133 177.61719 265.29883 177.44531 C 265.23243 177.26953 265.19922 177.05664 265.19922 176.80664 C 265.19922 176.56055 265.26562 176.34961 265.39844 176.17383 C 265.4573 176.0942 265.52059 176.0269 265.58789 175.96875 L 265.58789 174.03906 C 265.36174 174.06346 265.15519 174.09894 264.9707 174.14648 C 264.58789 174.24024 264.25 174.38281 263.95703 174.57422 C 263.60547 174.80469 263.33789 175.09961 263.1543 175.45898 C 262.9668 175.81836 262.87305 176.25 262.87305 176.75391 C 262.87305 177.14453 262.94141 177.52734 263.07812 177.90234 C 263.21484 178.27344 263.41016 178.58594 263.66406 178.83984 C 264.01172 179.1836 264.40039 179.44336 264.83008 179.61914 C 265.25586 179.79492 265.78711 179.88281 266.42383 179.88281 L 267.82422 179.88281 L 267.82422 182.72461 L 270.07422 182.72461 L 270.07422 174 L 266.74023 174 z " /><path
   id="path2315"
   style="font-weight:bold;font-size:12px;-inkscape-font-specification:'sans-serif, Bold';fill:none;stroke:#000000;stroke-opacity:1;stroke-width:0.33919626;stroke-dasharray:none"
   d="M 257.95508 174 L 257.95508 175.63867 C 258.1484 175.63225 258.36798 175.62891 258.64258 175.62891 L 259.0293 175.62891 L 259.0293 178.24219 L 258.38477 178.24219 C 258.00195 178.24219 257.6875 178.21874 257.44141 178.17188 C 257.19141 178.12501 256.98243 178.03126 256.81445 177.89062 C 256.66993 177.76563 256.56641 177.61719 256.50391 177.44531 C 256.43751 177.26953 256.4043 177.05664 256.4043 176.80664 C 256.4043 176.56055 256.4707 176.34961 256.60352 176.17383 C 256.66539 176.09012 256.73154 176.01896 256.80273 175.95898 L 256.80273 174.03906 C 256.57262 174.06347 256.36298 174.09824 256.17578 174.14648 C 255.79297 174.24024 255.45508 174.38281 255.16211 174.57422 C 254.81055 174.80469 254.54297 175.09961 254.35938 175.45898 C 254.17188 175.81836 254.07813 176.25 254.07812 176.75391 C 254.07813 177.14453 254.14648 177.52734 254.2832 177.90234 C 254.41992 178.27344 254.61523 178.58594 254.86914 178.83984 C 255.21679 179.1836 255.60546 179.44336 256.03516 179.61914 C 256.46094 179.79492 256.99219 179.88281 257.62891 179.88281 L 259.0293 179.88281 L 259.0293 182.72461 L 261.2793 182.72461 L 261.2793 174 L 257.95508 174 z " /><path
   d="m 244.80859,174 3.2168,5.34961 v 3.375 h 2.25 v -3.26953 L 253.54492,174 h -2.55469 l -1.88671,3.375 -1.82227,-3.375 z"
   id="path2317"
   style="font-weight:bold;font-size:12px;-inkscape-font-specification:'sans-serif, Bold';fill:none;stroke:#000000;stroke-opacity:1;stroke-width:0.33919626;stroke-dasharray:none" /><text
   xml:space="preserve"
   style="font-style:normal;font-variant:normal;font-weight:bold;font-stretch:normal;font-size:12px;font-family:sans-serif;-inkscape-font-specification:'sans-serif, Bold';font-variant-ligatures:normal;font-variant-caps:normal;font-variant-numeric:normal;font-variant-east-asian:normal;fill:#00ff00"
   x="288.68164"
   y="234.41196"
   id="text2137"
   transform="matrix(0,1,1,0,0,0)"><tspan
     sodipodi:role="line"
     id="tspan2135"
     x="288.68164"
     y="234.41196" /></text><path
   id="path2320"
   style="font-weight:bold;font-size:12px;-inkscape-font-specification:'sans-serif, Bold';fill:none;stroke:#000000;stroke-opacity:1;stroke-width:0.33919626;stroke-dasharray:none"
   d="M 255.94531 243 L 255.94531 244.60938 C 256.02291 244.60786 256.09758 244.60547 256.18164 244.60547 L 256.99609 244.60547 L 256.99609 246.95508 L 256.30469 246.95508 C 255.94531 246.95508 255.64453 246.93748 255.40234 246.90234 C 255.16016 246.86721 254.95704 246.78713 254.79297 246.66211 C 254.63672 246.54102 254.52344 246.40821 254.45312 246.26367 C 254.37891 246.11524 254.3418 245.91797 254.3418 245.67188 C 254.3418 245.45313 254.38672 245.26563 254.47656 245.10938 C 254.5664 244.95313 254.7207 244.83008 254.93945 244.74023 C 254.95265 244.73482 254.96689 244.72964 254.98047 244.72461 L 254.98047 243.00977 C 254.66563 243.02267 254.38036 243.04849 254.13086 243.08789 C 253.75977 243.14649 253.4121 243.27344 253.08789 243.46875 C 252.75976 243.66406 252.5 243.91797 252.30859 244.23047 C 252.11328 244.53906 252.01563 244.92774 252.01562 245.39648 C 252.01562 246.04102 252.16602 246.5664 252.4668 246.97266 C 252.76367 247.3789 253.18945 247.7168 253.74414 247.98633 L 250.83203 251.72461 L 253.58008 251.72461 L 255.95898 248.52539 L 256.99609 248.52539 L 256.99609 251.72461 L 259.23438 251.72461 L 259.23438 243 L 255.94531 243 z " /><path
   d="m 243.5368,251.72461 h 6.31055 V 243 h -6.31055 v 1.6875 h 4.07227 v 1.50586 h -3.7793 v 1.6875 h 3.7793 v 2.15625 h -4.07227 z"
   id="path2322"
   style="font-weight:bold;font-size:12px;-inkscape-font-specification:'sans-serif, Bold';fill:none;stroke:#000000;stroke-opacity:1;stroke-width:0.34021586;stroke-dasharray:none" /><path
   d="m 235.35712,251.72461 h 6.29297 V 243 h -2.25 v 7.03711 h -4.04297 z"
   id="path2324"
   style="font-weight:bold;font-size:12px;-inkscape-font-specification:'sans-serif, Bold';fill:none;stroke:#000000;stroke-opacity:1;stroke-width:0.34021586;stroke-dasharray:none" /><path
   id="path2326"
   style="font-weight:bold;font-size:12px;-inkscape-font-specification:'sans-serif, Bold';fill:none;stroke:#000000;stroke-opacity:1;stroke-width:0.34021586;stroke-dasharray:none;fill-opacity:1"
   d="M 229.16406 243 L 225.94141 251.72461 L 228.26758 251.72461 L 228.87109 249.96094 L 230.27344 249.96094 L 230.27344 248.36133 L 229.41602 248.36133 L 230.48828 245.23242 L 230.56055 245.44336 L 230.56055 243 L 229.16406 243 z M 231.38867 243 L 231.38867 247.85938 L 231.56055 248.36133 L 231.16992 248.36133 L 231.16992 249.96094 L 232.10547 249.96094 L 232.70898 251.72461 L 234.97656 251.72461 L 231.75391 243 L 231.38867 243 z " /><path
   d="m 216.77704,251.72461 h 2.60156 l 1.88086,-2.87109 1.91602,2.87109 h 2.48437 L 222.5661,247.33008 225.5954,243 h -2.59571 l -1.8164,2.71875 L 219.31415,243 h -2.49024 l 3.04688,4.24219 z"
   id="path2328"
   style="font-weight:bold;font-size:12px;-inkscape-font-specification:'sans-serif, Bold';fill:none;stroke:#000000;stroke-opacity:1;stroke-width:0.34021586;stroke-dasharray:none" /><path
   d="m 209.21259,251.72461 h 6.31054 V 243 h -6.31054 v 1.6875 h 4.07226 v 1.50586 h -3.7793 v 1.6875 h 3.7793 v 2.15625 h -4.07226 z"
   id="path2330"
   style="font-weight:bold;font-size:12px;-inkscape-font-specification:'sans-serif, Bold';fill:none;stroke:#000000;stroke-opacity:1;stroke-width:0.34021586;stroke-dasharray:none" /><path
   id="path2332"
   style="font-weight:bold;font-size:12px;-inkscape-font-specification:'sans-serif, Bold';fill:none;stroke:#000000;stroke-opacity:1;stroke-width:0.34021586;stroke-dasharray:none"
   d="M 204.16211 243 C 204.07055 243 203.9848 243.00385 203.89648 243.00586 L 203.89648 244.64453 C 204.07233 244.63462 204.27523 244.62891 204.50781 244.62891 L 205.07617 244.62891 L 205.07617 250.08984 L 204.50781 250.08984 C 203.97265 250.08984 203.58008 250.0664 203.33008 250.01953 C 203.08008 249.96873 202.83594 249.87889 202.59766 249.75 C 202.1875 249.51563 201.88672 249.20313 201.69531 248.8125 C 201.50391 248.41797 201.4082 247.93164 201.4082 247.35352 C 201.4082 246.7793 201.51368 246.28907 201.72461 245.88281 C 201.93164 245.47266 202.26172 245.15235 202.71484 244.92188 C 202.74021 244.90941 202.76551 244.89829 202.79102 244.88672 L 202.79102 243.0918 C 202.62682 243.11659 202.47035 243.14686 202.32227 243.18164 C 201.80664 243.29883 201.37304 243.46679 201.02148 243.68555 C 200.41992 244.05273 199.94727 244.54883 199.60352 245.17383 C 199.25586 245.79492 199.08203 246.52735 199.08203 247.37109 C 199.08203 248.18359 199.26758 248.91211 199.63867 249.55664 C 200.00976 250.19727 200.47852 250.68946 201.04492 251.0332 C 201.4707 251.29102 201.9375 251.4707 202.44531 251.57227 C 202.95313 251.67383 203.55469 251.72461 204.25 251.72461 L 207.32617 251.72461 L 207.32617 243 L 204.16211 243 z " /><path
   id="path2335"
   style="font-weight:bold;font-size:12px;-inkscape-font-specification:'sans-serif, Bold';fill:none;stroke:#000000;stroke-opacity:1;stroke-width:0.34021586;stroke-dasharray:none;fill-opacity:1"
   d="M 194.35938 290.18164 L 191.13672 298.90625 L 193.46289 298.90625 L 194.06641 297.14258 L 195.41211 297.14258 L 195.41211 295.54297 L 194.61133 295.54297 L 195.68359 292.41406 L 195.73242 292.55664 L 195.73242 290.18164 L 194.35938 290.18164 z M 196.53906 290.18164 L 196.53906 294.91016 L 196.75586 295.54297 L 196.41016 295.54297 L 196.41016 297.14258 L 197.30078 297.14258 L 197.9043 298.90625 L 200.17188 298.90625 L 196.94922 290.18164 L 196.53906 290.18164 z " /><path
   d="m 181.94971,298.90625 h 2.16797 l 3.70312,-5.98828 v 5.98828 h 2.0625 v -8.72461 h -2.68945 l -3.18164,4.99805 v -4.99805 h -2.0625 z"
   id="path2337"
   style="font-weight:bold;font-size:12px;-inkscape-font-specification:'sans-serif, Bold';fill:none;stroke:#000000;stroke-opacity:1;stroke-width:0.34021586;stroke-dasharray:none" /><path
   d="m 171.78955,298.90625 h 2.16797 l 3.70312,-5.98828 v 5.98828 h 2.0625 v -8.72461 h -2.68945 l -3.18164,4.99805 v -4.99805 h -2.0625 z"
   id="path2339"
   style="font-weight:bold;font-size:12px;-inkscape-font-specification:'sans-serif, Bold';fill:none;stroke:#000000;stroke-opacity:1;stroke-width:0.34021586;stroke-dasharray:none" /><path
   id="path2341"
   style="font-weight:bold;font-size:12px;-inkscape-font-specification:'sans-serif, Bold';fill:none;stroke:#000000;stroke-opacity:1;stroke-width:0.34021586;stroke-dasharray:none"
   d="M 166.11523 290.02148 L 166.11523 291.71484 C 166.20535 291.73766 166.29437 291.76423 166.38086 291.79883 C 166.63086 291.90039 166.86133 292.06836 167.07227 292.30273 C 167.26758 292.52149 167.42773 292.82422 167.55273 293.21094 C 167.67383 293.59375 167.73438 294.03907 167.73438 294.54688 C 167.73438 295.06641 167.67578 295.50977 167.55859 295.87695 C 167.4375 296.24023 167.2793 296.53711 167.08398 296.76758 C 166.88867 296.99804 166.66015 297.16797 166.39844 297.27734 C 166.30592 297.31601 166.21117 297.3461 166.11523 297.37109 L 166.11523 299.06641 C 167.26414 298.9732 168.18482 298.57238 168.87695 297.86328 C 169.67383 297.04297 170.07227 295.9375 170.07227 294.54688 C 170.07227 293.14454 169.67383 292.03711 168.87695 291.22461 C 168.18482 290.51551 167.26414 290.11469 166.11523 290.02148 z M 164.76953 290.05078 C 163.74966 290.18231 162.91844 290.573 162.2793 291.22461 C 161.47851 292.03711 161.07813 293.14454 161.07812 294.54688 C 161.07812 295.9375 161.47656 297.04297 162.27344 297.86328 C 162.91035 298.5158 163.74334 298.90612 164.76953 299.03711 L 164.76953 297.28516 C 164.76188 297.28206 164.75372 297.28053 164.74609 297.27734 C 164.48437 297.16406 164.25585 296.99023 164.06055 296.75586 C 163.84179 296.49023 163.67969 296.17773 163.57422 295.81836 C 163.46875 295.45508 163.41602 295.0293 163.41602 294.54102 C 163.41602 294.01758 163.47656 293.57226 163.59766 293.20508 C 163.71876 292.83789 163.87696 292.54102 164.07227 292.31445 C 164.27149 292.08008 164.50195 291.91015 164.76367 291.80469 C 164.7656 291.8039 164.76761 291.80352 164.76953 291.80273 L 164.76953 290.05078 z " /><path
   d="m 151.68604,290.18164 3.21679,5.34961 v 3.375 h 2.25 v -3.26953 l 3.26953,-5.45508 h -2.55468 l -1.88672,3.375 -1.82227,-3.375 z"
   id="path2343"
   style="font-weight:bold;font-size:12px;-inkscape-font-specification:'sans-serif, Bold';fill:none;stroke:#000000;stroke-opacity:1;stroke-width:0.34021586;stroke-dasharray:none" /><path
   d="m 144.20947,298.90625 h 6.31055 v -8.72461 h -6.31055 v 1.6875 h 4.07227 v 1.50586 h -3.7793 v 1.6875 h 3.7793 v 2.15625 h -4.07227 z"
   id="path2345"
   style="font-weight:bold;font-size:12px;-inkscape-font-specification:'sans-serif, Bold';fill:none;stroke:#000000;stroke-opacity:1;stroke-width:0.34021586;stroke-dasharray:none" /><path
   id="path2347"
   style="font-weight:bold;font-size:12px;-inkscape-font-specification:'sans-serif, Bold';fill:none;stroke:#000000;stroke-opacity:1;stroke-width:0.34021586;stroke-dasharray:none"
   d="M 139.32812 290.18164 L 139.32812 291.8125 C 139.38664 291.81178 139.44127 291.81055 139.50391 291.81055 L 140.07227 291.81055 L 140.07227 297.27148 L 139.50391 297.27148 C 138.96875 297.27148 138.57617 297.24804 138.32617 297.20117 C 138.07617 297.15037 137.83203 297.06053 137.59375 296.93164 C 137.18359 296.69727 136.88281 296.38477 136.69141 295.99414 C 136.50001 295.59961 136.4043 295.11328 136.4043 294.53516 C 136.4043 293.96094 136.50977 293.47071 136.7207 293.06445 C 136.92774 292.6543 137.25781 292.33398 137.71094 292.10352 C 137.79963 292.05992 137.89005 292.02284 137.98047 291.99023 L 137.98047 290.24805 C 137.74459 290.27705 137.52337 290.31514 137.31836 290.36328 C 136.80273 290.48047 136.36914 290.64843 136.01758 290.86719 C 135.41601 291.23437 134.94336 291.73047 134.59961 292.35547 C 134.25195 292.97656 134.07813 293.70899 134.07812 294.55273 C 134.07812 295.36523 134.26367 296.09375 134.63477 296.73828 C 135.00586 297.37891 135.47461 297.8711 136.04102 298.21484 C 136.4668 298.47266 136.9336 298.65234 137.44141 298.75391 C 137.94922 298.85547 138.55078 298.90625 139.24609 298.90625 L 142.32227 298.90625 L 142.32227 290.18164 L 139.32812 290.18164 z " /><path
   d="m 218.28363,227.88281 h 2.23828 v -5.84179 l 1.61719,3.79101 h 1.55273 l 1.61719,-3.79101 v 5.84179 h 2.12109 v -8.72461 h -2.61328 l -1.96289,4.37696 -1.95703,-4.37696 h -2.61328 z"
   id="path2350"
   style="font-weight:bold;font-size:12px;-inkscape-font-specification:'sans-serif, Bold';fill:none;stroke:#000000;stroke-opacity:1;stroke-width:0.34021586;stroke-dasharray:none" /><path
   d="m 208.38129,219.1582 3.21679,5.34961 v 3.375 h 2.25 v -3.26953 l 3.26953,-5.45508 h -2.55468 l -1.88672,3.375 -1.82227,-3.375 z"
   id="path2352"
   style="font-weight:bold;font-size:12px;-inkscape-font-specification:'sans-serif, Bold';fill:none;stroke:#000000;stroke-opacity:1;stroke-width:0.34021586;stroke-dasharray:none" /><path
   d="m 188.65863,220.8457 h 4.01367 v 1.62305 h -3.7207 v 1.6875 h 3.7207 v 3.72656 h 2.23828 v -8.72461 h -6.25195 z"
   id="path2354"
   style="font-weight:bold;font-size:12px;-inkscape-font-specification:'sans-serif, Bold';fill:none;stroke:#000000;stroke-opacity:1;stroke-width:0.34021586;stroke-dasharray:none" /><path
   id="path2356"
   style="font-weight:bold;font-size:12px;-inkscape-font-specification:'sans-serif, Bold';fill:none;stroke:#000000;stroke-opacity:1;stroke-width:0.34021586;stroke-dasharray:none"
   d="M 183.83398 219.1582 L 183.83398 220.76758 C 183.90626 220.76628 183.97493 220.76367 184.05273 220.76367 L 184.86719 220.76367 L 184.86719 223.11328 L 184.17578 223.11328 C 183.81641 223.11328 183.51563 223.09568 183.27344 223.06055 C 183.03125 223.02541 182.82812 222.94534 182.66406 222.82031 C 182.50781 222.69922 182.39453 222.56641 182.32422 222.42188 C 182.25 222.27344 182.21289 222.07617 182.21289 221.83008 C 182.21289 221.61133 182.25782 221.42382 182.34766 221.26758 C 182.4375 221.11132 182.5918 220.98828 182.81055 220.89844 C 182.82801 220.89128 182.8471 220.8854 182.86523 220.87891 L 182.86523 219.16797 C 182.5448 219.18067 182.25512 219.20612 182.00195 219.24609 C 181.63086 219.30469 181.2832 219.43165 180.95898 219.62695 C 180.63086 219.82227 180.37109 220.07617 180.17969 220.38867 C 179.98438 220.69726 179.88672 221.08593 179.88672 221.55469 C 179.88672 222.19921 180.03711 222.72461 180.33789 223.13086 C 180.63476 223.53711 181.06055 223.875 181.61523 224.14453 L 178.70312 227.88281 L 181.45117 227.88281 L 183.83008 224.68359 L 184.86719 224.68359 L 184.86719 227.88281 L 187.10547 227.88281 L 187.10547 219.1582 L 183.83398 219.1582 z " /><path
   d="m 173.00238,227.88281 h 5.10938 v -1.54687 h -1.42969 v -5.63086 h 1.42969 v -1.54688 h -5.10938 v 1.54688 h 1.42969 v 5.63086 h -1.42969 z"
   id="path2358"
   style="font-weight:bold;font-size:12px;-inkscape-font-specification:'sans-serif, Bold';fill:none;stroke:#000000;stroke-opacity:1;stroke-width:0.34021586;stroke-dasharray:none" /><path
   d="m 164.85785,227.88281 h 6.31055 v -8.72461 h -6.31055 v 1.6875 h 4.07226 v 1.50586 h -3.77929 v 1.6875 h 3.77929 v 2.15625 h -4.07226 z"
   id="path2360"
   style="font-weight:bold;font-size:12px;-inkscape-font-specification:'sans-serif, Bold';fill:none;stroke:#000000;stroke-opacity:1;stroke-width:0.34021586;stroke-dasharray:none" /><path
   d="m 155.03754,227.88281 h 2.16797 l 3.70312,-5.98828 v 5.98828 h 2.0625 v -8.72461 h -2.68945 l -3.18164,4.99805 v -4.99805 h -2.0625 z"
   id="path2362"
   style="font-weight:bold;font-size:12px;-inkscape-font-specification:'sans-serif, Bold';fill:none;stroke:#000000;stroke-opacity:1;stroke-width:0.34021586;stroke-dasharray:none" /><path
   id="path2364"
   style="font-weight:bold;font-size:12px;-inkscape-font-specification:'sans-serif, Bold';fill:none;stroke:#000000;stroke-opacity:1;stroke-width:0.34021586;stroke-dasharray:none"
   d="M 149.64648 219.1582 C 149.42611 219.1582 149.21723 219.16415 149.01562 219.17578 L 149.01562 220.83789 C 149.25064 220.80555 149.57179 220.78711 149.99219 220.78711 L 150.56055 220.78711 L 150.56055 226.24805 L 149.99219 226.24805 C 149.45703 226.24805 149.06445 226.2246 148.81445 226.17773 C 148.56445 226.12693 148.32031 226.03709 148.08203 225.9082 C 147.67187 225.67383 147.37109 225.36133 147.17969 224.9707 C 146.98829 224.57618 146.89258 224.08984 146.89258 223.51172 C 146.89258 222.9375 146.99805 222.44726 147.20898 222.04102 C 147.39232 221.67781 147.67252 221.38441 148.04883 221.16211 L 148.04883 219.28906 C 147.96654 219.30458 147.88448 219.32156 147.80664 219.33984 C 147.29101 219.45703 146.85742 219.625 146.50586 219.84375 C 145.90429 220.21094 145.43164 220.70703 145.08789 221.33203 C 144.74023 221.95312 144.56641 222.68554 144.56641 223.5293 C 144.56641 224.3418 144.75195 225.07032 145.12305 225.71484 C 145.49414 226.35547 145.96289 226.84765 146.5293 227.19141 C 146.95508 227.44921 147.42188 227.6289 147.92969 227.73047 C 148.4375 227.83203 149.03906 227.88281 149.73438 227.88281 L 152.81055 227.88281 L 152.81055 219.1582 L 149.64648 219.1582 z " /><path
   d="m 135.86566,225.14062 q 0,1.28907 1.0957,2.09766 1.08985,0.80274 2.96485,0.80274 1.08398,0 1.89258,-0.1875 0.80273,-0.19336 1.50586,-0.48633 v -2.0918 h -0.2461 q -0.69726,0.55664 -1.55859,0.85547 -0.86719,0.29883 -1.66406,0.29883 -0.20508,0 -0.53907,-0.0352 -0.33398,-0.0352 -0.54492,-0.11719 -0.25781,-0.10547 -0.42187,-0.26367 -0.16993,-0.1582 -0.16993,-0.46875 0,-0.28711 0.2461,-0.49219 0.24023,-0.21093 0.70898,-0.32226 0.49219,-0.11719 1.04297,-0.2168 0.54492,-0.10547 1.02539,-0.26367 1.10156,-0.35742 1.58789,-0.9668 0.48047,-0.61523 0.48047,-1.52343 0,-1.21875 -1.08984,-1.98633 -1.09571,-0.77344 -2.8125,-0.77344 -0.86133,0 -1.69922,0.16992 -0.84375,0.16406 -1.45899,0.41602 v 2.00976 h 0.24024 q 0.52734,-0.42187 1.29492,-0.70312 0.76172,-0.28711 1.55859,-0.28711 0.28125,0 0.5625,0.041 0.2754,0.0352 0.53321,0.14063 0.22851,0.0879 0.39258,0.26953 0.16406,0.17578 0.16406,0.4043 0,0.3457 -0.26367,0.5332 -0.26368,0.18164 -0.9961,0.33398 -0.48047,0.0996 -0.91992,0.19336 -0.44531,0.0937 -0.95508,0.25782 -1.00195,0.32812 -1.47656,0.89648 -0.48047,0.5625 -0.48047,1.46484 z"
   id="path2366"
   style="font-weight:bold;font-size:12px;-inkscape-font-specification:'sans-serif, Bold';fill:none;stroke:#000000;stroke-opacity:1;stroke-width:0.34021586;stroke-dasharray:none" /><path
   d="m 180.01648,150 3.18164,8.72461 h 2.51953 L 188.89929,150 h -2.36133 l -2.10937,6.12891 L 182.31921,150 Z"
   id="path2369"
   style="font-weight:bold;font-size:12px;-inkscape-font-specification:'sans-serif, Bold';fill:none;stroke:#000000;stroke-opacity:1;stroke-width:0.34021586;stroke-dasharray:none" /><path
   d="m 172.45203,158.72461 h 6.31054 V 150 h -6.31054 v 1.6875 h 4.07226 v 1.50586 H 172.745 v 1.6875 h 3.77929 v 2.15625 h -4.07226 z"
   id="path2371"
   style="font-weight:bold;font-size:12px;-inkscape-font-specification:'sans-serif, Bold';fill:none;stroke:#000000;stroke-opacity:1;stroke-width:0.34021586;stroke-dasharray:none" /><path
   id="path2373"
   style="font-weight:bold;font-size:12px;-inkscape-font-specification:'sans-serif, Bold';fill:none;stroke:#000000;stroke-opacity:1;stroke-width:0.34021586;stroke-dasharray:none"
   d="M 166.79102 150 C 166.27539 150 165.83203 150.02929 165.46094 150.08789 C 165.08984 150.14649 164.74219 150.27344 164.41797 150.46875 C 164.08985 150.66406 163.83008 150.91797 163.63867 151.23047 C 163.44336 151.53906 163.3457 151.92774 163.3457 152.39648 C 163.3457 153.04102 163.4961 153.5664 163.79688 153.97266 C 164.09375 154.3789 164.51953 154.7168 165.07422 154.98633 L 162.16211 158.72461 L 164.91016 158.72461 L 167.28906 155.52539 L 168.32617 155.52539 L 168.32617 158.72461 L 170.56445 158.72461 L 170.56445 150 L 167.86523 150 L 167.86523 151.60547 L 168.32617 151.60547 L 168.32617 153.95508 L 167.63477 153.95508 C 167.27539 153.95508 166.97461 153.93748 166.73242 153.90234 C 166.49024 153.86721 166.28711 153.78713 166.12305 153.66211 C 165.9668 153.54102 165.85352 153.40821 165.7832 153.26367 C 165.70898 153.11524 165.67188 152.91797 165.67188 152.67188 C 165.67188 152.45313 165.71679 152.26563 165.80664 152.10938 C 165.89648 151.95313 166.05078 151.83008 166.26953 151.74023 C 166.42187 151.67777 166.59961 151.64065 166.80273 151.62891 C 166.83699 151.62628 166.87792 151.62523 166.91406 151.62305 L 166.91406 150 L 166.79102 150 z " /><path
   d="m 153.50281,150 3.21679,5.34961 v 3.375 h 2.25 v -3.26953 L 162.23914,150 h -2.55469 l -1.88672,3.375 -1.82227,-3.375 z"
   id="path2375"
   style="font-weight:bold;font-size:12px;-inkscape-font-specification:'sans-serif, Bold';fill:none;stroke:#000000;stroke-opacity:1;stroke-width:0.34021586;stroke-dasharray:none" /><path
   id="path2378"
   style="font-weight:bold;font-size:12px;-inkscape-font-specification:'sans-serif, Bold';fill:none;stroke:#000000;stroke-opacity:1;stroke-width:0.34089797;stroke-dasharray:none;fill-opacity:1"
   d="M 290.6582 266.16992 L 287.43555 274.89453 L 289.76172 274.89453 L 290.36523 273.13086 L 291.78516 273.13086 L 291.78516 271.53125 L 290.91016 271.53125 L 291.98242 268.40234 L 292.09375 268.72656 L 292.09375 266.16992 L 290.6582 266.16992 z M 292.87305 266.16992 L 292.87305 271.00195 L 293.05469 271.53125 L 292.76758 271.53125 L 292.76758 273.13086 L 293.59961 273.13086 L 294.20312 274.89453 L 296.4707 274.89453 L 293.24805 266.16992 L 292.87305 266.16992 z " /><path
   d="m 278.24765,274.89453 h 2.16797 l 3.70312,-5.98828 v 5.98828 h 2.0625 v -8.72461 h -2.68945 l -3.18164,4.99805 v -4.99805 h -2.0625 z"
   id="path2380"
   style="font-weight:bold;font-size:12px;-inkscape-font-specification:'sans-serif, Bold';fill:none;stroke:#000000;stroke-opacity:1;stroke-width:0.33919626;stroke-dasharray:none" /><path
   id="path2382"
   style="font-weight:bold;font-size:12px;-inkscape-font-specification:'sans-serif, Bold';fill:none;stroke:#000000;stroke-opacity:1;stroke-width:0.33919626;stroke-dasharray:none"
   d="M 272.85742 266.16992 C 272.80625 266.16992 272.75914 266.1732 272.70898 266.17383 L 272.70898 267.80859 C 272.85774 267.80237 273.01868 267.79883 273.20312 267.79883 L 273.77148 267.79883 L 273.77148 273.25977 L 273.20312 273.25977 C 272.66797 273.25977 272.27539 273.23632 272.02539 273.18945 C 271.77539 273.13865 271.53125 273.04881 271.29297 272.91992 C 270.88282 272.68555 270.58203 272.37305 270.39062 271.98242 C 270.19922 271.58789 270.10352 271.10156 270.10352 270.52344 C 270.10352 269.94922 270.20898 269.45899 270.41992 269.05273 C 270.62695 268.64258 270.95703 268.32226 271.41016 268.0918 C 271.4535 268.07049 271.49725 268.05188 271.54102 268.0332 L 271.54102 266.25391 C 271.35683 266.2802 271.18192 266.31297 271.01758 266.35156 C 270.50195 266.46875 270.06836 266.63672 269.7168 266.85547 C 269.11524 267.22266 268.64258 267.71875 268.29883 268.34375 C 267.95118 268.96484 267.77734 269.69726 267.77734 270.54102 C 267.77734 271.35351 267.96289 272.08204 268.33398 272.72656 C 268.70508 273.36719 269.17383 273.85938 269.74023 274.20312 C 270.16601 274.46094 270.63281 274.64062 271.14062 274.74219 C 271.64844 274.84375 272.25 274.89453 272.94531 274.89453 L 276.02148 274.89453 L 276.02148 266.16992 L 272.85742 266.16992 z " /><path
   d="m 245.71054,275.06445 q 0.97266,0 1.79883,-0.28711 0.82031,-0.28711 1.41211,-0.85547 0.5918,-0.56835 0.91992,-1.41796 0.32227,-0.84961 0.32227,-1.96289 0,-1.03711 -0.31055,-1.88086 -0.31055,-0.84375 -0.90234,-1.44727 -0.56836,-0.58008 -1.40625,-0.89648 Q 246.70078,266 245.70468,266 q -0.55078,0 -0.99023,0.0645 -0.44532,0.0586 -0.82032,0.15821 -0.39257,0.11132 -0.70898,0.25195 -0.32227,0.13476 -0.5625,0.25195 v 2.11524 h 0.25781 q 0.16407,-0.14063 0.41602,-0.33399 0.24609,-0.19336 0.5625,-0.38086 0.32226,-0.1875 0.69726,-0.3164 0.375,-0.12891 0.80274,-0.12891 0.47461,0 0.90234,0.15234 0.42774,0.14649 0.79102,0.49219 0.3457,0.33399 0.5625,0.88477 0.21094,0.55078 0.21094,1.33593 0,0.82032 -0.22852,1.3711 -0.23438,0.55078 -0.58594,0.86719 -0.35742,0.32226 -0.79687,0.46289 -0.43946,0.13476 -0.86719,0.13476 -0.41016,0 -0.80859,-0.12304 -0.4043,-0.12305 -0.74414,-0.33399 -0.28711,-0.16992 -0.53321,-0.36328 -0.24609,-0.19336 -0.40429,-0.33398 h -0.23438 v 2.08593 q 0.32813,0.14649 0.62695,0.27539 0.29883,0.12891 0.62696,0.22266 0.42773,0.12305 0.80273,0.1875 0.375,0.0645 1.03125,0.0645 z"
   id="path2384"
   style="font-weight:bold;font-size:12px;-inkscape-font-specification:'sans-serif, Bold';fill:none;stroke:#000000;stroke-opacity:1;stroke-width:0.34021586;stroke-dasharray:none" /><path
   id="path2386"
   style="font-weight:bold;font-size:12px;-inkscape-font-specification:'sans-serif, Bold';fill:none;stroke:#000000;stroke-opacity:1;stroke-width:0.34021586;stroke-dasharray:none;fill-opacity:1"
   d="M 236.13086 266.16992 L 232.9082 274.89453 L 235.23438 274.89453 L 235.83789 273.13086 L 237.33594 273.13086 L 237.33594 271.53125 L 236.38281 271.53125 L 237.44336 268.4375 L 237.44336 266.16992 L 236.13086 266.16992 z M 238.44531 266.16992 L 238.44531 271.29102 L 238.52734 271.53125 L 238.33008 271.53125 L 238.33008 273.13086 L 239.07227 273.13086 L 239.67578 274.89453 L 241.94336 274.89453 L 238.7207 266.16992 L 238.44531 266.16992 z " /><path
   d="m 225.36093,274.89453 h 6.29297 v -8.72461 h -2.25 v 7.03711 h -4.04297 z"
   id="path2388"
   style="font-weight:bold;font-size:12px;-inkscape-font-specification:'sans-serif, Bold';fill:none;stroke:#000000;stroke-opacity:1;stroke-width:0.34021586;stroke-dasharray:none" /><path
   d="m 214.86093,274.89453 h 2.23828 v -5.8418 l 1.61719,3.79102 h 1.55273 l 1.61719,-3.79102 v 5.8418 h 2.1211 v -8.72461 h -2.61329 l -1.96289,4.37695 -1.95703,-4.37695 h -2.61328 z"
   id="path2390"
   style="font-weight:bold;font-size:12px;-inkscape-font-specification:'sans-serif, Bold';fill:none;stroke:#000000;stroke-opacity:1;stroke-width:0.34021586;stroke-dasharray:none" /><path
   d="m 229.39563,292.15384 v -2.19141 h -2.30273 v 2.19141 z m 4.27734,0 v -2.19141 h -2.30273 v 2.19141 z"
   id="path2393"
   style="font-weight:bold;font-size:12px;-inkscape-font-specification:'sans-serif, Bold';fill:none;stroke:#000000;stroke-width:0.3402159;stroke-dasharray:none;stroke-opacity:1" /><text
   xml:space="preserve"
   style="opacity:0.99;fill:none;fill-opacity:1;stroke:#000000;stroke-width:0.33953648;stroke-miterlimit:3.6;stroke-dasharray:none;stroke-opacity:1;-inkscape-font-specification:'sans-serif, Bold';font-family:sans-serif;font-weight:bold;font-style:normal;font-stretch:normal;font-variant:normal;font-size:12px;font-variant-ligatures:normal;font-variant-caps:normal;font-variant-numeric:normal;font-variant-east-asian:normal"
   x="293.77332"
   y="-227.1886"
   id="text6149"
   transform="rotate(90)"><tspan
     sodipodi:role="line"
     id="tspan6147"
     x="293.77332"
     y="-227.1886">(</tspan></text></svg>
