<?xml version="1.0" encoding="UTF-8" standalone="no"?>
<!-- Generator: Adobe Illustrator 23.0.3, SVG Export Plug-In . SVG Version: 6.00 Build 0)  -->

<svg
   version="1.1"
   id="Layer_1"
   x="0px"
   y="0px"
   width="920.2px"
   height="615.571px"
   viewBox="0 0 920.2 615.571"
   style="enable-background:new 0 0 920.2 615.571;"
   xml:space="preserve"
   sodipodi:docname="mini_8x8_word_clock_box_epUWJOBOhr.svg"
   inkscape:version="1.2.1 (9c6d41e, 2022-07-14)"
   xmlns:inkscape="http://www.inkscape.org/namespaces/inkscape"
   xmlns:sodipodi="http://sodipodi.sourceforge.net/DTD/sodipodi-0.dtd"
   xmlns:xlink="http://www.w3.org/1999/xlink"
   xmlns="http://www.w3.org/2000/svg"
   xmlns:svg="http://www.w3.org/2000/svg"><defs
   id="defs1164"><linearGradient
   id="linearGradient2263"><stop
     style="stop-color:#ffffff;stop-opacity:1;"
     offset="0"
     id="stop2261" /></linearGradient><linearGradient
   inkscape:collect="always"
   xlink:href="#linearGradient2263"
   id="linearGradient2265"
   x1="261.55185"
   y1="439.18174"
   x2="436.51283"
   y2="439.18174"
   gradientUnits="userSpaceOnUse"
   gradientTransform="matrix(1.0145541,0,0,0.97115636,-218.88718,10.424871)" /><linearGradient
   inkscape:collect="always"
   xlink:href="#linearGradient2263"
   id="linearGradient2320"
   gradientUnits="userSpaceOnUse"
   gradientTransform="matrix(1.0145541,0,0,0.97115636,-218.88719,-35.975135)"
   x1="261.55185"
   y1="439.18174"
   x2="436.51283"
   y2="439.18174" /><linearGradient
   inkscape:collect="always"
   xlink:href="#linearGradient2263"
   id="linearGradient2333"
   gradientUnits="userSpaceOnUse"
   gradientTransform="matrix(1.0145541,0,0,0.97115636,-218.88719,-12.775138)"
   x1="261.55185"
   y1="439.18174"
   x2="436.51283"
   y2="439.18174" /><linearGradient
   inkscape:collect="always"
   xlink:href="#linearGradient2263"
   id="linearGradient2346"
   gradientUnits="userSpaceOnUse"
   gradientTransform="matrix(1.0145541,0,0,0.97115636,-218.88708,-59.175107)"
   x1="261.55185"
   y1="439.18174"
   x2="436.51283"
   y2="439.18174" /><linearGradient
   inkscape:collect="always"
   xlink:href="#linearGradient2263"
   id="linearGradient2359"
   gradientUnits="userSpaceOnUse"
   gradientTransform="matrix(1.0145541,0,0,0.97115636,-218.88718,56.924908)"
   x1="261.55185"
   y1="439.18174"
   x2="436.51283"
   y2="439.18174" /><linearGradient
   inkscape:collect="always"
   xlink:href="#linearGradient2263"
   id="linearGradient2372"
   gradientUnits="userSpaceOnUse"
   gradientTransform="matrix(1.0145541,0,0,0.97115636,-218.88718,33.724858)"
   x1="261.55185"
   y1="439.18174"
   x2="436.51283"
   y2="439.18174" /><linearGradient
   inkscape:collect="always"
   xlink:href="#linearGradient2263"
   id="linearGradient2385"
   gradientUnits="userSpaceOnUse"
   gradientTransform="matrix(1.0145541,0,0,0.97115636,-218.88717,80.224901)"
   x1="261.55185"
   y1="439.18174"
   x2="436.51283"
   y2="439.18174" /><linearGradient
   inkscape:collect="always"
   xlink:href="#linearGradient2263"
   id="linearGradient2398"
   gradientUnits="userSpaceOnUse"
   gradientTransform="matrix(1.0145541,0,0,0.97115636,-218.88718,103.42488)"
   x1="261.55185"
   y1="439.18174"
   x2="436.51283"
   y2="439.18174" />
	
	
	
	
	
	
	
	
	
	
</defs><sodipodi:namedview
   id="namedview1162"
   pagecolor="#ffffff"
   bordercolor="#000000"
   borderopacity="0.25"
   inkscape:showpageshadow="2"
   inkscape:pageopacity="0.0"
   inkscape:pagecheckerboard="0"
   inkscape:deskcolor="#d1d1d1"
   showgrid="false"
   inkscape:zoom="0.78636117"
   inkscape:cx="502.31371"
   inkscape:cy="252.42854"
   inkscape:window-width="1288"
   inkscape:window-height="787"
   inkscape:window-x="150"
   inkscape:window-y="25"
   inkscape:window-maximized="0"
   inkscape:current-layer="Layer_1" />
<style
   type="text/css"
   id="style796">
	.st0{fill:none;stroke:#000000;stroke-miterlimit:10;}
	.st1{fill:none;stroke:#00FF00;stroke-miterlimit:10;}
	.st2{fill:none;stroke:#FF0000;stroke-miterlimit:10;}
	.st3{display:none;}
	.st4{display:inline;}
	.st5{fill:none;stroke:#ED1C24;stroke-miterlimit:10;}
	.st6{display:inline;fill:none;stroke:#ED1C24;stroke-miterlimit:10;}
	.st7{fill:#FFFFFF;}
	.st8{fill:none;stroke:#EB2027;stroke-miterlimit:10;}
</style>

<g
   class="st3"
   id="g868">
	<g
   class="st4"
   id="g864">
		<rect
   x="605.4"
   y="155.8"
   class="st5"
   width="41.1"
   height="19"
   id="rect820" />
		<polygon
   class="st5"
   points="650.8,198.1 669.2,198.1 669.2,179.1 650.8,179.1 646.5,179.1 605.4,179.1 605.4,198.1 646.5,198.1       "
   id="polygon822" />
		<rect
   x="605.4"
   y="202.3"
   class="st5"
   width="41.1"
   height="19"
   id="rect824" />
		<rect
   x="605.4"
   y="248.8"
   class="st5"
   width="41.1"
   height="19"
   id="rect826" />
		<rect
   x="605.4"
   y="225.6"
   class="st5"
   width="41.1"
   height="19"
   id="rect828" />
		<polygon
   class="st5"
   points="718.8,174.8 737.3,174.8 737.3,155.8 696.2,155.8 691.9,155.8 650.8,155.8 650.8,174.8 669.2,174.8     673.5,174.8 714.6,174.8   "
   id="polygon830" />
		<polygon
   class="st5"
   points="669.2,202.3 650.8,202.3 650.8,221.3 714.6,221.3 714.6,202.3 673.5,202.3   "
   id="polygon832" />
		<rect
   x="673.5"
   y="179.1"
   class="st5"
   width="41.1"
   height="19"
   id="rect834" />
		<polygon
   class="st5"
   points="650.8,151.6 691.9,151.6 691.9,132.6 650.8,132.6 646.5,132.6 605.4,132.6 605.4,151.6 646.5,151.6       "
   id="polygon836" />
		<polygon
   class="st5"
   points="646.5,272 605.4,272 605.4,291 691.9,291 691.9,272 650.8,272   "
   id="polygon838" />
		<rect
   x="605.4"
   y="109.3"
   class="st5"
   width="41.1"
   height="19"
   id="rect840" />
		<polygon
   class="st5"
   points="737.3,132.6 696.2,132.6 696.2,151.6 737.3,151.6 741.5,151.6 782.6,151.6 782.6,132.6 741.5,132.6       "
   id="polygon842" />
		<rect
   x="650.8"
   y="248.8"
   class="st5"
   width="41.1"
   height="19"
   id="rect844" />
		<polygon
   class="st5"
   points="696.2,128.3 737.3,128.3 737.3,109.3 650.8,109.3 650.8,128.3 691.9,128.3   "
   id="polygon846" />
		<rect
   x="741.5"
   y="155.8"
   class="st5"
   width="41.1"
   height="19"
   id="rect848" />
		<rect
   x="741.5"
   y="109.3"
   class="st5"
   width="41.1"
   height="19"
   id="rect850" />
		<polygon
   class="st5"
   points="737.3,179.1 718.8,179.1 718.8,198.1 782.6,198.1 782.6,179.1 741.5,179.1   "
   id="polygon852" />
		<rect
   x="696.2"
   y="272"
   class="st5"
   width="86.5"
   height="19"
   id="rect854" />
		<polygon
   class="st5"
   points="714.6,244.5 714.6,225.6 650.8,225.6 650.8,244.5 691.9,244.5 696.2,244.5   "
   id="polygon856" />
		<rect
   x="718.8"
   y="202.3"
   class="st5"
   width="63.8"
   height="19"
   id="rect858" />
		<polygon
   class="st5"
   points="714.6,248.8 696.2,248.8 696.2,267.8 782.6,267.8 782.6,248.8 718.8,248.8   "
   id="polygon860" />
		<rect
   x="718.8"
   y="225.6"
   class="st5"
   width="63.8"
   height="19"
   id="rect862" />
	</g>
	<rect
   x="580.6"
   y="86.8"
   class="st6"
   width="226.8"
   height="226.8"
   id="rect866" />
</g>
<g
   id="Layer_3"
   class="st3">
	<path
   class="st4"
   d="M849.9,370.3H538.1c-7.8,0-14.2-6.3-14.2-14.2V44.3c0-7.8,6.3-14.2,14.2-14.2h311.8c7.8,0,14.2,6.3,14.2,14.2   v311.8C864.1,363.9,857.8,370.3,849.9,370.3z"
   id="path870" />
	<g
   class="st4"
   id="g880">
		<path
   class="st7"
   d="M611.5,115.5c0-0.2,0-0.3,0-0.4s0-0.2,0.1-0.3c0.1-0.2,0.4-0.3,0.9-0.3c0.6,0,0.9,0.1,1,0.4    c0,0.1,0.1,0.3,0.1,0.6v6.7c0,0.2,0,0.3,0,0.4s0,0.2-0.1,0.3c-0.1,0.2-0.4,0.3-0.9,0.3c-0.6,0-0.9-0.2-1-0.5    c0-0.1-0.1-0.3-0.1-0.6V115.5z"
   id="path872" />
		<path
   class="st7"
   d="M616.4,114.4h6.7c0.3,0,0.4,0,0.6,0.1c0.1,0.1,0.2,0.2,0.2,0.3c0,0.1,0.1,0.3,0.1,0.5s0,0.4-0.1,0.5    c0,0.1-0.1,0.2-0.2,0.3c-0.1,0.1-0.3,0.1-0.6,0.1h-2.3v6c0,0.2,0,0.3,0,0.4s0,0.2-0.1,0.3c-0.1,0.1-0.2,0.2-0.3,0.2    s-0.4,0.1-0.6,0.1s-0.4,0-0.6-0.1c-0.1,0-0.3-0.1-0.3-0.2c-0.1-0.1-0.1-0.2-0.1-0.3c0-0.1,0-0.2,0-0.4v-6h-2.3    c-0.3,0-0.4,0-0.6-0.1c-0.1-0.1-0.2-0.2-0.2-0.3c0-0.1-0.1-0.3-0.1-0.5s0-0.4,0.1-0.5c0-0.1,0.1-0.2,0.2-0.3    C615.9,114.5,616.1,114.4,616.4,114.4z"
   id="path874" />
		<path
   class="st7"
   d="M630,115.5c0-0.2,0-0.3,0-0.4s0-0.2,0.1-0.3c0.1-0.2,0.4-0.3,0.9-0.3c0.6,0,0.9,0.1,1,0.4    c0,0.1,0.1,0.3,0.1,0.6v6.7c0,0.2,0,0.3,0,0.4s0,0.2-0.1,0.3c-0.1,0.2-0.4,0.3-0.9,0.3c-0.6,0-0.9-0.2-1-0.5    c0-0.1-0.1-0.3-0.1-0.6V115.5z"
   id="path876" />
		<path
   class="st7"
   d="M634.4,122c-0.2-0.3-0.3-0.5-0.3-0.7s0.2-0.5,0.5-0.8c0.2-0.2,0.4-0.3,0.6-0.3c0.2,0,0.5,0.2,0.9,0.6    c0.1,0.1,0.3,0.3,0.5,0.4s0.4,0.2,0.6,0.2c0.7,0,1.1-0.3,1.1-0.9c0-0.2-0.1-0.3-0.3-0.5s-0.5-0.2-0.8-0.3c-0.3-0.1-0.6-0.1-1-0.3    s-0.7-0.3-1-0.4s-0.6-0.4-0.8-0.8s-0.3-0.8-0.3-1.3c0-0.7,0.3-1.3,0.8-1.8s1.2-0.8,2.1-0.8c0.5,0,0.9,0.1,1.3,0.2    c0.4,0.1,0.7,0.2,0.8,0.4l0.3,0.2c0.2,0.2,0.4,0.4,0.4,0.6s-0.1,0.4-0.3,0.7c-0.3,0.4-0.6,0.6-0.8,0.6s-0.4-0.1-0.6-0.2l-0.1-0.1    c-0.1-0.1-0.1-0.1-0.2-0.2c-0.2-0.1-0.4-0.2-0.6-0.2c-0.3,0-0.5,0.1-0.6,0.2c-0.2,0.1-0.3,0.3-0.3,0.5s0.1,0.4,0.3,0.5    s0.5,0.2,0.8,0.3c0.3,0,0.6,0.1,1,0.2s0.7,0.2,1,0.4c0.3,0.1,0.6,0.4,0.8,0.8s0.3,0.8,0.3,1.3s-0.1,1-0.3,1.4s-0.5,0.7-0.8,0.9    c-0.6,0.4-1.3,0.6-2.1,0.6c-0.4,0-0.7,0-1.1-0.1c-0.3-0.1-0.6-0.2-0.8-0.3c-0.4-0.3-0.7-0.5-0.9-0.7L634.4,122z"
   id="path878" />
	</g>
	<g
   class="st4"
   id="g890">
		<path
   class="st7"
   d="M681.9,114.7c0.1-0.1,0.2-0.2,0.3-0.3c0.2,0,0.3-0.1,0.6-0.1s0.4,0,0.6,0.1c0.1,0,0.2,0.1,0.3,0.1    c0.1,0.1,0.1,0.1,0.2,0.2c0,0.1,0.1,0.3,0.1,0.6v6.7c0,0.2,0,0.3,0,0.4s-0.1,0.2-0.1,0.3c-0.1,0.2-0.4,0.3-0.9,0.3    c-0.6,0-0.9-0.1-1-0.4c0-0.1-0.1-0.3-0.1-0.6v-2.4h-3.2v2.4c0,0.2,0,0.3,0,0.4s0,0.2-0.1,0.3c-0.1,0.2-0.4,0.3-0.9,0.3    c-0.6,0-0.9-0.1-1-0.4c0-0.1-0.1-0.3-0.1-0.6v-6.7c0-0.2,0-0.3,0-0.4s0-0.2,0.1-0.3c0.1-0.2,0.4-0.3,0.9-0.3c0.6,0,0.9,0.1,1,0.4    c0,0.1,0.1,0.3,0.1,0.6v2.4h3.2v-2.5c0-0.2,0-0.3,0-0.4C681.8,114.9,681.9,114.8,681.9,114.7z"
   id="path882" />
		<path
   class="st7"
   d="M691.2,115l3.2,6.7c0.1,0.3,0.2,0.5,0.2,0.6c0,0.3-0.2,0.5-0.7,0.8c-0.3,0.1-0.5,0.2-0.6,0.2    c-0.2,0-0.3,0-0.4-0.1c-0.1-0.1-0.2-0.1-0.2-0.2s-0.1-0.2-0.2-0.4l-0.6-1.3h-3.3l-0.6,1.3c-0.1,0.2-0.1,0.3-0.2,0.3    c0,0.1-0.1,0.1-0.2,0.2s-0.2,0.1-0.4,0.1s-0.4-0.1-0.6-0.2c-0.5-0.2-0.7-0.5-0.7-0.8c0-0.1,0.1-0.3,0.2-0.6l3.2-6.7    c0.1-0.2,0.2-0.3,0.4-0.4s0.4-0.2,0.6-0.2C690.6,114.4,690.9,114.6,691.2,115z M690.2,117.9l-0.8,1.6h1.6L690.2,117.9z"
   id="path884" />
		<path
   class="st7"
   d="M698.6,121.4h3.3c0.3,0,0.5,0,0.6,0.1s0.2,0.2,0.2,0.3s0.1,0.3,0.1,0.5s0,0.4-0.1,0.5s-0.1,0.2-0.2,0.3    c-0.2,0.1-0.4,0.1-0.6,0.1h-4.3c-0.6,0-0.9-0.2-1-0.5c0-0.1-0.1-0.3-0.1-0.6v-6.7c0-0.2,0-0.3,0-0.4s0-0.2,0.1-0.3    c0.1-0.2,0.4-0.3,0.9-0.3c0.6,0,0.9,0.1,1,0.4c0,0.1,0.1,0.3,0.1,0.6V121.4z"
   id="path886" />
		<path
   class="st7"
   d="M710.5,114.4c0.2,0,0.3,0,0.4,0c0.1,0,0.2,0.1,0.3,0.1c0.1,0.1,0.2,0.2,0.2,0.3s0.1,0.4,0.1,0.6    c0,0.3,0,0.5-0.1,0.6c0,0.2-0.1,0.3-0.3,0.3c-0.1,0.1-0.2,0.1-0.3,0.1s-0.2,0-0.4,0h-3.7v1.2h2.4c0.2,0,0.3,0,0.4,0    c0.1,0,0.2,0.1,0.3,0.1c0.2,0.1,0.3,0.4,0.3,0.9c0,0.6-0.2,0.9-0.5,1c-0.1,0-0.3,0.1-0.6,0.1h-2.4v2.3c0,0.2,0,0.3,0,0.4    s0,0.2-0.1,0.3c-0.1,0.2-0.4,0.3-0.9,0.3c-0.6,0-0.9-0.2-1-0.5c0-0.1-0.1-0.3-0.1-0.6v-6.7c0-0.4,0.1-0.7,0.2-0.8    c0.2-0.1,0.4-0.2,0.9-0.2h4.9V114.4z"
   id="path888" />
	</g>
	<g
   class="st4"
   id="g898">
		<path
   class="st7"
   d="M749.5,114.4h6.7c0.3,0,0.4,0,0.6,0.1c0.1,0.1,0.2,0.2,0.2,0.3c0,0.1,0.1,0.3,0.1,0.5s0,0.4-0.1,0.5    c0,0.1-0.1,0.2-0.2,0.3c-0.1,0.1-0.3,0.1-0.6,0.1h-2.3v6c0,0.2,0,0.3,0,0.4s0,0.2-0.1,0.3c-0.1,0.1-0.2,0.2-0.3,0.2    s-0.4,0.1-0.6,0.1s-0.4,0-0.6-0.1c-0.1,0-0.3-0.1-0.3-0.2c-0.1-0.1-0.1-0.2-0.1-0.3c0-0.1,0-0.2,0-0.4v-6h-2.3    c-0.3,0-0.4,0-0.6-0.1c-0.1-0.1-0.2-0.2-0.2-0.3c0-0.1-0.1-0.3-0.1-0.5s0-0.4,0.1-0.5c0-0.1,0.1-0.2,0.2-0.3    C749.1,114.5,749.3,114.4,749.5,114.4z"
   id="path892" />
		<path
   class="st7"
   d="M761.1,121.1h3.7c0.2,0,0.3,0,0.4,0c0.1,0,0.2,0.1,0.3,0.1c0.2,0.1,0.3,0.4,0.3,0.9c0,0.6-0.1,0.9-0.4,1    c-0.1,0-0.3,0.1-0.6,0.1H760c-0.6,0-0.9-0.2-1-0.5c0-0.1-0.1-0.3-0.1-0.6v-6.7c0-0.4,0.1-0.7,0.2-0.8c0.2-0.1,0.4-0.2,0.9-0.2h4.7    c0.2,0,0.3,0,0.4,0c0.1,0,0.2,0.1,0.3,0.1c0.2,0.1,0.3,0.4,0.3,0.9c0,0.6-0.1,0.9-0.4,1c-0.1,0-0.3,0.1-0.6,0.1H761v1.2h2.4    c0.2,0,0.3,0,0.4,0c0.1,0,0.2,0.1,0.3,0.1c0.2,0.1,0.3,0.4,0.3,0.9c0,0.6-0.2,0.9-0.5,1c-0.1,0-0.3,0.1-0.6,0.1h-2.4v1.3H761.1z"
   id="path894" />
		<path
   class="st7"
   d="M773.5,114.8c0.1-0.1,0.2-0.2,0.3-0.3s0.3-0.1,0.6-0.1c0.2,0,0.4,0,0.6,0.1s0.2,0.1,0.3,0.1s0.1,0.1,0.1,0.3    c0,0.1,0.1,0.3,0.1,0.6v6.7c0,0.2,0,0.3,0,0.4s-0.1,0.2-0.1,0.3c-0.1,0.2-0.4,0.3-0.9,0.3c-0.3,0-0.5,0-0.6-0.1    c-0.1,0-0.2-0.1-0.3-0.2c-1.8-2.4-3-4-3.6-4.7v3.9c0,0.2,0,0.3,0,0.4s-0.1,0.2-0.1,0.3c-0.1,0.2-0.4,0.3-0.9,0.3s-0.8-0.1-0.9-0.3    c-0.1-0.1-0.1-0.2-0.1-0.3c0-0.1,0-0.2,0-0.4v-6.7c0-0.3,0-0.5,0.1-0.7c0.1-0.1,0.2-0.2,0.3-0.3s0.3-0.1,0.6-0.1    c0.2,0,0.4,0,0.6,0.1c0.1,0,0.2,0.1,0.3,0.1c0,0,0.1,0.1,0.3,0.3c1.7,2.3,2.8,3.8,3.4,4.5v-4.1    C773.4,115.2,773.4,114.9,773.5,114.8z"
   id="path896" />
	</g>
	<g
   class="st4"
   id="g914">
		<path
   class="st7"
   d="M624.6,144.1c0.4,0.2,0.6,0.4,0.8,0.5c0.3,0.2,0.4,0.4,0.4,0.6c0,0.2-0.1,0.5-0.4,0.8    c-0.2,0.4-0.5,0.5-0.7,0.5s-0.4-0.1-0.7-0.3c0,0-0.2-0.1-0.3-0.2s-0.3-0.2-0.4-0.3c-0.7,0.6-1.6,0.9-2.5,0.9    c-1.2,0-2.3-0.4-3.1-1.3s-1.3-1.9-1.3-3.1c0-0.7,0.1-1.3,0.4-1.9c0.2-0.6,0.6-1.1,1-1.5s0.9-0.7,1.4-0.9s1.1-0.3,1.6-0.3    c1.2,0,2.2,0.4,3.1,1.3c0.9,0.9,1.3,1.9,1.3,3.3C625.1,142.7,624.9,143.4,624.6,144.1z M618.5,142.1c0,0.7,0.2,1.3,0.7,1.7    s1,0.7,1.5,0.7c0.6,0,1.1-0.2,1.5-0.6s0.7-1,0.7-1.7s-0.2-1.3-0.7-1.8c-0.5-0.4-1-0.7-1.5-0.7c-0.6,0-1.1,0.2-1.5,0.7    C618.7,140.8,618.5,141.4,618.5,142.1z"
   id="path900" />
		<path
   class="st7"
   d="M633,138c0.1-0.1,0.2-0.2,0.3-0.3c0.2,0,0.3-0.1,0.6-0.1s0.4,0,0.5,0.1s0.2,0.1,0.3,0.1    c0.1,0.1,0.1,0.1,0.2,0.3c0,0.1,0.1,0.3,0.1,0.6v3.6c0,1.1-0.3,2-1,2.9c-0.3,0.4-0.7,0.7-1.2,1s-1.1,0.4-1.7,0.4    c-0.6,0-1.2-0.1-1.7-0.4s-0.9-0.6-1.2-1c-0.6-0.8-1-1.8-1-2.9v-3.6c0-0.2,0-0.3,0-0.4c0-0.1,0-0.2,0.1-0.3s0.2-0.2,0.3-0.3    s0.4-0.1,0.6-0.1s0.5,0,0.6,0.1c0.2,0,0.3,0.1,0.3,0.3c0.1,0.2,0.1,0.4,0.1,0.8v3.6c0,0.5,0.1,1,0.4,1.4c0.1,0.2,0.3,0.4,0.5,0.5    s0.5,0.2,0.9,0.2c0.6,0,1-0.2,1.3-0.6c0.3-0.4,0.4-0.9,0.4-1.5v-3.7C632.9,138.3,632.9,138.1,633,138z"
   id="path902" />
		<path
   class="st7"
   d="M641.6,138.3l3.2,6.7c0.1,0.3,0.2,0.5,0.2,0.6c0,0.3-0.2,0.5-0.7,0.8c-0.3,0.1-0.5,0.2-0.6,0.2    c-0.2,0-0.3,0-0.4-0.1c-0.1-0.1-0.2-0.1-0.2-0.2s-0.1-0.2-0.2-0.4l-0.6-1.3H639l-0.6,1.3c-0.1,0.2-0.1,0.3-0.2,0.3    c0,0.1-0.1,0.1-0.2,0.2s-0.2,0.1-0.4,0.1s-0.4-0.1-0.6-0.2c-0.5-0.2-0.7-0.5-0.7-0.8c0-0.1,0.1-0.3,0.2-0.6l3.2-6.7    c0.1-0.2,0.2-0.3,0.4-0.4c0.2-0.1,0.4-0.2,0.6-0.2C641.1,137.7,641.4,137.9,641.6,138.3z M640.7,141.2l-0.8,1.6h1.6L640.7,141.2z"
   id="path904" />
		<path
   class="st7"
   d="M653.7,145c0.1,0.3,0.2,0.5,0.2,0.6c0,0.3-0.2,0.6-0.7,0.8c-0.3,0.1-0.5,0.2-0.6,0.2c-0.2,0-0.3,0-0.4-0.1    s-0.2-0.2-0.2-0.2c-0.1-0.2-0.4-0.9-0.9-2.2h-0.4h-1.5v1.4c0,0.2,0,0.3,0,0.4c0,0.1,0,0.2-0.1,0.3c-0.1,0.2-0.4,0.3-0.9,0.3    c-0.6,0-0.9-0.1-1-0.4c0-0.1-0.1-0.3-0.1-0.6v-6.7c0-0.2,0-0.3,0-0.4c0-0.1,0-0.2,0.1-0.3c0.1-0.2,0.4-0.3,0.9-0.3h2.6    c0.7,0,1.4,0.3,2.1,0.8c0.3,0.2,0.6,0.6,0.8,1s0.3,0.9,0.3,1.4c0,0.9-0.3,1.6-0.9,2.2C653,143.5,653.3,144.1,653.7,145z     M649.1,141.9h1.5c0.2,0,0.5-0.1,0.7-0.3s0.3-0.4,0.3-0.8c0-0.4-0.1-0.6-0.3-0.8s-0.5-0.3-0.7-0.3h-1.5V141.9z"
   id="path906" />
		<path
   class="st7"
   d="M655.8,137.6h6.7c0.3,0,0.4,0,0.6,0.1c0.1,0.1,0.2,0.2,0.2,0.3s0.1,0.3,0.1,0.5s0,0.4-0.1,0.5    c0,0.1-0.1,0.2-0.2,0.3c-0.1,0.1-0.3,0.1-0.6,0.1h-2.3v6c0,0.2,0,0.3,0,0.4c0,0.1,0,0.2-0.1,0.3s-0.2,0.2-0.3,0.2    s-0.4,0.1-0.6,0.1s-0.4,0-0.6-0.1c-0.1,0-0.3-0.1-0.3-0.2c-0.1-0.1-0.1-0.2-0.1-0.3s0-0.2,0-0.4v-6h-2.3c-0.3,0-0.4,0-0.6-0.1    c-0.1-0.1-0.2-0.2-0.2-0.3s-0.1-0.3-0.1-0.5s0-0.4,0.1-0.5c0-0.1,0.1-0.2,0.2-0.3C655.3,137.7,655.5,137.6,655.8,137.6z"
   id="path908" />
		<path
   class="st7"
   d="M667.3,144.3h3.7c0.2,0,0.3,0,0.4,0c0.1,0,0.2,0.1,0.3,0.1c0.2,0.1,0.3,0.4,0.3,0.9c0,0.6-0.1,0.9-0.4,1    c-0.1,0-0.3,0.1-0.6,0.1h-4.8c-0.6,0-0.9-0.2-1-0.5c0-0.1-0.1-0.3-0.1-0.6v-6.7c0-0.4,0.1-0.7,0.2-0.8c0.2-0.1,0.4-0.2,0.9-0.2    h4.7c0.2,0,0.3,0,0.4,0c0.1,0,0.2,0.1,0.3,0.1c0.2,0.1,0.3,0.4,0.3,0.9c0,0.6-0.1,0.9-0.4,1c-0.1,0-0.3,0.1-0.6,0.1h-3.7v1.2h2.4    c0.2,0,0.3,0,0.4,0c0.1,0,0.2,0.1,0.3,0.1c0.2,0.1,0.3,0.4,0.3,0.9c0,0.6-0.2,0.9-0.5,1c-0.1,0-0.3,0.1-0.6,0.1h-2.4v1.3H667.3z"
   id="path910" />
		<path
   class="st7"
   d="M680.8,145c0.1,0.3,0.2,0.5,0.2,0.6c0,0.3-0.2,0.6-0.7,0.8c-0.3,0.1-0.5,0.2-0.6,0.2c-0.2,0-0.3,0-0.4-0.1    s-0.2-0.2-0.2-0.2c-0.1-0.2-0.4-0.9-0.9-2.2h-0.4h-1.5v1.4c0,0.2,0,0.3,0,0.4c0,0.1,0,0.2-0.1,0.3c-0.1,0.2-0.4,0.3-0.9,0.3    c-0.6,0-0.9-0.1-1-0.4c0-0.1-0.1-0.3-0.1-0.6v-6.7c0-0.2,0-0.3,0-0.4c0-0.1,0-0.2,0.1-0.3c0.1-0.2,0.4-0.3,0.9-0.3h2.6    c0.7,0,1.4,0.3,2.1,0.8c0.3,0.2,0.6,0.6,0.8,1s0.3,0.9,0.3,1.4c0,0.9-0.3,1.6-0.9,2.2C680.1,143.5,680.4,144.1,680.8,145z     M676.2,141.9h1.5c0.2,0,0.5-0.1,0.7-0.3s0.3-0.4,0.3-0.8c0-0.4-0.1-0.6-0.3-0.8s-0.5-0.3-0.7-0.3h-1.5V141.9z"
   id="path912" />
	</g>
	<g
   class="st4"
   id="g928">
		<path
   class="st7"
   d="M710.4,137.7h6.7c0.3,0,0.4,0,0.6,0.1c0.1,0.1,0.2,0.2,0.2,0.3s0.1,0.3,0.1,0.5s0,0.4-0.1,0.5    c0,0.1-0.1,0.2-0.2,0.3c-0.1,0.1-0.3,0.1-0.6,0.1h-2.3v6c0,0.2,0,0.3,0,0.4c0,0.1,0,0.2-0.1,0.3s-0.2,0.2-0.3,0.2    s-0.4,0.1-0.6,0.1s-0.4,0-0.6-0.1c-0.1,0-0.3-0.1-0.3-0.2c-0.1-0.1-0.1-0.2-0.1-0.3s0-0.2,0-0.4v-6h-2.3c-0.3,0-0.4,0-0.6-0.1    c-0.1-0.1-0.2-0.2-0.2-0.3s-0.1-0.3-0.1-0.5s0-0.4,0.1-0.5c0-0.1,0.1-0.2,0.2-0.3C709.9,137.8,710.1,137.7,710.4,137.7z"
   id="path916" />
		<path
   class="st7"
   d="M730.3,137.8c0.5,0.2,0.8,0.4,0.8,0.8c0,0.1,0,0.3-0.1,0.6l-2.3,6.7c0,0.1,0,0.1-0.1,0.2    c0,0.1-0.1,0.2-0.3,0.3s-0.4,0.2-0.6,0.2c-0.2,0-0.4-0.1-0.6-0.2s-0.3-0.3-0.3-0.4l-1.4-4.1c-0.9,2.6-1.3,4-1.4,4    c0,0-0.1,0.1-0.1,0.2c-0.1,0.1-0.1,0.2-0.2,0.2c-0.2,0.2-0.4,0.3-0.7,0.3s-0.5-0.1-0.6-0.2c-0.2-0.1-0.3-0.2-0.3-0.4l-0.1-0.2    l-2.3-6.7c-0.1-0.3-0.1-0.5-0.1-0.6c0-0.3,0.3-0.6,0.8-0.8c0.2-0.1,0.4-0.1,0.6-0.1s0.3,0.1,0.4,0.2s0.2,0.3,0.3,0.6l1.3,4    l1.3-3.9c0.1-0.3,0.3-0.6,0.6-0.7c0.1-0.1,0.3-0.1,0.5-0.1s0.4,0.1,0.6,0.2c0.2,0.1,0.3,0.3,0.3,0.4l1.4,4.2l1.3-4    c0.1-0.2,0.1-0.3,0.2-0.4c0-0.1,0.1-0.2,0.2-0.3s0.2-0.1,0.4-0.1S730.1,137.7,730.3,137.8z"
   id="path918" />
		<path
   class="st7"
   d="M735.1,144.4h3.7c0.2,0,0.3,0,0.4,0c0.1,0,0.2,0.1,0.3,0.1c0.2,0.1,0.3,0.4,0.3,0.9c0,0.6-0.1,0.9-0.4,1    c-0.1,0-0.3,0.1-0.6,0.1H734c-0.6,0-0.9-0.2-1-0.5c0-0.1-0.1-0.3-0.1-0.6v-6.7c0-0.4,0.1-0.7,0.2-0.8c0.2-0.1,0.4-0.2,0.9-0.2h4.7    c0.2,0,0.3,0,0.4,0c0.1,0,0.2,0.1,0.3,0.1c0.2,0.1,0.3,0.4,0.3,0.9c0,0.6-0.1,0.9-0.4,1c-0.1,0-0.3,0.1-0.6,0.1H735v1.2h2.4    c0.2,0,0.3,0,0.4,0c0.1,0,0.2,0.1,0.3,0.1c0.2,0.1,0.3,0.4,0.3,0.9c0,0.6-0.2,0.9-0.5,1c-0.1,0-0.3,0.1-0.6,0.1h-2.4v1.3H735.1z"
   id="path920" />
		<path
   class="st7"
   d="M747.5,138.1c0.1-0.1,0.2-0.2,0.3-0.3s0.3-0.1,0.6-0.1c0.2,0,0.4,0,0.6,0.1s0.2,0.1,0.3,0.1s0.1,0.1,0.1,0.3    c0,0.1,0.1,0.3,0.1,0.6v6.7c0,0.2,0,0.3,0,0.4c0,0.1-0.1,0.2-0.1,0.3c-0.1,0.2-0.4,0.3-0.9,0.3c-0.3,0-0.5,0-0.6-0.1    c-0.1,0-0.2-0.1-0.3-0.2c-1.8-2.4-3-4-3.6-4.7v3.9c0,0.2,0,0.3,0,0.4c0,0.1-0.1,0.2-0.1,0.3c-0.1,0.2-0.4,0.3-0.9,0.3    s-0.8-0.1-0.9-0.3c-0.1-0.1-0.1-0.2-0.1-0.3s0-0.2,0-0.4v-6.7c0-0.3,0-0.5,0.1-0.7c0.1-0.1,0.2-0.2,0.3-0.3s0.3-0.1,0.6-0.1    c0.2,0,0.4,0,0.6,0.1c0.1,0,0.2,0.1,0.3,0.1c0,0,0.1,0.1,0.3,0.3c1.7,2.3,2.8,3.8,3.4,4.5v-4.1    C747.4,138.5,747.5,138.2,747.5,138.1z"
   id="path922" />
		<path
   class="st7"
   d="M752.3,137.7h6.7c0.3,0,0.4,0,0.6,0.1c0.1,0.1,0.2,0.2,0.2,0.3s0.1,0.3,0.1,0.5s0,0.4-0.1,0.5    c0,0.1-0.1,0.2-0.2,0.3c-0.1,0.1-0.3,0.1-0.6,0.1h-2.3v6c0,0.2,0,0.3,0,0.4c0,0.1,0,0.2-0.1,0.3s-0.2,0.2-0.3,0.2    s-0.4,0.1-0.6,0.1s-0.4,0-0.6-0.1c-0.1,0-0.3-0.1-0.3-0.2c-0.1-0.1-0.1-0.2-0.1-0.3s0-0.2,0-0.4v-6h-2.3c-0.3,0-0.4,0-0.6-0.1    c-0.1-0.1-0.2-0.2-0.2-0.3s-0.1-0.3-0.1-0.5s0-0.4,0.1-0.5c0-0.1,0.1-0.2,0.2-0.3C751.8,137.8,752,137.7,752.3,137.7z"
   id="path924" />
		<path
   class="st7"
   d="M768.6,137.9c0.4,0.3,0.6,0.5,0.6,0.8c0,0.2-0.1,0.4-0.3,0.6l-2.6,3.9v2.3c0,0.2,0,0.3,0,0.4    s-0.1,0.2-0.1,0.3s-0.2,0.2-0.3,0.3s-0.4,0.1-0.6,0.1c-0.3,0-0.5,0-0.6-0.1s-0.3-0.1-0.3-0.3c-0.1-0.1-0.1-0.2-0.1-0.3    s0-0.2,0-0.4v-2.3l-2.6-3.9c-0.2-0.3-0.3-0.5-0.3-0.6c0-0.3,0.2-0.5,0.5-0.7c0.4-0.2,0.6-0.4,0.8-0.4s0.3,0,0.4,0.1    c0.1,0.1,0.3,0.3,0.4,0.5l1.9,3l1.9-3c0.2-0.2,0.3-0.4,0.4-0.5c0.1-0.1,0.2-0.1,0.4-0.1C768.1,137.6,768.3,137.7,768.6,137.9z"
   id="path926" />
	</g>
	<g
   class="st4"
   id="g944">
		<path
   class="st7"
   d="M673,161.3c0.1,0.1,0.1,0.2,0.1,0.3s0,0.2,0,0.4v6.7c0,0.6-0.2,0.9-0.5,1c-0.2,0-0.3,0.1-0.6,0.1    c-0.2,0-0.4,0-0.6-0.1c-0.1,0-0.2-0.1-0.3-0.1c-0.1-0.1-0.1-0.1-0.2-0.2c0-0.1-0.1-0.3-0.1-0.6v-4c-0.2,0.2-0.5,0.6-0.9,1.2    c-0.4,0.5-0.6,0.9-0.7,1c-0.1,0.1-0.2,0.2-0.2,0.3s-0.1,0.1-0.3,0.2c-0.2,0.1-0.3,0.1-0.5,0.1s-0.3,0-0.5-0.1    c-0.1-0.1-0.3-0.2-0.3-0.2l-0.1-0.1c-0.2-0.2-0.5-0.6-0.9-1.3s-0.7-1-0.8-1v4c0,0.2,0,0.3,0,0.4c0,0.1-0.1,0.2-0.1,0.3    c-0.1,0.2-0.4,0.3-0.9,0.3s-0.8-0.1-0.9-0.3c-0.1-0.1-0.1-0.2-0.1-0.3s0-0.2,0-0.4V162c0-0.2,0-0.3,0-0.4c0-0.1,0-0.2,0.1-0.3    c0.1-0.2,0.4-0.3,0.9-0.3c0.2,0,0.4,0,0.6,0.1c0.2,0.1,0.3,0.1,0.3,0.2l0.1,0.1l2.7,3.6c1.4-1.8,2.3-3,2.7-3.6    c0.1-0.2,0.5-0.3,1-0.3C672.6,160.9,672.9,161,673,161.3z"
   id="path930" />
		<path
   class="st7"
   d="M675.3,162c0-0.2,0-0.3,0-0.4c0-0.1,0-0.2,0.1-0.3c0.1-0.2,0.4-0.3,0.9-0.3c0.6,0,0.9,0.1,1,0.4    c0,0.1,0.1,0.3,0.1,0.6v6.7c0,0.2,0,0.3,0,0.4c0,0.1,0,0.2-0.1,0.3c-0.1,0.2-0.4,0.3-0.9,0.3c-0.6,0-0.9-0.2-1-0.5    c0-0.1-0.1-0.3-0.1-0.6V162z"
   id="path932" />
		<path
   class="st7"
   d="M685.3,161.3c0.1-0.1,0.2-0.2,0.3-0.3s0.3-0.1,0.6-0.1c0.2,0,0.4,0,0.6,0.1s0.2,0.1,0.3,0.1s0.1,0.1,0.1,0.3    c0,0.1,0.1,0.3,0.1,0.6v6.7c0,0.2,0,0.3,0,0.4c0,0.1-0.1,0.2-0.1,0.3c-0.1,0.2-0.4,0.3-0.9,0.3c-0.3,0-0.5,0-0.6-0.1    c-0.1,0-0.2-0.1-0.3-0.2c-1.8-2.4-3-4-3.6-4.7v3.9c0,0.2,0,0.3,0,0.4c0,0.1-0.1,0.2-0.1,0.3c-0.1,0.2-0.4,0.3-0.9,0.3    s-0.8-0.1-0.9-0.3c-0.1-0.1-0.1-0.2-0.1-0.3s0-0.2,0-0.4V162c0-0.3,0-0.5,0.1-0.7c0.1-0.1,0.2-0.2,0.3-0.3s0.3-0.1,0.6-0.1    c0.2,0,0.4,0,0.6,0.1c0.1,0,0.2,0.1,0.3,0.1c0,0,0.1,0.1,0.3,0.3c1.7,2.3,2.8,3.8,3.4,4.5V162    C685.2,161.6,685.2,161.4,685.3,161.3z"
   id="path934" />
		<path
   class="st7"
   d="M695.2,161.2c0.1-0.1,0.2-0.2,0.3-0.3c0.2,0,0.3-0.1,0.6-0.1s0.4,0,0.5,0.1s0.2,0.1,0.3,0.1    c0.1,0.1,0.1,0.1,0.2,0.3c0,0.1,0.1,0.3,0.1,0.6v3.6c0,1.1-0.3,2-1,2.9c-0.3,0.4-0.7,0.7-1.2,1s-1.1,0.4-1.7,0.4    c-0.6,0-1.2-0.1-1.7-0.4s-0.9-0.6-1.2-1c-0.6-0.8-1-1.8-1-2.9V162c0-0.2,0-0.3,0-0.4c0-0.1,0-0.2,0.1-0.3s0.2-0.2,0.3-0.3    s0.4-0.1,0.6-0.1s0.5,0,0.6,0.1c0.2,0,0.3,0.1,0.3,0.3c0.1,0.2,0.1,0.4,0.1,0.8v3.6c0,0.5,0.1,1,0.4,1.4c0.1,0.2,0.3,0.4,0.5,0.5    s0.5,0.2,0.9,0.2c0.6,0,1-0.2,1.3-0.6c0.3-0.4,0.4-0.9,0.4-1.5V162C695.1,161.6,695.1,161.4,695.2,161.2z"
   id="path936" />
		<path
   class="st7"
   d="M699.9,160.9h6.7c0.3,0,0.4,0,0.6,0.1c0.1,0.1,0.2,0.2,0.2,0.3s0.1,0.3,0.1,0.5s0,0.4-0.1,0.5    c0,0.1-0.1,0.2-0.2,0.3c-0.1,0.1-0.3,0.1-0.6,0.1h-2.3v6c0,0.2,0,0.3,0,0.4c0,0.1,0,0.2-0.1,0.3s-0.2,0.2-0.3,0.2    s-0.4,0.1-0.6,0.1s-0.4,0-0.6-0.1c-0.1,0-0.3-0.1-0.3-0.2c-0.1-0.1-0.1-0.2-0.1-0.3s0-0.2,0-0.4v-6H700c-0.3,0-0.4,0-0.6-0.1    c-0.1-0.1-0.2-0.2-0.2-0.3s-0.1-0.3-0.1-0.5s0-0.4,0.1-0.5c0-0.1,0.1-0.2,0.2-0.3C699.5,160.9,699.7,160.9,699.9,160.9z"
   id="path938" />
		<path
   class="st7"
   d="M711.4,167.6h3.7c0.2,0,0.3,0,0.4,0c0.1,0,0.2,0.1,0.3,0.1c0.2,0.1,0.3,0.4,0.3,0.9c0,0.6-0.1,0.9-0.4,1    c-0.1,0-0.3,0.1-0.6,0.1h-4.8c-0.6,0-0.9-0.2-1-0.5c0-0.1-0.1-0.3-0.1-0.6V162c0-0.4,0.1-0.7,0.2-0.8c0.2-0.1,0.4-0.2,0.9-0.2h4.7    c0.2,0,0.3,0,0.4,0c0.1,0,0.2,0.1,0.3,0.1c0.2,0.1,0.3,0.4,0.3,0.9c0,0.6-0.1,0.9-0.4,1c-0.1,0-0.3,0.1-0.6,0.1h-3.7v1.2h2.4    c0.2,0,0.3,0,0.4,0c0.1,0,0.2,0.1,0.3,0.1c0.2,0.1,0.3,0.4,0.3,0.9c0,0.6-0.2,0.9-0.5,1c-0.1,0-0.3,0.1-0.6,0.1h-2.4v1.2H711.4z"
   id="path940" />
		<path
   class="st7"
   d="M718.3,168.5c-0.2-0.3-0.3-0.5-0.3-0.7s0.2-0.5,0.5-0.8c0.2-0.2,0.4-0.3,0.6-0.3c0.2,0,0.5,0.2,0.9,0.6    c0.1,0.1,0.3,0.3,0.5,0.4c0.2,0.1,0.4,0.2,0.6,0.2c0.7,0,1.1-0.3,1.1-0.9c0-0.2-0.1-0.3-0.3-0.5s-0.5-0.2-0.8-0.3s-0.6-0.1-1-0.3    s-0.7-0.3-1-0.4s-0.6-0.4-0.8-0.8c-0.2-0.4-0.3-0.8-0.3-1.3c0-0.7,0.3-1.3,0.8-1.8s1.2-0.8,2.1-0.8c0.5,0,0.9,0.1,1.3,0.2    c0.4,0.1,0.7,0.2,0.8,0.4l0.3,0.2c0.2,0.2,0.4,0.4,0.4,0.6s-0.1,0.4-0.3,0.7c-0.3,0.4-0.6,0.6-0.8,0.6s-0.4-0.1-0.6-0.2l-0.1-0.1    c-0.1-0.1-0.1-0.1-0.2-0.2c-0.2-0.1-0.4-0.2-0.6-0.2c-0.3,0-0.5,0.1-0.6,0.2c-0.2,0.1-0.3,0.3-0.3,0.5s0.1,0.4,0.3,0.5    s0.5,0.2,0.8,0.3c0.3,0,0.6,0.1,1,0.2c0.4,0.1,0.7,0.2,1,0.4c0.3,0.1,0.6,0.4,0.8,0.8c0.2,0.4,0.3,0.8,0.3,1.3s-0.1,1-0.3,1.4    s-0.5,0.7-0.8,0.9c-0.6,0.4-1.3,0.6-2.1,0.6c-0.4,0-0.7,0-1.1-0.1c-0.3-0.1-0.6-0.2-0.8-0.3c-0.4-0.3-0.7-0.5-0.9-0.7L718.3,168.5    z"
   id="path942" />
	</g>
	<g
   class="st4"
   id="g950">
		<path
   class="st7"
   d="M753.9,160.9h6.7c0.3,0,0.4,0,0.6,0.1c0.1,0.1,0.2,0.2,0.2,0.3s0.1,0.3,0.1,0.5s0,0.4-0.1,0.5    c0,0.1-0.1,0.2-0.2,0.3c-0.1,0.1-0.3,0.1-0.6,0.1h-2.3v6c0,0.2,0,0.3,0,0.4c0,0.1,0,0.2-0.1,0.3s-0.2,0.2-0.3,0.2    s-0.4,0.1-0.6,0.1s-0.4,0-0.6-0.1c-0.1,0-0.3-0.1-0.3-0.2c-0.1-0.1-0.1-0.2-0.1-0.3s0-0.2,0-0.4v-6H754c-0.3,0-0.4,0-0.6-0.1    c-0.1-0.1-0.2-0.2-0.2-0.3s-0.1-0.3-0.1-0.5s0-0.4,0.1-0.5c0-0.1,0.1-0.2,0.2-0.3C753.4,160.9,753.6,160.9,753.9,160.9z"
   id="path946" />
		<path
   class="st7"
   d="M766.7,160.8c1.2,0,2.2,0.4,3.1,1.3c0.9,0.9,1.3,1.9,1.3,3.2s-0.4,2.3-1.2,3.2s-1.9,1.3-3.1,1.3    c-1.2,0-2.2-0.4-3.1-1.3s-1.3-1.9-1.3-3.1c0-0.7,0.1-1.3,0.4-1.9c0.2-0.6,0.6-1.1,1-1.5s0.9-0.7,1.4-0.9    C765.6,160.9,766.2,160.8,766.7,160.8z M764.5,165.3c0,0.7,0.2,1.3,0.7,1.7s1,0.7,1.5,0.7c0.6,0,1.1-0.2,1.5-0.6s0.7-1,0.7-1.7    s-0.2-1.3-0.7-1.8c-0.5-0.4-1-0.7-1.5-0.7c-0.6,0-1.1,0.2-1.5,0.7C764.7,164,764.5,164.6,764.5,165.3z"
   id="path948" />
	</g>
	<g
   class="st4"
   id="g960">
		<path
   class="st7"
   d="M616.5,161c0.2,0,0.3,0,0.4,0c0.1,0,0.2,0.1,0.3,0.1c0.1,0.1,0.2,0.2,0.2,0.3s0.1,0.4,0.1,0.6    c0,0.3,0,0.5-0.1,0.6c0,0.2-0.1,0.3-0.3,0.3c-0.1,0.1-0.2,0.1-0.3,0.1s-0.2,0-0.4,0h-3.7v1.2h2.4c0.2,0,0.3,0,0.4,0    c0.1,0,0.2,0.1,0.3,0.1c0.2,0.1,0.3,0.4,0.3,0.9c0,0.6-0.2,0.9-0.5,1c-0.1,0-0.3,0.1-0.6,0.1h-2.4v2.3c0,0.2,0,0.3,0,0.4    c0,0.1,0,0.2-0.1,0.3c-0.1,0.2-0.4,0.3-0.9,0.3c-0.6,0-0.9-0.2-1-0.5c0-0.1-0.1-0.3-0.1-0.6V162c0-0.4,0.1-0.7,0.2-0.8    c0.2-0.1,0.4-0.2,0.9-0.2H616.5z"
   id="path952" />
		<path
   class="st7"
   d="M619.5,162c0-0.2,0-0.3,0-0.4c0-0.1,0-0.2,0.1-0.3c0.1-0.2,0.4-0.3,0.9-0.3c0.6,0,0.9,0.1,1,0.4    c0,0.1,0.1,0.3,0.1,0.6v6.7c0,0.2,0,0.3,0,0.4c0,0.1,0,0.2-0.1,0.3c-0.1,0.2-0.4,0.3-0.9,0.3c-0.6,0-0.9-0.2-1-0.5    c0-0.1-0.1-0.3-0.1-0.6V162z"
   id="path954" />
		<path
   class="st7"
   d="M631.9,161.1c0.5,0.2,0.7,0.5,0.7,0.8c0,0.1-0.1,0.3-0.2,0.6l-3.3,6.7c-0.1,0.2-0.2,0.3-0.4,0.4    c-0.2,0.1-0.4,0.2-0.6,0.2H628c-0.2,0-0.4-0.1-0.6-0.2c-0.2-0.1-0.3-0.2-0.4-0.4l-3.3-6.7c-0.1-0.3-0.2-0.4-0.2-0.6    c0-0.3,0.2-0.5,0.7-0.8c0.3-0.1,0.5-0.2,0.6-0.2s0.2,0,0.3,0s0.1,0.1,0.2,0.2c0.1,0.1,0.1,0.2,0.2,0.3s0.2,0.4,0.5,1    s0.5,1.1,0.8,1.7c0.3,0.6,0.6,1.2,0.8,1.7s0.4,0.9,0.4,0.9l2.4-5.3c0.1-0.2,0.1-0.3,0.2-0.4c0.1-0.2,0.3-0.3,0.5-0.3    S631.6,161,631.9,161.1z"
   id="path956" />
		<path
   class="st7"
   d="M636.5,167.6h3.7c0.2,0,0.3,0,0.4,0c0.1,0,0.2,0.1,0.3,0.1c0.2,0.1,0.3,0.4,0.3,0.9c0,0.6-0.1,0.9-0.4,1    c-0.1,0-0.3,0.1-0.6,0.1h-4.8c-0.6,0-0.9-0.2-1-0.5c0-0.1-0.1-0.3-0.1-0.6V162c0-0.4,0.1-0.7,0.2-0.8c0.2-0.1,0.4-0.2,0.9-0.2h4.7    c0.2,0,0.3,0,0.4,0c0.1,0,0.2,0.1,0.3,0.1c0.2,0.1,0.3,0.4,0.3,0.9c0,0.6-0.1,0.9-0.4,1c-0.1,0-0.3,0.1-0.6,0.1h-3.7v1.2h2.4    c0.2,0,0.3,0,0.4,0c0.1,0,0.2,0.1,0.3,0.1c0.2,0.1,0.3,0.4,0.3,0.9c0,0.6-0.2,0.9-0.5,1c-0.1,0-0.3,0.1-0.6,0.1h-2.4v1.2H636.5z"
   id="path958" />
	</g>
	<g
   class="st4"
   id="g970">
		<path
   class="st7"
   d="M627.1,186c0.2,0.4,0.3,0.9,0.3,1.4s-0.1,1-0.3,1.4s-0.5,0.8-0.8,1c-0.7,0.5-1.4,0.8-2.1,0.8h-1.5v1.4    c0,0.2,0,0.3,0,0.4c0,0.1,0,0.2-0.1,0.3c-0.1,0.2-0.4,0.3-0.9,0.3c-0.6,0-0.9-0.1-1-0.4c0-0.1-0.1-0.3-0.1-0.6v-6.7    c0-0.2,0-0.3,0-0.4c0-0.1,0-0.2,0.1-0.3c0.1-0.2,0.4-0.3,0.9-0.3h2.6c0.7,0,1.4,0.3,2.1,0.8C626.6,185.2,626.9,185.5,627.1,186z     M624.9,188.2c0.2-0.2,0.3-0.4,0.3-0.8c0-0.4-0.1-0.6-0.3-0.8s-0.5-0.3-0.7-0.3h-1.5v2.1h1.5C624.5,188.4,624.7,188.3,624.9,188.2    z"
   id="path962" />
		<path
   class="st7"
   d="M633.4,184.8l3.2,6.7c0.1,0.3,0.2,0.5,0.2,0.6c0,0.3-0.2,0.5-0.7,0.8c-0.3,0.1-0.5,0.2-0.6,0.2    c-0.2,0-0.3,0-0.4-0.1c-0.1-0.1-0.2-0.1-0.2-0.2s-0.1-0.2-0.2-0.4l-0.6-1.3h-3.3l-0.6,1.3c-0.1,0.2-0.1,0.3-0.2,0.3    c0,0.1-0.1,0.1-0.2,0.2s-0.2,0.1-0.4,0.1s-0.4-0.1-0.6-0.2c-0.5-0.2-0.7-0.5-0.7-0.8c0-0.1,0.1-0.3,0.2-0.6l3.2-6.7    c0.1-0.2,0.2-0.3,0.4-0.4c0.2-0.1,0.4-0.2,0.6-0.2C632.9,184.2,633.2,184.4,633.4,184.8z M632.5,187.7l-0.8,1.6h1.6L632.5,187.7z"
   id="path964" />
		<path
   class="st7"
   d="M638.5,191.7c-0.2-0.3-0.3-0.5-0.3-0.7s0.2-0.5,0.5-0.8c0.2-0.2,0.4-0.3,0.6-0.3c0.2,0,0.5,0.2,0.9,0.6    c0.1,0.1,0.3,0.3,0.5,0.4c0.2,0.1,0.4,0.2,0.6,0.2c0.7,0,1.1-0.3,1.1-0.9c0-0.2-0.1-0.3-0.3-0.5s-0.5-0.2-0.8-0.3s-0.6-0.1-1-0.3    s-0.7-0.3-1-0.4s-0.6-0.4-0.8-0.8c-0.2-0.4-0.3-0.8-0.3-1.3c0-0.7,0.3-1.3,0.8-1.8s1.2-0.8,2.1-0.8c0.5,0,0.9,0.1,1.3,0.2    c0.4,0.1,0.7,0.2,0.8,0.4l0.3,0.2c0.2,0.2,0.4,0.4,0.4,0.6s-0.1,0.4-0.3,0.7c-0.3,0.4-0.6,0.6-0.8,0.6s-0.4-0.1-0.6-0.2l-0.1-0.1    c-0.1-0.1-0.1-0.1-0.2-0.2c-0.2-0.1-0.4-0.2-0.6-0.2c-0.3,0-0.5,0.1-0.6,0.2c-0.2,0.1-0.3,0.3-0.3,0.5s0.1,0.4,0.3,0.5    s0.5,0.2,0.8,0.3c0.3,0,0.6,0.1,1,0.2c0.4,0.1,0.7,0.2,1,0.4c0.3,0.1,0.6,0.4,0.8,0.8c0.2,0.4,0.3,0.8,0.3,1.3s-0.1,1-0.3,1.4    s-0.5,0.7-0.8,0.9c-0.6,0.4-1.3,0.6-2.1,0.6c-0.4,0-0.7,0-1.1-0.1c-0.3-0.1-0.6-0.2-0.8-0.3c-0.4-0.3-0.7-0.5-0.9-0.7L638.5,191.7    z"
   id="path966" />
		<path
   class="st7"
   d="M646.6,184.2h6.7c0.3,0,0.4,0,0.6,0.1c0.1,0.1,0.2,0.2,0.2,0.3s0.1,0.3,0.1,0.5s0,0.4-0.1,0.5    c0,0.1-0.1,0.2-0.2,0.3c-0.1,0.1-0.3,0.1-0.6,0.1H651v6c0,0.2,0,0.3,0,0.4c0,0.1,0,0.2-0.1,0.3s-0.2,0.2-0.3,0.2s-0.4,0.1-0.6,0.1    s-0.4,0-0.6-0.1c-0.1,0-0.3-0.1-0.3-0.2c-0.1-0.1-0.1-0.2-0.1-0.3s0-0.2,0-0.4v-6h-2.3c-0.3,0-0.4,0-0.6-0.1    c-0.1-0.1-0.2-0.2-0.2-0.3s-0.1-0.3-0.1-0.5s0-0.4,0.1-0.5c0-0.1,0.1-0.2,0.2-0.3C646.1,184.2,646.3,184.2,646.6,184.2z"
   id="path968" />
	</g>
	<g
   class="st4"
   id="g978">
		<path
   class="st7"
   d="M684.6,184c1.2,0,2.2,0.4,3.1,1.3c0.9,0.9,1.3,1.9,1.3,3.2s-0.4,2.3-1.2,3.2s-1.9,1.3-3.1,1.3    c-1.2,0-2.2-0.4-3.1-1.3s-1.3-1.9-1.3-3.1c0-0.7,0.1-1.3,0.4-1.9c0.2-0.6,0.6-1.1,1-1.5s0.9-0.7,1.4-0.9    C683.6,184.1,684.1,184,684.6,184z M682.5,188.6c0,0.7,0.2,1.3,0.7,1.7s1,0.7,1.5,0.7c0.6,0,1.1-0.2,1.5-0.6s0.7-1,0.7-1.7    s-0.2-1.3-0.7-1.8c-0.5-0.4-1-0.7-1.5-0.7c-0.6,0-1.1,0.2-1.5,0.7C682.7,187.3,682.5,187.8,682.5,188.6z"
   id="path972" />
		<path
   class="st7"
   d="M696.7,184.5c0.1-0.1,0.2-0.2,0.3-0.3s0.3-0.1,0.6-0.1c0.2,0,0.4,0,0.6,0.1s0.2,0.1,0.3,0.1s0.1,0.1,0.1,0.3    c0,0.1,0.1,0.3,0.1,0.6v6.7c0,0.2,0,0.3,0,0.4c0,0.1-0.1,0.2-0.1,0.3c-0.1,0.2-0.4,0.3-0.9,0.3c-0.3,0-0.5,0-0.6-0.1    c-0.1,0-0.2-0.1-0.3-0.2c-1.8-2.4-3-4-3.6-4.7v3.9c0,0.2,0,0.3,0,0.4c0,0.1-0.1,0.2-0.1,0.3c-0.1,0.2-0.4,0.3-0.9,0.3    s-0.8-0.1-0.9-0.3c-0.1-0.1-0.1-0.2-0.1-0.3s0-0.2,0-0.4v-6.7c0-0.3,0-0.5,0.1-0.7c0.1-0.1,0.2-0.2,0.3-0.3s0.3-0.1,0.6-0.1    c0.2,0,0.4,0,0.6,0.1c0.1,0,0.2,0.1,0.3,0.1c0,0,0.1,0.1,0.3,0.3c1.7,2.3,2.8,3.8,3.4,4.5v-4.1    C696.6,184.9,696.6,184.7,696.7,184.5z"
   id="path974" />
		<path
   class="st7"
   d="M703,190.8h3.7c0.2,0,0.3,0,0.4,0c0.1,0,0.2,0.1,0.3,0.1c0.2,0.1,0.3,0.4,0.3,0.9c0,0.6-0.1,0.9-0.4,1    c-0.1,0-0.3,0.1-0.6,0.1h-4.8c-0.6,0-0.9-0.2-1-0.5c0-0.1-0.1-0.3-0.1-0.6v-6.7c0-0.4,0.1-0.7,0.2-0.8c0.2-0.1,0.4-0.2,0.9-0.2    h4.7c0.2,0,0.3,0,0.4,0c0.1,0,0.2,0.1,0.3,0.1c0.2,0.1,0.3,0.4,0.3,0.9c0,0.6-0.1,0.9-0.4,1c-0.1,0-0.3,0.1-0.6,0.1H703v1.2h2.4    c0.2,0,0.3,0,0.4,0c0.1,0,0.2,0.1,0.3,0.1c0.2,0.1,0.3,0.4,0.3,0.9c0,0.6-0.2,0.9-0.5,1c-0.1,0-0.3,0.1-0.6,0.1H703V190.8z"
   id="path976" />
	</g>
	<g
   class="st4"
   id="g990">
		<path
   class="st7"
   d="M729.4,184.1h6.7c0.3,0,0.4,0,0.6,0.1c0.1,0.1,0.2,0.2,0.2,0.3s0.1,0.3,0.1,0.5s0,0.4-0.1,0.5    c0,0.1-0.1,0.2-0.2,0.3c-0.1,0.1-0.3,0.1-0.6,0.1h-2.3v6c0,0.2,0,0.3,0,0.4c0,0.1,0,0.2-0.1,0.3s-0.2,0.2-0.3,0.2    s-0.4,0.1-0.6,0.1s-0.4,0-0.6-0.1c-0.1,0-0.3-0.1-0.3-0.2c-0.1-0.1-0.1-0.2-0.1-0.3s0-0.2,0-0.4v-6h-2.3c-0.3,0-0.4,0-0.6-0.1    c-0.1-0.1-0.2-0.2-0.2-0.3s-0.1-0.3-0.1-0.5s0-0.4,0.1-0.5c0-0.1,0.1-0.2,0.2-0.3C728.9,184.2,729.2,184.1,729.4,184.1z"
   id="path980" />
		<path
   class="st7"
   d="M744.2,184.5c0.1-0.1,0.2-0.2,0.3-0.3c0.2,0,0.3-0.1,0.6-0.1s0.4,0,0.6,0.1c0.1,0,0.2,0.1,0.3,0.1    c0.1,0.1,0.1,0.1,0.2,0.2c0,0.1,0.1,0.3,0.1,0.6v6.7c0,0.2,0,0.3,0,0.4c0,0.1-0.1,0.2-0.1,0.3c-0.1,0.2-0.4,0.3-0.9,0.3    c-0.6,0-0.9-0.1-1-0.4c0-0.1-0.1-0.3-0.1-0.6v-2.4H741v2.4c0,0.2,0,0.3,0,0.4c0,0.1,0,0.2-0.1,0.3c-0.1,0.2-0.4,0.3-0.9,0.3    c-0.6,0-0.9-0.1-1-0.4c0-0.1-0.1-0.3-0.1-0.6v-6.7c0-0.2,0-0.3,0-0.4c0-0.1,0-0.2,0.1-0.3c0.1-0.2,0.4-0.3,0.9-0.3    c0.6,0,0.9,0.1,1,0.4c0,0.1,0.1,0.3,0.1,0.6v2.4h3.2V185c0-0.2,0-0.3,0-0.4C744.1,184.7,744.2,184.6,744.2,184.5z"
   id="path982" />
		<path
   class="st7"
   d="M755.1,191.4c0.1,0.3,0.2,0.5,0.2,0.6c0,0.3-0.2,0.6-0.7,0.8c-0.3,0.1-0.5,0.2-0.6,0.2c-0.2,0-0.3,0-0.4-0.1    s-0.2-0.2-0.2-0.2c-0.1-0.2-0.4-0.9-0.9-2.2h-0.4h-1.5v1.4c0,0.2,0,0.3,0,0.4c0,0.1,0,0.2-0.1,0.3c-0.1,0.2-0.4,0.3-0.9,0.3    c-0.6,0-0.9-0.1-1-0.4c0-0.1-0.1-0.3-0.1-0.6v-6.7c0-0.2,0-0.3,0-0.4c0-0.1,0-0.2,0.1-0.3c0.1-0.2,0.4-0.3,0.9-0.3h2.6    c0.7,0,1.4,0.3,2.1,0.8c0.3,0.2,0.6,0.6,0.8,1s0.3,0.9,0.3,1.4c0,0.9-0.3,1.6-0.9,2.2C754.5,190,754.8,190.6,755.1,191.4z     M750.5,188.4h1.5c0.2,0,0.5-0.1,0.7-0.3s0.3-0.4,0.3-0.8c0-0.4-0.1-0.6-0.3-0.8s-0.5-0.3-0.7-0.3h-1.5V188.4z"
   id="path984" />
		<path
   class="st7"
   d="M759.3,190.8h3.7c0.2,0,0.3,0,0.4,0c0.1,0,0.2,0.1,0.3,0.1c0.2,0.1,0.3,0.4,0.3,0.9c0,0.6-0.1,0.9-0.4,1    c-0.1,0-0.3,0.1-0.6,0.1h-4.8c-0.6,0-0.9-0.2-1-0.5c0-0.1-0.1-0.3-0.1-0.6v-6.7c0-0.4,0.1-0.7,0.2-0.8c0.2-0.1,0.4-0.2,0.9-0.2    h4.7c0.2,0,0.3,0,0.4,0c0.1,0,0.2,0.1,0.3,0.1c0.2,0.1,0.3,0.4,0.3,0.9c0,0.6-0.1,0.9-0.4,1c-0.1,0-0.3,0.1-0.6,0.1h-3.7v1.2h2.4    c0.2,0,0.3,0,0.4,0c0.1,0,0.2,0.1,0.3,0.1c0.2,0.1,0.3,0.4,0.3,0.9c0,0.6-0.2,0.9-0.5,1c-0.1,0-0.3,0.1-0.6,0.1h-2.4v1.3H759.3z"
   id="path986" />
		<path
   class="st7"
   d="M768.2,190.8h3.7c0.2,0,0.3,0,0.4,0c0.1,0,0.2,0.1,0.3,0.1c0.2,0.1,0.3,0.4,0.3,0.9c0,0.6-0.1,0.9-0.4,1    c-0.1,0-0.3,0.1-0.6,0.1h-4.8c-0.6,0-0.9-0.2-1-0.5c0-0.1-0.1-0.3-0.1-0.6v-6.7c0-0.4,0.1-0.7,0.2-0.8c0.2-0.1,0.4-0.2,0.9-0.2    h4.7c0.2,0,0.3,0,0.4,0c0.1,0,0.2,0.1,0.3,0.1c0.2,0.1,0.3,0.4,0.3,0.9c0,0.6-0.1,0.9-0.4,1c-0.1,0-0.3,0.1-0.6,0.1h-3.7v1.2h2.4    c0.2,0,0.3,0,0.4,0c0.1,0,0.2,0.1,0.3,0.1c0.2,0.1,0.3,0.4,0.3,0.9c0,0.6-0.2,0.9-0.5,1c-0.1,0-0.3,0.1-0.6,0.1H768v1.3H768.2z"
   id="path988" />
	</g>
	<g
   class="st4"
   id="g998">
		<path
   class="st7"
   d="M610.9,207.4h6.7c0.3,0,0.4,0,0.6,0.1c0.1,0.1,0.2,0.2,0.2,0.3s0.1,0.3,0.1,0.5s0,0.4-0.1,0.5    c0,0.1-0.1,0.2-0.2,0.3c-0.1,0.1-0.3,0.1-0.6,0.1h-2.3v6c0,0.2,0,0.3,0,0.4c0,0.1,0,0.2-0.1,0.3s-0.2,0.2-0.3,0.2    s-0.4,0.1-0.6,0.1s-0.4,0-0.6-0.1c-0.1,0-0.3-0.1-0.3-0.2c-0.1-0.1-0.1-0.2-0.1-0.3s0-0.2,0-0.4v-6H611c-0.3,0-0.4,0-0.6-0.1    c-0.1-0.1-0.2-0.2-0.2-0.3s-0.1-0.3-0.1-0.5s0-0.4,0.1-0.5c0-0.1,0.1-0.2,0.2-0.3C610.4,207.4,610.6,207.4,610.9,207.4z"
   id="path992" />
		<path
   class="st7"
   d="M630.8,207.4c0.5,0.2,0.8,0.4,0.8,0.8c0,0.1,0,0.3-0.1,0.6l-2.3,6.7c0,0.1,0,0.1-0.1,0.2    c0,0.1-0.1,0.2-0.3,0.3s-0.4,0.2-0.6,0.2c-0.2,0-0.4-0.1-0.6-0.2s-0.3-0.3-0.3-0.4l-1.4-4.1c-0.9,2.6-1.3,4-1.4,4    c0,0-0.1,0.1-0.1,0.2c-0.1,0.1-0.1,0.2-0.2,0.2c-0.2,0.2-0.4,0.3-0.7,0.3s-0.5-0.1-0.6-0.2c-0.2-0.1-0.3-0.2-0.3-0.4l-0.1-0.2    l-2.3-6.7c-0.1-0.3-0.1-0.5-0.1-0.6c0-0.3,0.3-0.6,0.8-0.8c0.2-0.1,0.4-0.1,0.6-0.1s0.3,0.1,0.4,0.2s0.2,0.3,0.3,0.6l1.3,4    l1.3-3.9c0.1-0.3,0.3-0.6,0.6-0.7c0.1-0.1,0.3-0.1,0.5-0.1s0.4,0.1,0.6,0.2c0.2,0.1,0.3,0.3,0.3,0.4l1.4,4.2l1.3-4    c0.1-0.2,0.1-0.3,0.2-0.4c0-0.1,0.1-0.2,0.2-0.3s0.2-0.1,0.4-0.1S630.6,207.4,630.8,207.4z"
   id="path994" />
		<path
   class="st7"
   d="M637.6,207.3c1.2,0,2.2,0.4,3.1,1.3c0.9,0.9,1.3,1.9,1.3,3.2s-0.4,2.3-1.2,3.2s-1.9,1.3-3.1,1.3    c-1.2,0-2.2-0.4-3.1-1.3s-1.3-1.9-1.3-3.1c0-0.7,0.1-1.3,0.4-1.9c0.2-0.6,0.6-1.1,1-1.5s0.9-0.7,1.4-0.9    C636.5,207.4,637,207.3,637.6,207.3z M635.4,211.8c0,0.7,0.2,1.3,0.7,1.7s1,0.7,1.5,0.7c0.6,0,1.1-0.2,1.5-0.6s0.7-1,0.7-1.7    s-0.2-1.3-0.7-1.8c-0.5-0.4-1-0.7-1.5-0.7c-0.6,0-1.1,0.2-1.5,0.7C635.6,210.5,635.4,211.1,635.4,211.8z"
   id="path996" />
	</g>
	<g
   class="st4"
   id="g1008">
		<path
   class="st7"
   d="M670.4,207.4c0.2,0,0.3,0,0.4,0c0.1,0,0.2,0.1,0.3,0.1c0.1,0.1,0.2,0.2,0.2,0.3s0.1,0.4,0.1,0.6    c0,0.3,0,0.5-0.1,0.6c0,0.2-0.1,0.3-0.3,0.3c-0.1,0.1-0.2,0.1-0.3,0.1s-0.2,0-0.4,0h-3.7v1.2h2.4c0.2,0,0.3,0,0.4,0    c0.1,0,0.2,0.1,0.3,0.1c0.2,0.1,0.3,0.4,0.3,0.9c0,0.6-0.2,0.9-0.5,1c-0.1,0-0.3,0.1-0.6,0.1h-2.4v2.3c0,0.2,0,0.3,0,0.4    c0,0.1,0,0.2-0.1,0.3c-0.1,0.2-0.4,0.3-0.9,0.3c-0.6,0-0.9-0.2-1-0.5c0-0.1-0.1-0.3-0.1-0.6v-6.7c0-0.4,0.1-0.7,0.2-0.8    c0.2-0.1,0.4-0.2,0.9-0.2h4.9V207.4z"
   id="path1000" />
		<path
   class="st7"
   d="M677.6,207.3c1.2,0,2.2,0.4,3.1,1.3c0.9,0.9,1.3,1.9,1.3,3.2s-0.4,2.3-1.2,3.2s-1.9,1.3-3.1,1.3    c-1.2,0-2.2-0.4-3.1-1.3s-1.3-1.9-1.3-3.1c0-0.7,0.1-1.3,0.4-1.9c0.2-0.6,0.6-1.1,1-1.5s0.9-0.7,1.4-0.9    C676.5,207.4,677,207.3,677.6,207.3z M675.4,211.8c0,0.7,0.2,1.3,0.7,1.7s1,0.7,1.5,0.7c0.6,0,1.1-0.2,1.5-0.6s0.7-1,0.7-1.7    s-0.2-1.3-0.7-1.8c-0.5-0.4-1-0.7-1.5-0.7c-0.6,0-1.1,0.2-1.5,0.7C675.6,210.5,675.4,211.1,675.4,211.8z"
   id="path1002" />
		<path
   class="st7"
   d="M689.7,207.7c0.1-0.1,0.2-0.2,0.3-0.3c0.2,0,0.3-0.1,0.6-0.1s0.4,0,0.5,0.1s0.2,0.1,0.3,0.1    c0.1,0.1,0.1,0.1,0.2,0.3c0,0.1,0.1,0.3,0.1,0.6v3.6c0,1.1-0.3,2-1,2.9c-0.3,0.4-0.7,0.7-1.2,1s-1.1,0.4-1.7,0.4    c-0.6,0-1.2-0.1-1.7-0.4s-0.9-0.6-1.2-1c-0.6-0.8-1-1.8-1-2.9v-3.6c0-0.2,0-0.3,0-0.4c0-0.1,0-0.2,0.1-0.3s0.2-0.2,0.3-0.3    s0.4-0.1,0.6-0.1s0.5,0,0.6,0.1c0.2,0,0.3,0.1,0.3,0.3c0.1,0.2,0.1,0.4,0.1,0.8v3.6c0,0.5,0.1,1,0.4,1.4c0.1,0.2,0.3,0.4,0.5,0.5    s0.5,0.2,0.9,0.2c0.6,0,1-0.2,1.3-0.6c0.3-0.4,0.4-0.9,0.4-1.5v-3.7C689.6,208.1,689.6,207.8,689.7,207.7z"
   id="path1004" />
		<path
   class="st7"
   d="M700.6,214.7c0.1,0.3,0.2,0.5,0.2,0.6c0,0.3-0.2,0.6-0.7,0.8c-0.3,0.1-0.5,0.2-0.6,0.2c-0.2,0-0.3,0-0.4-0.1    s-0.2-0.2-0.2-0.2c-0.1-0.2-0.4-0.9-0.9-2.2h-0.4H696v1.4c0,0.2,0,0.3,0,0.4c0,0.1,0,0.2-0.1,0.3c-0.1,0.2-0.4,0.3-0.9,0.3    c-0.6,0-0.9-0.1-1-0.4c0-0.1-0.1-0.3-0.1-0.6v-6.7c0-0.2,0-0.3,0-0.4c0-0.1,0-0.2,0.1-0.3c0.1-0.2,0.4-0.3,0.9-0.3h2.6    c0.7,0,1.4,0.3,2.1,0.8c0.3,0.2,0.6,0.6,0.8,1s0.3,0.9,0.3,1.4c0,0.9-0.3,1.6-0.9,2.2C700,213.2,700.2,213.9,700.6,214.7z     M696,211.6h1.5c0.2,0,0.5-0.1,0.7-0.3s0.3-0.4,0.3-0.8c0-0.4-0.1-0.6-0.3-0.8s-0.5-0.3-0.7-0.3H696V211.6z"
   id="path1006" />
	</g>
	<g
   class="st4"
   id="g1018">
		<path
   class="st7"
   d="M741.2,207.4c0.2,0,0.3,0,0.4,0c0.1,0,0.2,0.1,0.3,0.1c0.1,0.1,0.2,0.2,0.2,0.3s0.1,0.4,0.1,0.6    c0,0.3,0,0.5-0.1,0.6c0,0.2-0.1,0.3-0.3,0.3c-0.1,0.1-0.2,0.1-0.3,0.1s-0.2,0-0.4,0h-3.7v1.2h2.4c0.2,0,0.3,0,0.4,0    c0.1,0,0.2,0.1,0.3,0.1c0.2,0.1,0.3,0.4,0.3,0.9c0,0.6-0.2,0.9-0.5,1c-0.1,0-0.3,0.1-0.6,0.1h-2.4v2.3c0,0.2,0,0.3,0,0.4    c0,0.1,0,0.2-0.1,0.3c-0.1,0.2-0.4,0.3-0.9,0.3c-0.6,0-0.9-0.2-1-0.5c0-0.1-0.1-0.3-0.1-0.6v-6.7c0-0.4,0.1-0.7,0.2-0.8    c0.2-0.1,0.4-0.2,0.9-0.2h4.9V207.4z"
   id="path1010" />
		<path
   class="st7"
   d="M744.3,208.5c0-0.2,0-0.3,0-0.4c0-0.1,0-0.2,0.1-0.3c0.1-0.2,0.4-0.3,0.9-0.3c0.6,0,0.9,0.1,1,0.4    c0,0.1,0.1,0.3,0.1,0.6v6.7c0,0.2,0,0.3,0,0.4c0,0.1,0,0.2-0.1,0.3c-0.1,0.2-0.4,0.3-0.9,0.3c-0.6,0-0.9-0.2-1-0.5    c0-0.1-0.1-0.3-0.1-0.6V208.5z"
   id="path1012" />
		<path
   class="st7"
   d="M756.6,207.6c0.5,0.2,0.7,0.5,0.7,0.8c0,0.1-0.1,0.3-0.2,0.6l-3.3,6.7c-0.1,0.2-0.2,0.3-0.4,0.4    c-0.2,0.1-0.4,0.2-0.6,0.2h-0.1c-0.2,0-0.4-0.1-0.6-0.2c-0.2-0.1-0.3-0.2-0.4-0.4l-3.3-6.7c-0.1-0.3-0.2-0.4-0.2-0.6    c0-0.3,0.2-0.5,0.7-0.8c0.3-0.1,0.5-0.2,0.6-0.2s0.2,0,0.3,0s0.1,0.1,0.2,0.2c0.1,0.1,0.1,0.2,0.2,0.3s0.2,0.4,0.5,1    s0.5,1.1,0.8,1.7c0.3,0.6,0.6,1.2,0.8,1.7s0.4,0.9,0.4,0.9l2.4-5.3c0.1-0.2,0.1-0.3,0.2-0.4c0.1-0.2,0.3-0.3,0.5-0.3    S756.3,207.4,756.6,207.6z"
   id="path1014" />
		<path
   class="st7"
   d="M761.3,214.1h3.7c0.2,0,0.3,0,0.4,0c0.1,0,0.2,0.1,0.3,0.1c0.2,0.1,0.3,0.4,0.3,0.9c0,0.6-0.1,0.9-0.4,1    c-0.1,0-0.3,0.1-0.6,0.1h-4.8c-0.6,0-0.9-0.2-1-0.5c0-0.1-0.1-0.3-0.1-0.6v-6.7c0-0.4,0.1-0.7,0.2-0.8c0.2-0.1,0.4-0.2,0.9-0.2    h4.7c0.2,0,0.3,0,0.4,0c0.1,0,0.2,0.1,0.3,0.1c0.2,0.1,0.3,0.4,0.3,0.9c0,0.6-0.1,0.9-0.4,1c-0.1,0-0.3,0.1-0.6,0.1h-3.7v1.2h2.4    c0.2,0,0.3,0,0.4,0c0.1,0,0.2,0.1,0.3,0.1c0.2,0.1,0.3,0.4,0.3,0.9c0,0.6-0.2,0.9-0.5,1c-0.1,0-0.3,0.1-0.6,0.1h-2.4v1.3H761.3z"
   id="path1016" />
	</g>
	<g
   class="st4"
   id="g1026">
		<path
   class="st7"
   d="M615.9,238.3c-0.2-0.3-0.3-0.5-0.3-0.7s0.2-0.5,0.5-0.8c0.2-0.2,0.4-0.3,0.6-0.3c0.2,0,0.5,0.2,0.9,0.6    c0.1,0.1,0.3,0.3,0.5,0.4c0.2,0.1,0.4,0.2,0.6,0.2c0.7,0,1.1-0.3,1.1-0.9c0-0.2-0.1-0.3-0.3-0.5s-0.5-0.2-0.8-0.3s-0.6-0.1-1-0.3    s-0.7-0.3-1-0.4s-0.6-0.4-0.8-0.8c-0.2-0.4-0.3-0.8-0.3-1.3c0-0.7,0.3-1.3,0.8-1.8s1.2-0.8,2.1-0.8c0.5,0,0.9,0.1,1.3,0.2    c0.4,0.1,0.7,0.2,0.8,0.4l0.3,0.2c0.2,0.2,0.4,0.4,0.4,0.6s-0.1,0.4-0.3,0.7c-0.3,0.4-0.6,0.6-0.8,0.6s-0.4-0.1-0.6-0.2l-0.1-0.1    c-0.1-0.1-0.1-0.1-0.2-0.2c-0.2-0.1-0.4-0.2-0.6-0.2c-0.3,0-0.5,0.1-0.6,0.2c-0.2,0.1-0.3,0.3-0.3,0.5s0.1,0.4,0.3,0.5    s0.5,0.2,0.8,0.3c0.3,0,0.6,0.1,1,0.2c0.4,0.1,0.7,0.2,1,0.4c0.3,0.1,0.6,0.4,0.8,0.8c0.2,0.4,0.3,0.8,0.3,1.3s-0.1,1-0.3,1.4    s-0.5,0.7-0.8,0.9c-0.6,0.4-1.3,0.6-2.1,0.6c-0.4,0-0.7,0-1.1-0.1c-0.3-0.1-0.6-0.2-0.8-0.3c-0.4-0.3-0.7-0.5-0.9-0.7L615.9,238.3    z"
   id="path1020" />
		<path
   class="st7"
   d="M623.9,231.8c0-0.2,0-0.3,0-0.4c0-0.1,0-0.2,0.1-0.3c0.1-0.2,0.4-0.3,0.9-0.3c0.6,0,0.9,0.1,1,0.4    c0,0.1,0.1,0.3,0.1,0.6v6.7c0,0.2,0,0.3,0,0.4c0,0.1,0,0.2-0.1,0.3c-0.1,0.2-0.4,0.3-0.9,0.3c-0.6,0-0.9-0.2-1-0.5    c0-0.1-0.1-0.3-0.1-0.6V231.8z"
   id="path1022" />
		<path
   class="st7"
   d="M633.6,235l2.4,2.7c0.3,0.3,0.4,0.6,0.4,0.8s-0.2,0.5-0.5,0.7s-0.6,0.4-0.8,0.4s-0.5-0.2-0.7-0.5l-2.3-2.6    l-2.3,2.6c-0.3,0.3-0.5,0.5-0.7,0.5s-0.5-0.1-0.8-0.4s-0.5-0.5-0.5-0.7s0.1-0.5,0.4-0.8l2.4-2.7l-2.4-2.7    c-0.3-0.3-0.4-0.5-0.4-0.8s0.2-0.5,0.5-0.7s0.6-0.4,0.8-0.4s0.5,0.2,0.7,0.5l2.3,2.6l2.3-2.6c0.3-0.3,0.5-0.5,0.7-0.5    s0.5,0.1,0.8,0.4c0.3,0.3,0.5,0.5,0.5,0.7s-0.1,0.5-0.4,0.8L633.6,235z"
   id="path1024" />
	</g>
	<g
   class="st4"
   id="g1038">
		<path
   class="st7"
   d="M660.8,238.2c-0.2-0.3-0.3-0.5-0.3-0.7s0.2-0.5,0.5-0.8c0.2-0.2,0.4-0.3,0.6-0.3c0.2,0,0.5,0.2,0.9,0.6    c0.1,0.1,0.3,0.3,0.5,0.4c0.2,0.1,0.4,0.2,0.6,0.2c0.7,0,1.1-0.3,1.1-0.9c0-0.2-0.1-0.3-0.3-0.5s-0.5-0.2-0.8-0.3s-0.6-0.1-1-0.3    s-0.7-0.3-1-0.4s-0.6-0.4-0.8-0.8c-0.2-0.4-0.3-0.8-0.3-1.3c0-0.7,0.3-1.3,0.8-1.8s1.2-0.8,2.1-0.8c0.5,0,0.9,0.1,1.3,0.2    c0.4,0.1,0.7,0.2,0.8,0.4l0.3,0.2c0.2,0.2,0.4,0.4,0.4,0.6s-0.1,0.4-0.3,0.7c-0.3,0.4-0.6,0.6-0.8,0.6s-0.4-0.1-0.6-0.2l-0.1-0.1    c-0.1-0.1-0.1-0.1-0.2-0.2c-0.2-0.1-0.4-0.2-0.6-0.2c-0.3,0-0.5,0.1-0.6,0.2c-0.2,0.1-0.3,0.3-0.3,0.5s0.1,0.4,0.3,0.5    s0.5,0.2,0.8,0.3c0.3,0,0.6,0.1,1,0.2c0.4,0.1,0.7,0.2,1,0.4c0.3,0.1,0.6,0.4,0.8,0.8c0.2,0.4,0.3,0.8,0.3,1.3s-0.1,1-0.3,1.4    s-0.5,0.7-0.8,0.9c-0.6,0.4-1.3,0.6-2.1,0.6c-0.4,0-0.7,0-1.1-0.1c-0.3-0.1-0.6-0.2-0.8-0.3c-0.4-0.3-0.7-0.5-0.9-0.7L660.8,238.2    z"
   id="path1028" />
		<path
   class="st7"
   d="M671,237.3h3.7c0.2,0,0.3,0,0.4,0c0.1,0,0.2,0.1,0.3,0.1c0.2,0.1,0.3,0.4,0.3,0.9c0,0.6-0.1,0.9-0.4,1    c-0.1,0-0.3,0.1-0.6,0.1h-4.8c-0.6,0-0.9-0.2-1-0.5c0-0.1-0.1-0.3-0.1-0.6v-6.7c0-0.4,0.1-0.7,0.2-0.8c0.2-0.1,0.4-0.2,0.9-0.2    h4.7c0.2,0,0.3,0,0.4,0c0.1,0,0.2,0.1,0.3,0.1c0.2,0.1,0.3,0.4,0.3,0.9c0,0.6-0.1,0.9-0.4,1c-0.1,0-0.3,0.1-0.6,0.1H671v1.2h2.4    c0.2,0,0.3,0,0.4,0c0.1,0,0.2,0.1,0.3,0.1c0.2,0.1,0.3,0.4,0.3,0.9c0,0.6-0.2,0.9-0.5,1c-0.1,0-0.3,0.1-0.6,0.1H671V237.3z"
   id="path1030" />
		<path
   class="st7"
   d="M685.8,230.8c0.5,0.2,0.7,0.5,0.7,0.8c0,0.1-0.1,0.3-0.2,0.6l-3.3,6.7c-0.1,0.2-0.2,0.3-0.4,0.4    c-0.2,0.1-0.4,0.2-0.6,0.2h-0.1c-0.2,0-0.4-0.1-0.6-0.2c-0.2-0.1-0.3-0.2-0.4-0.4l-3.3-6.7c-0.1-0.3-0.2-0.4-0.2-0.6    c0-0.3,0.2-0.5,0.7-0.8c0.3-0.1,0.5-0.2,0.6-0.2s0.2,0,0.3,0s0.1,0.1,0.2,0.2c0.1,0.1,0.1,0.2,0.2,0.3s0.2,0.4,0.5,1    s0.5,1.1,0.8,1.7c0.3,0.6,0.6,1.2,0.8,1.7s0.4,0.9,0.4,0.9l2.4-5.3c0.1-0.2,0.1-0.3,0.2-0.4c0.1-0.2,0.3-0.3,0.5-0.3    S685.5,230.7,685.8,230.8z"
   id="path1032" />
		<path
   class="st7"
   d="M690.5,237.3h3.7c0.2,0,0.3,0,0.4,0c0.1,0,0.2,0.1,0.3,0.1c0.2,0.1,0.3,0.4,0.3,0.9c0,0.6-0.1,0.9-0.4,1    c-0.1,0-0.3,0.1-0.6,0.1h-4.8c-0.6,0-0.9-0.2-1-0.5c0-0.1-0.1-0.3-0.1-0.6v-6.7c0-0.4,0.1-0.7,0.2-0.8c0.2-0.1,0.4-0.2,0.9-0.2    h4.7c0.2,0,0.3,0,0.4,0c0.1,0,0.2,0.1,0.3,0.1c0.2,0.1,0.3,0.4,0.3,0.9c0,0.6-0.1,0.9-0.4,1c-0.1,0-0.3,0.1-0.6,0.1h-3.7v1.2h2.4    c0.2,0,0.3,0,0.4,0c0.1,0,0.2,0.1,0.3,0.1c0.2,0.1,0.3,0.4,0.3,0.9c0,0.6-0.2,0.9-0.5,1c-0.1,0-0.3,0.1-0.6,0.1h-2.4v1.3H690.5z"
   id="path1034" />
		<path
   class="st7"
   d="M702.9,231c0.1-0.1,0.2-0.2,0.3-0.3s0.3-0.1,0.6-0.1c0.2,0,0.4,0,0.6,0.1s0.2,0.1,0.3,0.1s0.1,0.1,0.1,0.3    c0,0.1,0.1,0.3,0.1,0.6v6.7c0,0.2,0,0.3,0,0.4c0,0.1-0.1,0.2-0.1,0.3c-0.1,0.2-0.4,0.3-0.9,0.3c-0.3,0-0.5,0-0.6-0.1    c-0.1,0-0.2-0.1-0.3-0.2c-1.8-2.4-3-4-3.6-4.7v3.9c0,0.2,0,0.3,0,0.4c0,0.1-0.1,0.2-0.1,0.3c-0.1,0.2-0.4,0.3-0.9,0.3    s-0.8-0.1-0.9-0.3c-0.1-0.1-0.1-0.2-0.1-0.3s0-0.2,0-0.4v-6.7c0-0.3,0-0.5,0.1-0.7c0.1-0.1,0.2-0.2,0.3-0.3s0.3-0.1,0.6-0.1    c0.2,0,0.4,0,0.6,0.1c0.1,0,0.2,0.1,0.3,0.1c0,0,0.1,0.1,0.3,0.3c1.7,2.3,2.8,3.8,3.4,4.5v-4.1C702.8,231.4,702.8,231.2,702.9,231    z"
   id="path1036" />
	</g>
	<g
   class="st4"
   id="g1050">
		<path
   class="st7"
   d="M732.5,237.3h3.7c0.2,0,0.3,0,0.4,0c0.1,0,0.2,0.1,0.3,0.1c0.2,0.1,0.3,0.4,0.3,0.9c0,0.6-0.1,0.9-0.4,1    c-0.1,0-0.3,0.1-0.6,0.1h-4.8c-0.6,0-0.9-0.2-1-0.5c0-0.1-0.1-0.3-0.1-0.6v-6.7c0-0.4,0.1-0.7,0.2-0.8c0.2-0.1,0.4-0.2,0.9-0.2    h4.7c0.2,0,0.3,0,0.4,0c0.1,0,0.2,0.1,0.3,0.1c0.2,0.1,0.3,0.4,0.3,0.9c0,0.6-0.1,0.9-0.4,1c-0.1,0-0.3,0.1-0.6,0.1h-3.7v1.2h2.4    c0.2,0,0.3,0,0.4,0c0.1,0,0.2,0.1,0.3,0.1c0.2,0.1,0.3,0.4,0.3,0.9c0,0.6-0.2,0.9-0.5,1c-0.1,0-0.3,0.1-0.6,0.1h-2.4v1.3H732.5z"
   id="path1040" />
		<path
   class="st7"
   d="M739.3,231.7c0-0.2,0-0.3,0-0.4c0-0.1,0-0.2,0.1-0.3c0.1-0.2,0.4-0.3,0.9-0.3c0.6,0,0.9,0.1,1,0.4    c0,0.1,0.1,0.3,0.1,0.6v6.7c0,0.2,0,0.3,0,0.4c0,0.1,0,0.2-0.1,0.3c-0.1,0.2-0.4,0.3-0.9,0.3c-0.6,0-0.9-0.2-1-0.5    c0-0.1-0.1-0.3-0.1-0.6V231.7z"
   id="path1042" />
		<path
   class="st7"
   d="M748.1,234.2h2.1c0.4,0,0.7,0.1,0.8,0.3s0.1,0.4,0.1,0.7v2.6c0,0.3-0.1,0.5-0.3,0.7c-0.7,0.7-1.7,1-3,1    c-1.2,0-2.2-0.5-3.1-1.4c-0.9-0.9-1.3-2-1.3-3.3s0.4-2.3,1.3-3.2c0.9-0.9,2-1.3,3.2-1.3c0.9,0,1.8,0.3,2.7,0.9    c0.2,0.2,0.3,0.3,0.3,0.5s-0.1,0.4-0.3,0.7c-0.3,0.4-0.6,0.6-0.9,0.6c-0.2,0-0.4-0.1-0.7-0.3s-0.7-0.3-1.2-0.3    c-0.6,0-1.1,0.2-1.6,0.6c-0.5,0.4-0.7,1-0.7,1.7s0.2,1.3,0.7,1.8s1,0.7,1.6,0.7c0.4,0,0.8-0.1,1.2-0.2v-1.3h-0.9    c-0.2,0-0.4,0-0.5-0.1s-0.2-0.2-0.2-0.3s0-0.3,0-0.5s0-0.4,0.1-0.5s0.1-0.2,0.2-0.3C747.7,234.2,747.9,234.2,748.1,234.2z"
   id="path1044" />
		<path
   class="st7"
   d="M758.8,231c0.1-0.1,0.2-0.2,0.3-0.3c0.2,0,0.3-0.1,0.6-0.1s0.4,0,0.6,0.1c0.1,0,0.2,0.1,0.3,0.1    c0.1,0.1,0.1,0.1,0.2,0.2c0,0.1,0.1,0.3,0.1,0.6v6.7c0,0.2,0,0.3,0,0.4c0,0.1-0.1,0.2-0.1,0.3c-0.1,0.2-0.4,0.3-0.9,0.3    c-0.6,0-0.9-0.1-1-0.4c0-0.1-0.1-0.3-0.1-0.6v-2.4h-3.2v2.4c0,0.2,0,0.3,0,0.4c0,0.1,0,0.2-0.1,0.3c-0.1,0.2-0.4,0.3-0.9,0.3    c-0.6,0-0.9-0.1-1-0.4c0-0.1-0.1-0.3-0.1-0.6v-6.7c0-0.2,0-0.3,0-0.4c0-0.1,0-0.2,0.1-0.3c0.1-0.2,0.4-0.3,0.9-0.3    c0.6,0,0.9,0.1,1,0.4c0,0.1,0.1,0.3,0.1,0.6v2.4h3.2v-2.5c0-0.2,0-0.3,0-0.4C758.7,231.2,758.7,231.1,758.8,231z"
   id="path1046" />
		<path
   class="st7"
   d="M763.5,230.7h6.7c0.3,0,0.4,0,0.6,0.1c0.1,0.1,0.2,0.2,0.2,0.3s0.1,0.3,0.1,0.5s0,0.4-0.1,0.5    c0,0.1-0.1,0.2-0.2,0.3c-0.1,0.1-0.3,0.1-0.6,0.1h-2.3v6c0,0.2,0,0.3,0,0.4c0,0.1,0,0.2-0.1,0.3s-0.2,0.2-0.3,0.2    s-0.4,0.1-0.6,0.1s-0.4,0-0.6-0.1c-0.1,0-0.3-0.1-0.3-0.2c-0.1-0.1-0.1-0.2-0.1-0.3s0-0.2,0-0.4v-6h-2.3c-0.3,0-0.4,0-0.6-0.1    c-0.1-0.1-0.2-0.2-0.2-0.3s-0.1-0.3-0.1-0.5s0-0.4,0.1-0.5c0-0.1,0.1-0.2,0.2-0.3C763,230.7,763.2,230.7,763.5,230.7z"
   id="path1048" />
	</g>
	<g
   class="st4"
   id="g1060">
		<path
   class="st7"
   d="M616.3,254.3c0.1-0.1,0.2-0.2,0.3-0.3s0.3-0.1,0.6-0.1c0.2,0,0.4,0,0.6,0.1s0.2,0.1,0.3,0.1s0.1,0.1,0.1,0.3    c0,0.1,0.1,0.3,0.1,0.6v6.7c0,0.2,0,0.3,0,0.4s-0.1,0.2-0.1,0.3c-0.1,0.2-0.4,0.3-0.9,0.3c-0.3,0-0.5,0-0.6-0.1    c-0.1,0-0.2-0.1-0.3-0.2c-1.8-2.4-3-4-3.6-4.7v3.9c0,0.2,0,0.3,0,0.4s-0.1,0.2-0.1,0.3c-0.1,0.2-0.4,0.3-0.9,0.3s-0.8-0.1-0.9-0.3    c-0.1-0.1-0.1-0.2-0.1-0.3c0-0.1,0-0.2,0-0.4v-6.7c0-0.3,0-0.5,0.1-0.7c0.1-0.1,0.2-0.2,0.3-0.3s0.3-0.1,0.6-0.1    c0.2,0,0.4,0,0.6,0.1c0.1,0,0.2,0.1,0.3,0.1c0,0,0.1,0.1,0.3,0.3c1.7,2.3,2.8,3.8,3.4,4.5v-4.1    C616.1,254.6,616.2,254.4,616.3,254.3z"
   id="path1052" />
		<path
   class="st7"
   d="M620.4,254.9c0-0.2,0-0.3,0-0.4c0-0.1,0-0.2,0.1-0.3c0.1-0.2,0.4-0.3,0.9-0.3c0.6,0,0.9,0.1,1,0.4    c0,0.1,0.1,0.3,0.1,0.6v6.7c0,0.2,0,0.3,0,0.4s0,0.2-0.1,0.3c-0.1,0.2-0.4,0.3-0.9,0.3c-0.6,0-0.9-0.2-1-0.5    c0-0.1-0.1-0.3-0.1-0.6V254.9z"
   id="path1054" />
		<path
   class="st7"
   d="M630.4,254.3c0.1-0.1,0.2-0.2,0.3-0.3s0.3-0.1,0.6-0.1c0.2,0,0.4,0,0.6,0.1s0.2,0.1,0.3,0.1s0.1,0.1,0.1,0.3    c0,0.1,0.1,0.3,0.1,0.6v6.7c0,0.2,0,0.3,0,0.4s-0.1,0.2-0.1,0.3c-0.1,0.2-0.4,0.3-0.9,0.3c-0.3,0-0.5,0-0.6-0.1    c-0.1,0-0.2-0.1-0.3-0.2c-1.8-2.4-3-4-3.6-4.7v3.9c0,0.2,0,0.3,0,0.4s-0.1,0.2-0.1,0.3c-0.1,0.2-0.4,0.3-0.9,0.3s-0.8-0.1-0.9-0.3    c-0.1-0.1-0.1-0.2-0.1-0.3c0-0.1,0-0.2,0-0.4v-6.7c0-0.3,0-0.5,0.1-0.7c0.1-0.1,0.2-0.2,0.3-0.3s0.3-0.1,0.6-0.1    c0.2,0,0.4,0,0.6,0.1c0.1,0,0.2,0.1,0.3,0.1c0,0,0.1,0.1,0.3,0.3c1.7,2.3,2.8,3.8,3.4,4.5v-4.1    C630.3,254.6,630.3,254.4,630.4,254.3z"
   id="path1056" />
		<path
   class="st7"
   d="M636.7,260.6h3.7c0.2,0,0.3,0,0.4,0c0.1,0,0.2,0.1,0.3,0.1c0.2,0.1,0.3,0.4,0.3,0.9c0,0.6-0.1,0.9-0.4,1    c-0.1,0-0.3,0.1-0.6,0.1h-4.8c-0.6,0-0.9-0.2-1-0.5c0-0.1-0.1-0.3-0.1-0.6v-6.7c0-0.4,0.1-0.7,0.2-0.8c0.2-0.1,0.4-0.2,0.9-0.2    h4.7c0.2,0,0.3,0,0.4,0c0.1,0,0.2,0.1,0.3,0.1c0.2,0.1,0.3,0.4,0.3,0.9c0,0.6-0.1,0.9-0.4,1c-0.1,0-0.3,0.1-0.6,0.1h-3.7v1.2h2.4    c0.2,0,0.3,0,0.4,0c0.1,0,0.2,0.1,0.3,0.1c0.2,0.1,0.3,0.4,0.3,0.9c0,0.6-0.2,0.9-0.5,1c-0.1,0-0.3,0.1-0.6,0.1h-2.4v1.3H636.7z"
   id="path1058" />
	</g>
	<g
   class="st4"
   id="g1068">
		<path
   class="st7"
   d="M658.8,253.9h6.7c0.3,0,0.4,0,0.6,0.1c0.1,0.1,0.2,0.2,0.2,0.3s0.1,0.3,0.1,0.5s0,0.4-0.1,0.5    c0,0.1-0.1,0.2-0.2,0.3c-0.1,0.1-0.3,0.1-0.6,0.1h-2.3v6c0,0.2,0,0.3,0,0.4s0,0.2-0.1,0.3c-0.1,0.1-0.2,0.2-0.3,0.2    s-0.4,0.1-0.6,0.1s-0.4,0-0.6-0.1c-0.1,0-0.3-0.1-0.3-0.2c-0.1-0.1-0.1-0.2-0.1-0.3c0-0.1,0-0.2,0-0.4v-6h-2.3    c-0.3,0-0.4,0-0.6-0.1c-0.1-0.1-0.2-0.2-0.2-0.3s-0.1-0.3-0.1-0.5s0-0.4,0.1-0.5c0-0.1,0.1-0.2,0.2-0.3    C658.4,253.9,658.6,253.9,658.8,253.9z"
   id="path1062" />
		<path
   class="st7"
   d="M670.3,260.6h3.7c0.2,0,0.3,0,0.4,0c0.1,0,0.2,0.1,0.3,0.1c0.2,0.1,0.3,0.4,0.3,0.9c0,0.6-0.1,0.9-0.4,1    c-0.1,0-0.3,0.1-0.6,0.1h-4.8c-0.6,0-0.9-0.2-1-0.5c0-0.1-0.1-0.3-0.1-0.6V255c0-0.4,0.1-0.7,0.2-0.8c0.2-0.1,0.4-0.2,0.9-0.2h4.7    c0.2,0,0.3,0,0.4,0c0.1,0,0.2,0.1,0.3,0.1c0.2,0.1,0.3,0.4,0.3,0.9c0,0.6-0.1,0.9-0.4,1c-0.1,0-0.3,0.1-0.6,0.1h-3.7v1.2h2.4    c0.2,0,0.3,0,0.4,0c0.1,0,0.2,0.1,0.3,0.1c0.2,0.1,0.3,0.4,0.3,0.9c0,0.6-0.2,0.9-0.5,1c-0.1,0-0.3,0.1-0.6,0.1h-2.4v1.2H670.3z"
   id="path1064" />
		<path
   class="st7"
   d="M682.8,254.3c0.1-0.1,0.2-0.2,0.3-0.3s0.3-0.1,0.6-0.1c0.2,0,0.4,0,0.6,0.1s0.2,0.1,0.3,0.1s0.1,0.1,0.1,0.3    c0,0.1,0.1,0.3,0.1,0.6v6.7c0,0.2,0,0.3,0,0.4s-0.1,0.2-0.1,0.3c-0.1,0.2-0.4,0.3-0.9,0.3c-0.3,0-0.5,0-0.6-0.1    c-0.1,0-0.2-0.1-0.3-0.2c-1.8-2.4-3-4-3.6-4.7v3.9c0,0.2,0,0.3,0,0.4s-0.1,0.2-0.1,0.3c-0.1,0.2-0.4,0.3-0.9,0.3s-0.8-0.1-0.9-0.3    c-0.1-0.1-0.1-0.2-0.1-0.3c0-0.1,0-0.2,0-0.4v-6.7c0-0.3,0-0.5,0.1-0.7c0.1-0.1,0.2-0.2,0.3-0.3s0.3-0.1,0.6-0.1    c0.2,0,0.4,0,0.6,0.1c0.1,0,0.2,0.1,0.3,0.1c0,0,0.1,0.1,0.3,0.3c1.7,2.3,2.8,3.8,3.4,4.5v-4.1    C682.6,254.6,682.7,254.4,682.8,254.3z"
   id="path1066" />
	</g>
	<g
   class="st4"
   id="g1082">
		<path
   class="st7"
   d="M715,260.6h3.7c0.2,0,0.3,0,0.4,0c0.1,0,0.2,0.1,0.3,0.1c0.2,0.1,0.3,0.4,0.3,0.9c0,0.6-0.1,0.9-0.4,1    c-0.1,0-0.3,0.1-0.6,0.1h-4.8c-0.6,0-0.9-0.2-1-0.5c0-0.1-0.1-0.3-0.1-0.6V255c0-0.4,0.1-0.7,0.2-0.8c0.2-0.1,0.4-0.2,0.9-0.2h4.7    c0.2,0,0.3,0,0.4,0c0.1,0,0.2,0.1,0.3,0.1c0.2,0.1,0.3,0.4,0.3,0.9c0,0.6-0.1,0.9-0.4,1c-0.1,0-0.3,0.1-0.6,0.1H715v1.2h2.4    c0.2,0,0.3,0,0.4,0c0.1,0,0.2,0.1,0.3,0.1c0.2,0.1,0.3,0.4,0.3,0.9c0,0.6-0.2,0.9-0.5,1c-0.1,0-0.3,0.1-0.6,0.1H715V260.6z"
   id="path1070" />
		<path
   class="st7"
   d="M723.8,260.9h3.3c0.3,0,0.5,0,0.6,0.1s0.2,0.2,0.2,0.3s0.1,0.3,0.1,0.5s0,0.4-0.1,0.5s-0.1,0.2-0.2,0.3    c-0.2,0.1-0.4,0.1-0.6,0.1h-4.3c-0.6,0-0.9-0.2-1-0.5c0-0.1-0.1-0.3-0.1-0.6V255c0-0.2,0-0.3,0-0.4c0-0.1,0-0.2,0.1-0.3    c0.1-0.2,0.4-0.3,0.9-0.3c0.6,0,0.9,0.1,1,0.4c0,0.1,0.1,0.3,0.1,0.6V260.9z"
   id="path1072" />
		<path
   class="st7"
   d="M732.1,260.6h3.7c0.2,0,0.3,0,0.4,0c0.1,0,0.2,0.1,0.3,0.1c0.2,0.1,0.3,0.4,0.3,0.9c0,0.6-0.1,0.9-0.4,1    c-0.1,0-0.3,0.1-0.6,0.1H731c-0.6,0-0.9-0.2-1-0.5c0-0.1-0.1-0.3-0.1-0.6V255c0-0.4,0.1-0.7,0.2-0.8c0.2-0.1,0.4-0.2,0.9-0.2h4.7    c0.2,0,0.3,0,0.4,0c0.1,0,0.2,0.1,0.3,0.1c0.2,0.1,0.3,0.4,0.3,0.9c0,0.6-0.1,0.9-0.4,1c-0.1,0-0.3,0.1-0.6,0.1H732v1.2h2.4    c0.2,0,0.3,0,0.4,0c0.1,0,0.2,0.1,0.3,0.1c0.2,0.1,0.3,0.4,0.3,0.9c0,0.6-0.2,0.9-0.5,1c-0.1,0-0.3,0.1-0.6,0.1h-2.4v1.2H732.1z"
   id="path1074" />
		<path
   class="st7"
   d="M746.8,254.1c0.5,0.2,0.7,0.5,0.7,0.8c0,0.1-0.1,0.3-0.2,0.6l-3.3,6.7c-0.1,0.2-0.2,0.3-0.4,0.4    s-0.4,0.2-0.6,0.2l0,0c-0.2,0-0.4-0.1-0.6-0.2c-0.2-0.1-0.3-0.2-0.4-0.4l-3.3-6.7c-0.1-0.3-0.2-0.4-0.2-0.6c0-0.3,0.2-0.5,0.7-0.8    c0.3-0.1,0.5-0.2,0.6-0.2s0.2,0,0.3,0s0.1,0.1,0.2,0.2c0.1,0.1,0.1,0.2,0.2,0.3s0.2,0.4,0.5,1c0.3,0.6,0.5,1.1,0.8,1.7    s0.6,1.2,0.8,1.7s0.4,0.9,0.4,0.9l2.4-5.3c0.1-0.2,0.1-0.3,0.2-0.4c0.1-0.2,0.3-0.3,0.5-0.3S746.6,253.9,746.8,254.1z"
   id="path1076" />
		<path
   class="st7"
   d="M751.5,260.6h3.7c0.2,0,0.3,0,0.4,0c0.1,0,0.2,0.1,0.3,0.1c0.2,0.1,0.3,0.4,0.3,0.9c0,0.6-0.1,0.9-0.4,1    c-0.1,0-0.3,0.1-0.6,0.1h-4.8c-0.6,0-0.9-0.2-1-0.5c0-0.1-0.1-0.3-0.1-0.6V255c0-0.4,0.1-0.7,0.2-0.8c0.2-0.1,0.4-0.2,0.9-0.2h4.7    c0.2,0,0.3,0,0.4,0c0.1,0,0.2,0.1,0.3,0.1c0.2,0.1,0.3,0.4,0.3,0.9c0,0.6-0.1,0.9-0.4,1c-0.1,0-0.3,0.1-0.6,0.1h-3.7v1.2h2.4    c0.2,0,0.3,0,0.4,0c0.1,0,0.2,0.1,0.3,0.1c0.2,0.1,0.3,0.4,0.3,0.9c0,0.6-0.2,0.9-0.5,1c-0.1,0-0.3,0.1-0.6,0.1h-2.4v1.2H751.5z"
   id="path1078" />
		<path
   class="st7"
   d="M763.9,254.3c0.1-0.1,0.2-0.2,0.3-0.3s0.3-0.1,0.6-0.1c0.2,0,0.4,0,0.6,0.1s0.2,0.1,0.3,0.1s0.1,0.1,0.1,0.3    c0,0.1,0.1,0.3,0.1,0.6v6.7c0,0.2,0,0.3,0,0.4s-0.1,0.2-0.1,0.3c-0.1,0.2-0.4,0.3-0.9,0.3c-0.3,0-0.5,0-0.6-0.1    c-0.1,0-0.2-0.1-0.3-0.2c-1.8-2.4-3-4-3.6-4.7v3.9c0,0.2,0,0.3,0,0.4s-0.1,0.2-0.1,0.3c-0.1,0.2-0.4,0.3-0.9,0.3s-0.8-0.1-0.9-0.3    c-0.1-0.1-0.1-0.2-0.1-0.3c0-0.1,0-0.2,0-0.4V255c0-0.3,0-0.5,0.1-0.7c0.1-0.1,0.2-0.2,0.3-0.3s0.3-0.1,0.6-0.1    c0.2,0,0.4,0,0.6,0.1c0.1,0,0.2,0.1,0.3,0.1c0,0,0.1,0.1,0.3,0.3c1.7,2.3,2.8,3.8,3.4,4.5V255    C763.8,254.7,763.9,254.4,763.9,254.3z"
   id="path1080" />
	</g>
	<g
   class="st4"
   id="g1098">
		<path
   class="st7"
   d="M714.2,277c1.2,0,2.2,0.4,3.1,1.3c0.9,0.9,1.3,1.9,1.3,3.2c0,1.3-0.4,2.3-1.2,3.2c-0.8,0.9-1.9,1.3-3.1,1.3    c-1.2,0-2.2-0.4-3.1-1.3s-1.3-1.9-1.3-3.1c0-0.7,0.1-1.3,0.4-1.9c0.2-0.6,0.6-1.1,1-1.5s0.9-0.7,1.4-0.9    C713.1,277.1,713.7,277,714.2,277z M712,281.6c0,0.7,0.2,1.3,0.7,1.7c0.5,0.4,1,0.7,1.5,0.7c0.6,0,1.1-0.2,1.5-0.6s0.7-1,0.7-1.7    s-0.2-1.3-0.7-1.8c-0.5-0.4-1-0.7-1.5-0.7c-0.6,0-1.1,0.2-1.5,0.7C712.3,280.3,712,280.8,712,281.6z"
   id="path1084" />
		<path
   class="st7"
   d="M722.5,277.4c0.1,0.1,0.2,0.4,0.2,0.7v0.2c0,0.2,0,0.3,0,0.4c-0.1,0.7-0.3,1.3-0.6,1.8s-0.8,0.8-1.4,0.8    c-0.1,0-0.1,0-0.1-0.1s-0.1-0.2-0.1-0.3c0-0.1,0-0.2,0.1-0.3c0-0.1,0.1-0.1,0.1-0.1h0.1c0,0,0.1,0,0.1-0.1c0.1,0,0.1-0.1,0.2-0.2    c0.1-0.2,0.2-0.4,0.2-0.8c-0.3,0-0.5-0.1-0.6-0.3c-0.1-0.1-0.2-0.4-0.2-0.9c0-0.3,0-0.6,0.1-0.7c0.1-0.2,0.2-0.3,0.4-0.3    c0.2-0.1,0.4-0.1,0.8-0.1C722,277.1,722.3,277.2,722.5,277.4z"
   id="path1086" />
		<path
   class="st7"
   d="M730.1,283.6l0.2-0.2c0.3-0.2,0.5-0.2,0.6-0.2c0.2,0,0.5,0.2,0.8,0.7c0.2,0.3,0.3,0.5,0.3,0.7    s-0.1,0.3-0.2,0.4c-0.1,0.1-0.2,0.2-0.4,0.3s-0.3,0.2-0.4,0.3c-0.1,0.1-0.4,0.2-0.8,0.3c-0.4,0.1-0.8,0.2-1.2,0.2s-0.8,0-1.2-0.2    c-0.4-0.1-0.8-0.3-1.2-0.5s-0.8-0.5-1.1-0.9c-0.3-0.3-0.6-0.8-0.8-1.3s-0.3-1.1-0.3-1.7s0.1-1.2,0.3-1.7s0.5-0.9,0.8-1.3    c0.3-0.3,0.7-0.6,1.1-0.8c0.8-0.4,1.6-0.6,2.4-0.6c0.4,0,0.8,0.1,1.1,0.2c0.4,0.1,0.7,0.2,0.9,0.4l0.3,0.2    c0.1,0.1,0.3,0.2,0.3,0.2c0.2,0.2,0.3,0.4,0.3,0.6s-0.1,0.4-0.3,0.7c-0.3,0.4-0.6,0.6-0.8,0.6c-0.1,0-0.3-0.1-0.6-0.3    c-0.3-0.3-0.8-0.4-1.3-0.4s-1,0.2-1.5,0.5c-0.2,0.2-0.4,0.4-0.6,0.7c-0.2,0.3-0.2,0.7-0.2,1.1s0.1,0.8,0.2,1.1    c0.2,0.3,0.4,0.6,0.6,0.8c0.5,0.4,1,0.5,1.5,0.5c0.2,0,0.5,0,0.7-0.1C729.9,283.8,730,283.7,730.1,283.6z"
   id="path1088" />
		<path
   class="st7"
   d="M736.1,284.2h3.3c0.3,0,0.5,0,0.6,0.1s0.2,0.2,0.2,0.3s0.1,0.3,0.1,0.5s0,0.4-0.1,0.5s-0.1,0.2-0.2,0.3    c-0.2,0.1-0.4,0.1-0.6,0.1H735c-0.6,0-0.9-0.2-1-0.5c0-0.1-0.1-0.3-0.1-0.6v-6.7c0-0.2,0-0.3,0-0.4s0-0.2,0.1-0.3    c0.1-0.2,0.4-0.3,0.9-0.3c0.6,0,0.9,0.1,1,0.4c0,0.1,0.1,0.3,0.1,0.6v6H736.1z"
   id="path1090" />
		<path
   class="st7"
   d="M746.4,277c1.2,0,2.2,0.4,3.1,1.3c0.9,0.9,1.3,1.9,1.3,3.2c0,1.3-0.4,2.3-1.2,3.2c-0.8,0.9-1.9,1.3-3.1,1.3    c-1.2,0-2.2-0.4-3.1-1.3s-1.3-1.9-1.3-3.1c0-0.7,0.1-1.3,0.4-1.9c0.2-0.6,0.6-1.1,1-1.5s0.9-0.7,1.4-0.9    C745.3,277.1,745.8,277,746.4,277z M744.2,281.6c0,0.7,0.2,1.3,0.7,1.7c0.5,0.4,1,0.7,1.5,0.7c0.6,0,1.1-0.2,1.5-0.6    s0.7-1,0.7-1.7s-0.2-1.3-0.7-1.8c-0.5-0.4-1-0.7-1.5-0.7c-0.6,0-1.1,0.2-1.5,0.7C744.4,280.3,744.2,280.8,744.2,281.6z"
   id="path1092" />
		<path
   class="st7"
   d="M758.2,283.6l0.2-0.2c0.3-0.2,0.5-0.2,0.6-0.2c0.2,0,0.5,0.2,0.8,0.7c0.2,0.3,0.3,0.5,0.3,0.7    s-0.1,0.3-0.2,0.4c-0.1,0.1-0.2,0.2-0.4,0.3s-0.3,0.2-0.4,0.3c-0.1,0.1-0.4,0.2-0.8,0.3c-0.4,0.1-0.8,0.2-1.2,0.2s-0.8,0-1.2-0.2    c-0.4-0.1-0.8-0.3-1.2-0.5s-0.8-0.5-1.1-0.9c-0.3-0.3-0.6-0.8-0.8-1.3s-0.3-1.1-0.3-1.7s0.1-1.2,0.3-1.7s0.5-0.9,0.8-1.3    c0.3-0.3,0.7-0.6,1.1-0.8c0.8-0.4,1.6-0.6,2.4-0.6c0.4,0,0.8,0.1,1.1,0.2c0.4,0.1,0.7,0.2,0.9,0.4l0.3,0.2    c0.1,0.1,0.3,0.2,0.3,0.2c0.2,0.2,0.3,0.4,0.3,0.6s-0.1,0.4-0.3,0.7c-0.3,0.4-0.6,0.6-0.8,0.6c-0.1,0-0.3-0.1-0.6-0.3    c-0.3-0.3-0.8-0.4-1.3-0.4s-1,0.2-1.5,0.5c-0.2,0.2-0.4,0.4-0.6,0.7c-0.2,0.3-0.2,0.7-0.2,1.1s0.1,0.8,0.2,1.1    c0.2,0.3,0.4,0.6,0.6,0.8c0.5,0.4,1,0.5,1.5,0.5c0.2,0,0.5,0,0.7-0.1C758,283.8,758.1,283.7,758.2,283.6z"
   id="path1094" />
		<path
   class="st7"
   d="M765.8,281.5c1.2,1.2,2.1,2.1,2.6,2.7c0.3,0.3,0.4,0.5,0.4,0.8s-0.2,0.4-0.5,0.7c-0.3,0.3-0.6,0.4-0.8,0.4    s-0.4-0.2-0.7-0.5l-2.6-3v2.3c0,0.2,0,0.3,0,0.4s0,0.2-0.1,0.3c-0.1,0.2-0.4,0.3-0.9,0.3c-0.6,0-0.9-0.2-1-0.5    c0-0.1-0.1-0.3-0.1-0.6v-6.7c0-0.2,0-0.3,0-0.4s0-0.2,0.1-0.3c0.1-0.2,0.4-0.3,0.9-0.3c0.6,0,0.9,0.1,1,0.4c0,0.1,0.1,0.3,0.1,0.6    v2.3c1.1-1.2,2-2.2,2.6-3c0.3-0.3,0.5-0.5,0.7-0.5s0.5,0.1,0.8,0.4s0.5,0.5,0.5,0.7s-0.1,0.4-0.4,0.7c-0.5,0.5-1.2,1.3-2.2,2.2    L765.8,281.5z"
   id="path1096" />
	</g>
	<g
   class="st4"
   id="g1112">
		<path
   class="st7"
   d="M620.5,277.2h6.7c0.3,0,0.4,0,0.6,0.1c0.1,0.1,0.2,0.2,0.2,0.3c0,0.1,0.1,0.3,0.1,0.5s0,0.4-0.1,0.5    c0,0.1-0.1,0.2-0.2,0.3c-0.1,0.1-0.3,0.1-0.6,0.1h-2.3v6c0,0.2,0,0.3,0,0.4s0,0.2-0.1,0.3c-0.1,0.1-0.2,0.2-0.3,0.2    s-0.4,0.1-0.6,0.1s-0.4,0-0.6-0.1c-0.1,0-0.3-0.1-0.3-0.2c-0.1-0.1-0.1-0.2-0.1-0.3c0-0.1,0-0.2,0-0.4v-6h-2.3    c-0.3,0-0.4,0-0.6-0.1c-0.1-0.1-0.2-0.2-0.2-0.3c0-0.1-0.1-0.3-0.1-0.5s0-0.4,0.1-0.5c0-0.1,0.1-0.2,0.2-0.3    C620.1,277.2,620.3,277.2,620.5,277.2z"
   id="path1100" />
		<path
   class="st7"
   d="M640.5,277.2c0.5,0.2,0.8,0.4,0.8,0.8c0,0.1,0,0.3-0.1,0.6l-2.3,6.7c0,0.1,0,0.1-0.1,0.2    c0,0.1-0.1,0.2-0.3,0.3c-0.2,0.1-0.4,0.2-0.6,0.2c-0.2,0-0.4-0.1-0.6-0.2s-0.3-0.3-0.3-0.4l-1.4-4.1c-0.9,2.6-1.3,4-1.4,4    c0,0-0.1,0.1-0.1,0.2c-0.1,0.1-0.1,0.2-0.2,0.2c-0.2,0.2-0.4,0.3-0.7,0.3s-0.5-0.1-0.6-0.2c-0.2-0.1-0.3-0.2-0.3-0.4l-0.1-0.2    l-2.3-6.7c-0.1-0.3-0.1-0.5-0.1-0.6c0-0.3,0.3-0.6,0.8-0.8c0.2-0.1,0.4-0.1,0.6-0.1s0.3,0.1,0.4,0.2s0.2,0.3,0.3,0.6l1.3,4    l1.3-3.9c0.1-0.3,0.3-0.6,0.6-0.7c0.1-0.1,0.3-0.1,0.5-0.1s0.4,0.1,0.6,0.2c0.2,0.1,0.3,0.3,0.3,0.4l1.4,4.2l1.3-4    c0.1-0.2,0.1-0.3,0.2-0.4c0-0.1,0.1-0.2,0.2-0.3s0.2-0.1,0.4-0.1S640.2,277.1,640.5,277.2z"
   id="path1102" />
		<path
   class="st7"
   d="M645.2,283.8h3.7c0.2,0,0.3,0,0.4,0c0.1,0,0.2,0.1,0.3,0.1c0.2,0.1,0.3,0.4,0.3,0.9c0,0.6-0.1,0.9-0.4,1    c-0.1,0-0.3,0.1-0.6,0.1h-4.8c-0.6,0-0.9-0.2-1-0.5c0-0.1-0.1-0.3-0.1-0.6v-6.7c0-0.4,0.1-0.7,0.2-0.8c0.2-0.1,0.4-0.2,0.9-0.2    h4.7c0.2,0,0.3,0,0.4,0c0.1,0,0.2,0.1,0.3,0.1c0.2,0.1,0.3,0.4,0.3,0.9c0,0.6-0.1,0.9-0.4,1c-0.1,0-0.3,0.1-0.6,0.1h-3.7v1.2h2.4    c0.2,0,0.3,0,0.4,0c0.1,0,0.2,0.1,0.3,0.1c0.2,0.1,0.3,0.4,0.3,0.9c0,0.6-0.2,0.9-0.5,1c-0.1,0-0.3,0.1-0.6,0.1H645v1.3H645.2z"
   id="path1104" />
		<path
   class="st7"
   d="M654.1,284.2h3.3c0.3,0,0.5,0,0.6,0.1s0.2,0.2,0.2,0.3s0.1,0.3,0.1,0.5s0,0.4-0.1,0.5s-0.1,0.2-0.2,0.3    c-0.2,0.1-0.4,0.1-0.6,0.1H653c-0.6,0-0.9-0.2-1-0.5c0-0.1-0.1-0.3-0.1-0.6v-6.7c0-0.2,0-0.3,0-0.4s0-0.2,0.1-0.3    c0.1-0.2,0.4-0.3,0.9-0.3c0.6,0,0.9,0.1,1,0.4c0,0.1,0.1,0.3,0.1,0.6v6H654.1z"
   id="path1106" />
		<path
   class="st7"
   d="M668.2,277.3c0.5,0.2,0.7,0.5,0.7,0.8c0,0.1-0.1,0.3-0.2,0.6l-3.3,6.7c-0.1,0.2-0.2,0.3-0.4,0.4    s-0.4,0.2-0.6,0.2h-0.1c-0.2,0-0.4-0.1-0.6-0.2c-0.2-0.1-0.3-0.2-0.4-0.4l-3.3-6.7c-0.1-0.3-0.2-0.4-0.2-0.6    c0-0.3,0.2-0.5,0.7-0.8c0.3-0.1,0.5-0.2,0.6-0.2s0.2,0,0.3,0s0.1,0.1,0.2,0.2c0.1,0.1,0.1,0.2,0.2,0.3s0.2,0.4,0.5,1    s0.5,1.1,0.8,1.7s0.6,1.2,0.8,1.7s0.4,0.9,0.4,0.9l2.4-5.3c0.1-0.2,0.1-0.3,0.2-0.4c0.1-0.2,0.3-0.3,0.5-0.3    S668,277.2,668.2,277.3z"
   id="path1108" />
		<path
   class="st7"
   d="M672.9,283.8h3.7c0.2,0,0.3,0,0.4,0c0.1,0,0.2,0.1,0.3,0.1c0.2,0.1,0.3,0.4,0.3,0.9c0,0.6-0.1,0.9-0.4,1    c-0.1,0-0.3,0.1-0.6,0.1h-4.8c-0.6,0-0.9-0.2-1-0.5c0-0.1-0.1-0.3-0.1-0.6v-6.7c0-0.4,0.1-0.7,0.2-0.8c0.2-0.1,0.4-0.2,0.9-0.2    h4.7c0.2,0,0.3,0,0.4,0c0.1,0,0.2,0.1,0.3,0.1c0.2,0.1,0.3,0.4,0.3,0.9c0,0.6-0.1,0.9-0.4,1c-0.1,0-0.3,0.1-0.6,0.1h-3.7v1.2h2.4    c0.2,0,0.3,0,0.4,0c0.1,0,0.2,0.1,0.3,0.1c0.2,0.1,0.3,0.4,0.3,0.9c0,0.6-0.2,0.9-0.5,1c-0.1,0-0.3,0.1-0.6,0.1h-2.4v1.3H672.9z"
   id="path1110" />
	</g>
</g>






















<rect
   x="21.65"
   y="335.239"
   class="st8"
   width="226.8"
   height="226.8"
   id="rect1159" />
<rect
   style="fill:url(#linearGradient2265);fill-opacity:1;fill-rule:nonzero;stroke:#f30000;stroke-width:0.992619;stroke-dasharray:none;stroke-opacity:1"
   id="rect1478"
   width="177.50739"
   height="19.007381"
   x="46.47131"
   y="427.4353" /><rect
   style="fill:url(#linearGradient2320);fill-opacity:1;fill-rule:nonzero;stroke:#f30000;stroke-width:0.992619;stroke-dasharray:none;stroke-opacity:1"
   id="rect1478-8"
   width="177.50739"
   height="19.007381"
   x="46.47131"
   y="381.03531" /><rect
   style="fill:url(#linearGradient2333);fill-opacity:1;fill-rule:nonzero;stroke:#f30000;stroke-width:0.992619;stroke-dasharray:none;stroke-opacity:1"
   id="rect1478-5"
   width="177.50739"
   height="19.007381"
   x="46.47131"
   y="404.23532" /><rect
   style="fill:url(#linearGradient2346);fill-opacity:1;fill-rule:nonzero;stroke:#f30000;stroke-width:0.992619;stroke-dasharray:none;stroke-opacity:1"
   id="rect1478-54"
   width="177.50739"
   height="19.007381"
   x="46.47131"
   y="357.8353" /><rect
   style="fill:url(#linearGradient2359);fill-opacity:1;fill-rule:nonzero;stroke:#f30000;stroke-width:0.992619;stroke-dasharray:none;stroke-opacity:1"
   id="rect1478-6"
   width="177.50739"
   height="19.007381"
   x="46.47131"
   y="473.9353" /><rect
   style="fill:url(#linearGradient2372);fill-opacity:1;fill-rule:nonzero;stroke:#f30000;stroke-width:0.992619;stroke-dasharray:none;stroke-opacity:1"
   id="rect1478-9"
   width="177.50739"
   height="19.007381"
   x="46.47131"
   y="450.73532" /><rect
   style="fill:url(#linearGradient2385);fill-opacity:1;fill-rule:nonzero;stroke:#f30000;stroke-width:0.992619;stroke-dasharray:none;stroke-opacity:1"
   id="rect1478-4"
   width="177.50739"
   height="19.007381"
   x="46.47131"
   y="497.23532" /><rect
   style="fill:url(#linearGradient2398);fill-opacity:1;fill-rule:nonzero;stroke:#f30000;stroke-width:0.992619;stroke-dasharray:none;stroke-opacity:1"
   id="rect1478-2"
   width="177.50739"
   height="19.007381"
   x="46.47131"
   y="520.4353" /><g
   id="p-5"
   style="fill:none;stroke-linecap:round;stroke-linejoin:round"
   transform="matrix(3.7795276,0,0,3.7795276,234.34858,293.18291)"><text
     dominant-baseline="hanging"
     font-size="4px"
     style="font-style:normal;font-weight:normal;font-family:sans-serif;fill:#ff0000"
     text-anchor="middle"
     transform="translate(43.4,41.2)"
     id="text3279" /><path
     d="m 13.4,73.2 h 8.9 c 0.1,0 0,-0.1 0,0 v 2.9 c 0,0.055 0.045,0.1 0.1,0.1 h 6 c 0.055,0 0.1,-0.045 0.1,-0.1 v -2.9 c 0,-0.1 -0.1,0 0,0 h 5.8 c 0.1,0 0,-0.1 0,0 v 2.9 c 0,0.055 0.045,0.1 0.1,0.1 h 6 c 0.055,0 0.1,-0.045 0.1,-0.1 v -2.9 c 0,-0.1 -0.1,0 0,0 h 5.8 c 0.1,0 0,-0.1 0,0 v 2.9 c 0,0.055 0.045,0.1 0.1,0.1 h 6 c 0.055,0 0.1,-0.045 0.1,-0.1 v -2.9 c 0,-0.1 -0.1,0 0,0 h 5.8 c 0.1,0 0,-0.1 0,0 v 2.9 c 0,0.055 0.045,0.1 0.1,0.1 h 6 c 0.055,0 0.1,-0.045 0.1,-0.1 v -2.9 c 0,-0.1 -0.1,0 0,0 h 8.9 c 0.055,0 0.1,-0.045 0.1,-0.1 v -8.9 c 0,-0.1 -0.1,0 0,0 h 2.9 c 0.055,0 0.1,-0.045 0.1,-0.1 v -6 C 76.5,58.045 76.455,58 76.4,58 h -2.9 c -0.1,0 0,0.1 0,0 v -5.8 c 0,-0.1 -0.1,0 0,0 h 2.9 c 0.055,0 0.1,-0.045 0.1,-0.1 v -6 C 76.5,46.045 76.455,46 76.4,46 h -2.9 c -0.1,0 0,0.1 0,0 v -5.8 c 0,-0.1 -0.1,0 0,0 h 2.9 c 0.055,0 0.1,-0.045 0.1,-0.1 v -6 C 76.5,34.045 76.455,34 76.4,34 h -2.9 c -0.1,0 0,0.1 0,0 v -5.8 c 0,-0.1 -0.1,0 0,0 h 2.9 c 0.055,0 0.1,-0.045 0.1,-0.1 v -6 C 76.5,22.045 76.455,22 76.4,22 h -2.9 c -0.1,0 0,0.1 0,0 V 13.1 C 73.5,13.045 73.455,13 73.4,13 h -8.9 c -0.1,0 0,0.1 0,0 V 10.1 C 64.5,10.045 64.455,10 64.4,10 h -6 c -0.055,0 -0.1,0.045 -0.1,0.1 V 13 c 0,0.1 0.1,0 0,0 h -5.8 c -0.1,0 0,0.1 0,0 V 10.1 C 52.5,10.045 52.455,10 52.4,10 h -6 c -0.055,0 -0.1,0.045 -0.1,0.1 V 13 c 0,0.1 0.1,0 0,0 h -5.8 c -0.1,0 0,0.1 0,0 V 10.1 C 40.5,10.045 40.455,10 40.4,10 h -6 c -0.055,0 -0.1,0.045 -0.1,0.1 V 13 c 0,0.1 0.1,0 0,0 h -5.8 c -0.1,0 0,0.1 0,0 V 10.1 C 28.5,10.045 28.455,10 28.4,10 h -6 c -0.055,0 -0.1,0.045 -0.1,0.1 V 13 c 0,0.1 0.1,0 0,0 h -8.9 c -0.055,0 -0.1,0.045 -0.1,0.1 V 22 c 0,0.1 0.1,0 0,0 h -2.9 c -0.055,0 -0.1,0.045 -0.1,0.1 v 6 c 0,0.055 0.045,0.1 0.1,0.1 h 2.9 c 0.1,0 0,-0.1 0,0 V 34 c 0,0.1 0.1,0 0,0 h -2.9 c -0.055,0 -0.1,0.045 -0.1,0.1 v 6 c 0,0.055 0.045,0.1 0.1,0.1 h 2.9 c 0.1,0 0,-0.1 0,0 V 46 c 0,0.1 0.1,0 0,0 h -2.9 c -0.055,0 -0.1,0.045 -0.1,0.1 v 6 c 0,0.055 0.045,0.1 0.1,0.1 h 2.9 c 0.1,0 0,-0.1 0,0 V 58 c 0,0.1 0.1,0 0,0 h -2.9 c -0.055,0 -0.1,0.045 -0.1,0.1 v 6 c 0,0.055 0.045,0.1 0.1,0.1 h 2.9 c 0.1,0 0,-0.1 0,0 v 8.9 c 0,0.055 0.045,0.1 0.1,0.1"
     stroke="#000000"
     stroke-width="0.2"
     id="path3281" /></g><g
   id="g3894"
   transform="translate(-7.6300818,8.901762)"><g
     id="g3885"
     transform="translate(-8.4753544)"><circle
       class="st2"
       cx="593.81879"
       cy="28.638571"
       r="4.3000002"
       id="circle806" /><circle
       class="st2"
       cx="891.41876"
       cy="326.23856"
       r="4.3000002"
       id="circle808" /><circle
       class="st2"
       cx="593.81879"
       cy="326.23856"
       r="4.3000002"
       id="circle810" /><circle
       class="st2"
       cx="891.41876"
       cy="28.638571"
       r="4.3000002"
       id="circle812" /></g><path
     class="st2"
     d="m 890.04342,347.53857 h -311.8 c -7.8,0 -14.2,-6.3 -14.2,-14.2 V 21.538569 c 0,-7.8 6.3,-14.1999997 14.2,-14.1999997 h 311.8 c 7.8,0 14.2,6.2999997 14.2,14.1999997 V 333.33857 c 0,7.8 -6.3,14.2 -14.2,14.2 z"
     id="path804" /><path
     style="fill:none;fill-opacity:1;fill-rule:nonzero;stroke:#f30000;stroke-width:1;stroke-dasharray:none;stroke-opacity:1"
     d="m 654.33128,52.536585 c 0,11.13089 0,11.3279 0,11.3279 h 23.44383 v -11.3279 h 22.06478 v 11.13089 h 23.34532 v -11.22939 h 21.86777 v 11.22939 h 23.54233 v -11.3279 h 21.86778 v 11.3279 h 23.24682 v -11.22939 h 45.5086 v 45.109907 h -11.20274 v 23.397798 h 11.18125 v 22.3625 h -11.18125 v 23.19074 h 10.97419 v 21.94838 h -11.18125 v 23.3978 h 11.38831 v 22.3625 h -11.38831 v 22.98368 h 11.38831 v 45.34617 h -45.34618 v -11.38831 h -23.60486 v 11.18125 h -21.53426 v -10.97419 h -23.39779 v 10.97419 h -22.3625 v -10.97419 h -23.19074 v 11.18125 h -21.94838 v -11.38831 h -23.3978 v 11.38831 h -45.34618 v -45.13911 h 11.18125 v -23.60486 h -10.76713 v -21.74132 h 10.56007 v -23.60486 h -10.97419 v -21.94838 h 11.38831 v -23.3978 h -11.18125 v -21.74132 h 10.76713 V 97.962112 H 609.27539 V 52.408875 Z"
     id="path3609" /></g><g
   id="p-1"
   style="fill:none;stroke-linecap:round;stroke-linejoin:round"
   transform="matrix(3.7795276,0,0,3.7795276,-13.456407,-275.13232)"><text
     dominant-baseline="hanging"
     font-size="4px"
     style="font-style:normal;font-weight:normal;font-family:sans-serif;fill:#ff0000"
     text-anchor="middle"
     transform="translate(43.4,136.1)"
     id="text3259" /><path
     d="m 13.4,157.6 h 9 c 0.055,0 0.1,-0.045 0.1,-0.1 v -2.9 c 0,-0.1 -0.1,0 0,0 h 5.8 c 0.1,0 0,-0.1 0,0 v 2.9 c 0,0.055 0.045,0.1 0.1,0.1 h 6 c 0.055,0 0.1,-0.045 0.1,-0.1 v -2.9 c 0,-0.1 -0.1,0 0,0 h 5.8 c 0.1,0 0,-0.1 0,0 v 2.9 c 0,0.055 0.045,0.1 0.1,0.1 h 6 c 0.055,0 0.1,-0.045 0.1,-0.1 v -2.9 c 0,-0.1 -0.1,0 0,0 h 5.8 c 0.1,0 0,-0.1 0,0 v 2.9 c 0,0.055 0.045,0.1 0.1,0.1 h 6 c 0.055,0 0.1,-0.045 0.1,-0.1 v -2.9 c 0,-0.1 -0.1,0 0,0 h 5.8 c 0.1,0 0,-0.1 0,0 v 2.9 c 0,0.055 0.045,0.1 0.1,0.1 h 9 3 c 0.055,0 0.1,-0.045 0.1,-0.1 v -3 -7.5 c 0,-0.055 -0.045,-0.1 -0.1,-0.1 h -2.9 c -0.1,0 0,0.1 0,0 v -5.8 c 0,-0.1 -0.1,0 0,0 h 2.9 c 0.055,0 0.1,-0.045 0.1,-0.1 v -6 c 0,-0.055 -0.045,-0.1 -0.1,-0.1 h -2.9 c -0.1,0 0,0.1 0,0 v -5.8 c 0,-0.1 -0.1,0 0,0 h 2.9 c 0.055,0 0.1,-0.045 0.1,-0.1 v -7.5 -3 c 0,-0.055 -0.045,-0.1 -0.1,-0.1 h -3 -9 c -0.055,0 -0.1,0.045 -0.1,0.1 v 2.9 c 0,0.1 0.1,0 0,0 h -5.8 c -0.1,0 0,0.1 0,0 v -2.9 c 0,-0.055 -0.045,-0.1 -0.1,-0.1 h -6 c -0.055,0 -0.1,0.045 -0.1,0.1 v 2.9 c 0,0.1 0.1,0 0,0 h -5.8 c -0.1,0 0,0.1 0,0 v -2.9 c 0,-0.055 -0.045,-0.1 -0.1,-0.1 h -6 c -0.055,0 -0.1,0.045 -0.1,0.1 v 2.9 c 0,0.1 0.1,0 0,0 h -5.8 c -0.1,0 0,0.1 0,0 v -2.9 c 0,-0.055 -0.045,-0.1 -0.1,-0.1 h -6 c -0.055,0 -0.1,0.045 -0.1,0.1 v 2.9 c 0,0.1 0.1,0 0,0 h -5.8 c -0.1,0 0,0.1 0,0 v -2.9 c 0,-0.055 -0.045,-0.1 -0.1,-0.1 h -9 -3 c -0.055,0 -0.1,0.045 -0.1,0.1 v 3 7.5 c 0,0.055 0.045,0.1 0.1,0.1 h 2.9 c 0.1,0 0,-0.1 0,0 v 5.8 c 0,0.1 0.1,0 0,0 h -2.9 c -0.055,0 -0.1,0.045 -0.1,0.1 v 6 c 0,0.055 0.045,0.1 0.1,0.1 h 2.9 c 0.1,0 0,-0.1 0,0 v 5.8 c 0,0.1 0.1,0 0,0 h -2.9 c -0.055,0 -0.1,0.045 -0.1,0.1 v 7.5 3 c 0,0.055 0.045,0.1 0.1,0.1 h 3"
     stroke="#000000"
     stroke-width="0.2"
     id="path3261" /></g><g
   id="p-2"
   style="fill:none;stroke-linecap:round;stroke-linejoin:round"
   transform="matrix(3.7795276,0,0,3.7795276,-13.456407,-275.13232)"><text
     dominant-baseline="hanging"
     font-size="4px"
     style="font-style:normal;font-weight:normal;font-family:sans-serif;fill:#ff0000"
     text-anchor="middle"
     transform="translate(111.1,136.1)"
     id="text3264" /><path
     d="m 81.1,157.6 h 9 c 0.055,0 0.1,-0.045 0.1,-0.1 v -2.9 c 0,-0.1 -0.1,0 0,0 H 96 c 0.1,0 0,-0.1 0,0 v 2.9 c 0,0.055 0.045,0.1 0.1,0.1 h 6 c 0.055,0 0.1,-0.045 0.1,-0.1 v -2.9 c 0,-0.1 -0.1,0 0,0 h 5.8 c 0.1,0 0,-0.1 0,0 v 2.9 c 0,0.055 0.045,0.1 0.1,0.1 h 6 c 0.055,0 0.1,-0.045 0.1,-0.1 v -2.9 c 0,-0.1 -0.1,0 0,0 h 5.8 c 0.1,0 0,-0.1 0,0 v 2.9 c 0,0.055 0.045,0.1 0.1,0.1 h 6 c 0.055,0 0.1,-0.045 0.1,-0.1 v -2.9 c 0,-0.1 -0.1,0 0,0 h 5.8 c 0.1,0 0,-0.1 0,0 v 2.9 c 0,0.055 0.045,0.1 0.1,0.1 h 9 c 0.055,0 0.1,-0.045 0.1,-0.1 v -3 -7.4 c 0,-0.1 -0.1,0 0,0 h 2.9 c 0.055,0 0.1,-0.045 0.1,-0.1 v -6 c 0,-0.055 -0.045,-0.1 -0.1,-0.1 h -2.9 c -0.1,0 0,0.1 0,0 v -5.8 c 0,-0.1 -0.1,0 0,0 h 2.9 c 0.055,0 0.1,-0.045 0.1,-0.1 v -6 c 0,-0.055 -0.045,-0.1 -0.1,-0.1 h -2.9 c -0.1,0 0,0.1 0,0 v -7.4 -3 c 0,-0.055 -0.045,-0.1 -0.1,-0.1 h -9 c -0.055,0 -0.1,0.045 -0.1,0.1 v 2.9 c 0,0.1 0.1,0 0,0 h -5.8 c -0.1,0 0,0.1 0,0 v -2.9 c 0,-0.055 -0.045,-0.1 -0.1,-0.1 h -6 c -0.055,0 -0.1,0.045 -0.1,0.1 v 2.9 c 0,0.1 0.1,0 0,0 h -5.8 c -0.1,0 0,0.1 0,0 v -2.9 c 0,-0.055 -0.045,-0.1 -0.1,-0.1 h -6 c -0.055,0 -0.1,0.045 -0.1,0.1 v 2.9 c 0,0.1 0.1,0 0,0 h -5.8 c -0.1,0 0,0.1 0,0 v -2.9 c 0,-0.055 -0.045,-0.1 -0.1,-0.1 h -6 c -0.055,0 -0.1,0.045 -0.1,0.1 v 2.9 c 0,0.1 0.1,0 0,0 h -5.8 c -0.1,0 0,0.1 0,0 v -2.9 c 0,-0.055 -0.045,-0.1 -0.1,-0.1 h -9 c -0.055,0 -0.1,0.045 -0.1,0.1 v 3 7.4 c 0,0.1 0.1,0 0,0 h -2.9 c -0.055,0 -0.1,0.045 -0.1,0.1 v 6 c 0,0.055 0.045,0.1 0.1,0.1 H 81 c 0.1,0 0,-0.1 0,0 v 5.8 c 0,0.1 0.1,0 0,0 h -2.9 c -0.055,0 -0.1,0.045 -0.1,0.1 v 6 c 0,0.055 0.045,0.1 0.1,0.1 H 81 c 0.1,0 0,-0.1 0,0 v 7.4 3 c 0,0.055 0.045,0.1 0.1,0.1"
     stroke="#000000"
     stroke-width="0.2"
     id="path3266" /></g><g
   id="p-3"
   style="fill:none;stroke-linecap:round;stroke-linejoin:round"
   transform="matrix(3.7795276,0,0,3.7795276,-13.456407,-275.13232)"><text
     dominant-baseline="hanging"
     font-size="4px"
     style="font-style:normal;font-weight:normal;font-family:sans-serif;fill:#ff0000"
     text-anchor="middle"
     transform="translate(111.1,95.4)"
     id="text3269" /><path
     d="m 81.1,116.9 h 9 c 0.055,0 0.1,-0.045 0.1,-0.1 v -2.9 c 0,-0.1 -0.1,0 0,0 H 96 c 0.1,0 0,-0.1 0,0 v 2.9 c 0,0.055 0.045,0.1 0.1,0.1 h 6 c 0.055,0 0.1,-0.045 0.1,-0.1 v -2.9 c 0,-0.1 -0.1,0 0,0 h 5.8 c 0.1,0 0,-0.1 0,0 v 2.9 c 0,0.055 0.045,0.1 0.1,0.1 h 6 c 0.055,0 0.1,-0.045 0.1,-0.1 v -2.9 c 0,-0.1 -0.1,0 0,0 h 5.8 c 0.1,0 0,-0.1 0,0 v 2.9 c 0,0.055 0.045,0.1 0.1,0.1 h 6 c 0.055,0 0.1,-0.045 0.1,-0.1 v -2.9 c 0,-0.1 -0.1,0 0,0 h 5.8 c 0.1,0 0,-0.1 0,0 v 2.9 c 0,0.055 0.045,0.1 0.1,0.1 h 9 c 0.055,0 0.1,-0.045 0.1,-0.1 v -3 -7.4 c 0,-0.1 -0.1,0 0,0 h 2.9 c 0.055,0 0.1,-0.045 0.1,-0.1 v -6 c 0,-0.055 -0.045,-0.1 -0.1,-0.1 h -2.9 c -0.1,0 0,0.1 0,0 v -5.8 c 0,-0.1 -0.1,0 0,0 h 2.9 c 0.055,0 0.1,-0.045 0.1,-0.1 v -6 c 0,-0.055 -0.045,-0.1 -0.1,-0.1 h -2.9 c -0.1,0 0,0.1 0,0 v -7.4 -3 c 0,-0.055 -0.045,-0.1 -0.1,-0.1 h -9 c -0.055,0 -0.1,0.045 -0.1,0.1 v 2.9 c 0,0.1 0.1,0 0,0 h -5.8 c -0.1,0 0,0.1 0,0 v -2.9 c 0,-0.055 -0.045,-0.1 -0.1,-0.1 h -6 c -0.055,0 -0.1,0.045 -0.1,0.1 v 2.9 c 0,0.1 0.1,0 0,0 h -5.8 c -0.1,0 0,0.1 0,0 v -2.9 c 0,-0.055 -0.045,-0.1 -0.1,-0.1 h -6 c -0.055,0 -0.1,0.045 -0.1,0.1 v 2.9 c 0,0.1 0.1,0 0,0 h -5.8 c -0.1,0 0,0.1 0,0 v -2.9 c 0,-0.055 -0.045,-0.1 -0.1,-0.1 h -6 c -0.055,0 -0.1,0.045 -0.1,0.1 v 2.9 c 0,0.1 0.1,0 0,0 h -5.8 c -0.1,0 0,0.1 0,0 v -2.9 c 0,-0.055 -0.045,-0.1 -0.1,-0.1 h -9 c -0.055,0 -0.1,0.045 -0.1,0.1 v 3 7.4 c 0,0.1 0.1,0 0,0 h -2.9 c -0.055,0 -0.1,0.045 -0.1,0.1 v 6 c 0,0.055 0.045,0.1 0.1,0.1 H 81 c 0.1,0 0,-0.1 0,0 v 5.8 c 0,0.1 0.1,0 0,0 h -2.9 c -0.055,0 -0.1,0.045 -0.1,0.1 v 6 c 0,0.055 0.045,0.1 0.1,0.1 H 81 c 0.1,0 0,-0.1 0,0 v 7.4 3 c 0,0.055 0.045,0.1 0.1,0.1"
     stroke="#000000"
     stroke-width="0.2"
     id="path3271" /></g><g
   id="p-4"
   style="fill:none;stroke-linecap:round;stroke-linejoin:round"
   transform="matrix(3.7795276,0,0,3.7795276,-13.456407,-275.13232)"><text
     dominant-baseline="hanging"
     font-size="4px"
     style="font-style:normal;font-weight:normal;font-family:sans-serif;fill:#ff0000"
     text-anchor="middle"
     transform="translate(43.4,95.4)"
     id="text3274" /><path
     d="m 13.4,116.9 h 9 c 0.055,0 0.1,-0.045 0.1,-0.1 v -2.9 c 0,-0.1 -0.1,0 0,0 h 5.8 c 0.1,0 0,-0.1 0,0 v 2.9 c 0,0.055 0.045,0.1 0.1,0.1 h 6 c 0.055,0 0.1,-0.045 0.1,-0.1 v -2.9 c 0,-0.1 -0.1,0 0,0 h 5.8 c 0.1,0 0,-0.1 0,0 v 2.9 c 0,0.055 0.045,0.1 0.1,0.1 h 6 c 0.055,0 0.1,-0.045 0.1,-0.1 v -2.9 c 0,-0.1 -0.1,0 0,0 h 5.8 c 0.1,0 0,-0.1 0,0 v 2.9 c 0,0.055 0.045,0.1 0.1,0.1 h 6 c 0.055,0 0.1,-0.045 0.1,-0.1 v -2.9 c 0,-0.1 -0.1,0 0,0 h 5.8 c 0.1,0 0,-0.1 0,0 v 2.9 c 0,0.055 0.045,0.1 0.1,0.1 h 9 3 c 0.055,0 0.1,-0.045 0.1,-0.1 v -3 -7.5 c 0,-0.055 -0.045,-0.1 -0.1,-0.1 h -2.9 c -0.1,0 0,0.1 0,0 v -5.8 c 0,-0.1 -0.1,0 0,0 h 2.9 c 0.055,0 0.1,-0.045 0.1,-0.1 v -6 c 0,-0.055 -0.045,-0.1 -0.1,-0.1 h -2.9 c -0.1,0 0,0.1 0,0 v -5.8 c 0,-0.1 -0.1,0 0,0 h 2.9 c 0.055,0 0.1,-0.045 0.1,-0.1 v -7.5 -3 c 0,-0.055 -0.045,-0.1 -0.1,-0.1 h -3 -9 c -0.055,0 -0.1,0.045 -0.1,0.1 v 2.9 c 0,0.1 0.1,0 0,0 h -5.8 c -0.1,0 0,0.1 0,0 v -2.9 c 0,-0.055 -0.045,-0.1 -0.1,-0.1 h -6 c -0.055,0 -0.1,0.045 -0.1,0.1 v 2.9 c 0,0.1 0.1,0 0,0 h -5.8 c -0.1,0 0,0.1 0,0 v -2.9 c 0,-0.055 -0.045,-0.1 -0.1,-0.1 h -6 c -0.055,0 -0.1,0.045 -0.1,0.1 v 2.9 c 0,0.1 0.1,0 0,0 h -5.8 c -0.1,0 0,0.1 0,0 v -2.9 c 0,-0.055 -0.045,-0.1 -0.1,-0.1 h -6 c -0.055,0 -0.1,0.045 -0.1,0.1 v 2.9 c 0,0.1 0.1,0 0,0 h -5.8 c -0.1,0 0,0.1 0,0 v -2.9 c 0,-0.055 -0.045,-0.1 -0.1,-0.1 h -9 -3 c -0.055,0 -0.1,0.045 -0.1,0.1 v 3 7.5 c 0,0.055 0.045,0.1 0.1,0.1 h 2.9 c 0.1,0 0,-0.1 0,0 v 5.8 c 0,0.1 0.1,0 0,0 h -2.9 c -0.055,0 -0.1,0.045 -0.1,0.1 v 6 c 0,0.055 0.045,0.1 0.1,0.1 h 2.9 c 0.1,0 0,-0.1 0,0 v 5.8 c 0,0.1 0.1,0 0,0 h -2.9 c -0.055,0 -0.1,0.045 -0.1,0.1 v 7.5 3 c 0,0.055 0.045,0.1 0.1,0.1 h 3"
     stroke="#000000"
     stroke-width="0.2"
     id="path3276" /></g></svg>
